<?xml version="1.0" encoding="UTF-8" standalone="no"?>
<!-- Created with Inkscape (http://www.inkscape.org/) -->

<svg
   width="38.720905mm"
   height="202.85718mm"
   viewBox="0 0 38.720905 202.85718"
   version="1.1"
   id="svg19456"
   inkscape:version="1.2.2 (b0a8486541, 2022-12-01)"
   sodipodi:docname="gnome4_axe.svg"
   xmlns:inkscape="http://www.inkscape.org/namespaces/inkscape"
   xmlns:sodipodi="http://sodipodi.sourceforge.net/DTD/sodipodi-0.dtd"
   xmlns="http://www.w3.org/2000/svg"
   xmlns:svg="http://www.w3.org/2000/svg">
  <sodipodi:namedview
     id="namedview19458"
     pagecolor="#ffffff"
     bordercolor="#000000"
     borderopacity="0.25"
     inkscape:showpageshadow="2"
     inkscape:pageopacity="0.0"
     inkscape:pagecheckerboard="0"
     inkscape:deskcolor="#d1d1d1"
     inkscape:document-units="mm"
     showgrid="false"
     inkscape:zoom="0.5"
     inkscape:cx="-454"
     inkscape:cy="387"
     inkscape:window-width="1916"
     inkscape:window-height="1036"
     inkscape:window-x="1280"
     inkscape:window-y="0"
     inkscape:window-maximized="1"
     inkscape:current-layer="g12895" />
  <defs
     id="defs19453" />
  <g
     inkscape:label="Layer 1"
     inkscape:groupmode="layer"
     id="layer1"
     transform="translate(-92.385295,-16.603418)">
    <g
       id="g4098"
       transform="matrix(0.15009475,0.5728352,-0.5728352,0.15009475,192.48452,110.80804)">
      <g
         id="g12895"
         transform="rotate(-75.294996,100.49781,248.0754)">
        <g
           id="g12878">
          <rect
             style="fill:#000000;fill-opacity:1;stroke-width:0.585933"
             id="rect12861"
             width="10.931153"
             height="253.51198"
             x="179.78183"
             y="17.831963"
             ry="1.5393869"
             rx="5.4655766"
             transform="matrix(0.99999989,4.6007851e-4,-2.370552e-4,0.99999997,0,0)" />
          <rect
             style="fill:#824d26;fill-opacity:1;stroke-width:0.50867"
             id="rect10590"
             width="8.3063059"
             height="251.439"
             x="181.08624"
             y="18.842442"
             ry="1.5267992"
             rx="4.1531529"
             transform="matrix(0.99999982,6.0051544e-4,-1.8161731e-4,0.99999998,0,0)" />
          <rect
             style="fill:#a4602f;fill-opacity:1;stroke-width:0.432027"
             id="rect10644"
             width="6.0477161"
             height="249.11485"
             x="181.07303"
             y="18.803244"
             ry="1.5126864"
             rx="3.0238581"
             transform="matrix(0.99999967,8.1716107e-4,-1.3346694e-4,0.99999999,0,0)" />
        </g>
        <g
           id="g128644"
           style="fill:#dea27a;fill-opacity:1">
          <path
             style="fill:#000000;fill-opacity:1;stroke-width:0.676378"
             d="m 193.07653,38.633291 c 0,0 18.02311,-27.797121 18.15013,-63.534242 0.12701,-35.73712 -0.65917,-39.272818 -0.65917,-39.272818 l -6.03345,0.841813 -0.11083,2.621532 -0.075,-4.682207 -6.02086,0.472192 -12.98425,-1.288139 -0.083,0.726956 0.079,-1.830332 c 0,0 -2.29644,1.485202 -4.5253,0.737323 -2.22887,-0.747879 -3.43942,-1.218543 -3.43942,-1.218543 l 0.72743,17.780819 -0.55878,-16.506621 c 0,0 -3.80321,1.511598 -7.59223,1.572885 -3.48054,0.0563 -7.29083,-2.805686 -7.29083,-2.805686 l 0.0533,3.901085 -0.62838,-7.275316 c 0,0 -1.22621,2.128923 -3.82446,2.630662 -2.45025,0.473158 -3.51768,-0.331998 -3.51768,-0.331998 l 0.96644,8.633332 -0.20088,-1.012889 c 0,0 -3.58385,2.49925 -6.35285,2.741795 -2.76901,0.242547 -3.31274,0.202978 -3.31274,0.202978 0,0 13.7859,58.7871051 18.22231,71.778096 0.73873,3.902283 5.55559,13.613574 13.39032,23.91797 9.83869,-0.217204 15.62119,1.199355 15.62119,1.199355 z"
             id="path128696"
             sodipodi:nodetypes="csccccccccscccscccscccsccccc" />
          <path
             style="fill:#dea27a;fill-opacity:1;stroke-width:0.676378"
             d="m 192.36095,36.65168 c 0,0 17.37108,-28.2557181 17.4981,-63.992839 0.12701,-35.73712 -0.2341,-35.954147 -0.2341,-35.954147 l -4.2157,0.735574 -2.49308,32.172236 0.76431,-33.825573 -5.10826,0.48362 -12.49828,-1.135481 -1.90081,14.676011 0.62945,-16.38656 c 0,0 -1.89056,1.437488 -4.11942,0.689609 -2.22887,-0.747879 -2.8103,-1.106984 -2.8103,-1.106984 l 0.84394,29.299379 -2.07502,-27.511548 c 0,0 -5.48042,2.150034 -8.73834,0.92397 -3.25793,-1.226066 -4.30828,-2.020117 -4.30828,-2.020117 l 1.56776,42.236675 -3.52498,-45.695726 c 0,0 -1.72446,3.03919 -4.15284,2.464328 -2.4284,-0.574862 -2.01363,-0.500384 -2.01363,-0.500384 l 2.42836,25.875661 -2.66678,-18.280191 c 0,0 -2.72062,2.6808 -5.48962,2.923345 -2.76901,0.242547 -2.62655,0.06084 -2.62655,0.06084 0,0 14.03213,57.31661466 18.46854,70.307606 0.73873,3.902283 5.3036,13.781139 13.13833,24.085535 9.83869,-0.217204 13.6372,-0.524836 13.6372,-0.524836 z"
             id="path127618"
             sodipodi:nodetypes="csccccccccscccscccscccsccccc" />
          <path
             style="fill:#000000;fill-opacity:1;stroke-width:0.562405"
             d="m 176.43464,35.672537 c 0,0 0.0733,7.516022 -1.36755,9.52723 -0.61134,0.848286 -4.57892,5.261488 -4.57892,5.261488 l 10.14423,-5.43972 c 0,0 0.62931,0.715071 3.56254,1.833648 2.93322,1.118577 8.51525,5.205239 8.51525,5.205239 0,0 -6.457,-6.847837 -5.95981,-8.191527 0.49719,-1.343695 0.14245,-1.1442 0.14245,-1.1442 0,0 1.42,1.813934 1.19381,2.32132 -0.17503,0.392618 -0.41075,1.167476 -0.41075,1.167476 0,0 2.55084,0.08818 2.95809,-1.188077 0.40727,-1.276249 -0.37115,-1.101048 -0.37115,-1.101048 0,0 2.4106,3.385154 4.55506,3.648232 2.14445,0.263078 4.50296,-1.232686 4.50296,-1.232686 0,0 -2.6225,-0.493796 -3.18563,-2.900949 -0.43157,-1.844823 -2.25065,-6.114257 -2.1313,-6.921296 0.0854,-0.577235 -0.32245,0.594949 -1.42955,0.920931 -1.05738,0.311332 -2.95587,0.563721 -2.95587,0.563721 l -3.78197,0.460804 z"
             id="path130201"
             sodipodi:nodetypes="ccccscscscscscsssccc" />
          <path
             style="fill:#dea27a;fill-opacity:1;stroke-width:0.562405"
             d="m 177.67546,38.678298 c 0,0 -0.58034,5.610593 -1.19172,6.458873 -0.61134,0.848286 -4.43988,4.166885 -4.43988,4.166885 l 9.05408,-6.33765 c 0,0 0.52406,1.85449 3.45729,2.973067 2.93322,1.118577 7.75153,5.778597 7.75153,5.778597 0,0 -7.2409,-6.879383 -6.74371,-8.223073 0.49719,-1.343695 1.24088,-2.664892 1.24088,-2.664892 0,0 2.50351,3.792272 2.19571,4.254723 -0.3078,0.462451 -0.69035,0.722429 -0.69035,0.722429 0,0 1.40249,-0.307926 1.80974,-1.584182 0.40727,-1.276249 0.2501,-2.206544 0.2501,-2.206544 0,0 2.54182,4.387188 4.68628,4.650266 2.14445,0.263078 2.43252,-0.293898 2.43252,-0.293898 0,0 -1.81967,0.09284 -2.3828,-2.314315 -0.43157,-1.844823 -2.03694,-5.598249 -1.91759,-6.405288 0.0854,-0.577235 0.49392,-0.540677 -0.6132,-0.214698 -1.05738,0.311332 -2.95587,0.563721 -2.95587,0.563721 l -3.78197,0.460804 z"
             id="path128346"
             sodipodi:nodetypes="ccccscscscscscsssccc" />
          <path
             style="fill:#e7bc9f;fill-opacity:1;stroke-width:0.676378"
             d="m 192.36095,36.65168 c 0,0 17.37108,-28.2557181 17.4981,-63.992839 0.12701,-35.73712 -0.2341,-35.954147 -0.2341,-35.954147 l -1.58556,0.373556 -5.78554,54.099886 1.42663,-55.391205 -5.10826,0.48362 -9.56806,-0.779011 c 0,0 -1.36742,6.308939 -1.91134,13.473935 -0.54392,7.164996 -0.83793,29.592317 -0.83793,29.592317 l -2.08176,-28.746711 0.62945,-16.38656 c 0,0 -1.8843,1.41856 -4.11942,0.689609 -0.54309,-0.177121 -0.45307,-0.152832 -0.45307,-0.152832 l 2.2271,69.6214138 -3.74039,-41.2761868 -2.07502,-27.511548 c 0,0 -5.48042,2.150034 -8.73834,0.92397 -3.25793,-1.226066 -1.27419,-0.54045 -1.27419,-0.54045 0,0 0.18941,25.805772 0.94664,35.880666 0.75722,10.074894 2.89719,24.5134176 2.89719,24.5134176 l -5.31016,-19.6370756 -3.52498,-45.695726 c 0,0 -1.68463,2.976735 -4.12397,2.450315 -0.42581,-0.09189 -0.29029,-0.03983 -0.29029,-0.03983 l 3.55728,35.451893 -2.85226,-10.036782 -2.66678,-18.280191 c 0,0 -1.82497,1.880589 -4.25535,2.581612 -1.50564,0.434289 -1.19734,0.34875 -1.19734,0.34875 0,0 15.05527,57.11880117 19.49168,70.109793 0.73873,3.902283 5.69538,13.268227 13.53011,23.572623 9.83869,-0.217204 9.52993,0.253724 9.52993,0.253724 z"
             id="path135200"
             sodipodi:nodetypes="cscccccczcccsccccsczcccsccccsccccc" />
        </g>
        <path
           style="fill:#000000;fill-opacity:1;stroke-width:1.14245"
           d="m 176.02521,35.094557 c 0,0 -0.60344,1.364403 -0.50992,2.715641 0.0935,1.351227 0.83925,2.193448 0.83925,2.193448 0,0 12.19065,-0.01953 15.89545,-0.928798 1.2622,-0.187413 2.19727,-0.386243 2.19727,-0.386243 0,0 0.91036,-1.599922 0.91315,-3.04513 0.004,-1.445203 -0.39131,-1.66007 -0.39131,-1.66007 0,0 -17.50745,0.761788 -18.23832,0.953437 -0.73089,0.19164 -0.70575,0.157692 -0.70575,0.157692 z"
           id="path131033"
           sodipodi:nodetypes="csccczcscc" />
        <path
           style="fill:#eac88c;fill-opacity:1;stroke-width:0.822985"
           d="m 177.66124,35.769034 c 0,0 -0.49862,0.857103 -0.42146,1.705882 0.0772,0.848773 0.41355,1.26015 0.41355,1.26015 0,0 10.35047,0.104399 13.41113,-0.467048 1.04273,-0.117822 2.10217,-0.3379 2.10217,-0.3379 0,0 0.46524,-0.90996 0.46766,-1.817774 0.003,-0.907812 -0.32314,-1.042751 -0.32314,-1.042751 0,0 -14.46322,0.479875 -15.06702,0.600317 -0.60381,0.120436 -0.58304,0.09911 -0.58304,0.09911 z"
           id="path127674"
           sodipodi:nodetypes="csccczcscc" />
        <path
           style="fill:#faf2e4;fill-opacity:1;stroke-width:0.46202"
           d="m 183.5574,35.875582 c 0,0 -0.29601,0.45272 -0.24271,0.892191 0.0533,0.439469 0.26057,0.647831 0.26057,0.647831 0,0 6.28165,-0.106279 8.13456,-0.450419 0.63184,-0.07734 1.27304,-0.208025 1.27304,-0.208025 0,0 0.27538,-0.479644 0.2699,-0.950999 -0.005,-0.471353 -0.20405,-0.536364 -0.20405,-0.536364 0,0 -8.77287,0.473392 -9.13835,0.545284 -0.36548,0.07189 -0.35305,0.0605 -0.35305,0.0605 z"
           id="path138121"
           sodipodi:nodetypes="csccczcscc" />
      </g>
      <g
         id="g8230"
         transform="rotate(-171.10671,144.68139,161.82571)">
        <g
           id="g4080"
           style="fill:#000000"
           transform="matrix(1.0859481,0,0,1.1179733,-14.77694,-18.672677)">
          <path
             style="fill:#000000;fill-opacity:1;stroke-width:0.264999"
             id="path4065"
             sodipodi:type="arc"
             sodipodi:cx="170.7856"
             sodipodi:cy="156.61113"
             sodipodi:rx="15.532881"
             sodipodi:ry="10.607408"
             sodipodi:start="0"
             sodipodi:end="6.24889"
             sodipodi:open="true"
             sodipodi:arc-type="arc"
             d="m 186.31848,156.61113 a 15.532881,10.607408 0 0 1 -15.39971,10.60702 15.532881,10.607408 0 0 1 -15.66377,-10.42514 15.532881,10.607408 0 0 1 15.13111,-10.78578 15.532881,10.607408 0 0 1 15.92324,10.24019" />
          <path
             style="fill:#000000;fill-opacity:1;stroke-width:0.264999"
             id="path4067"
             sodipodi:type="arc"
             sodipodi:cx="161.70638"
             sodipodi:cy="151.64915"
             sodipodi:rx="6.1246076"
             sodipodi:ry="7.1363573"
             sodipodi:start="0"
             sodipodi:end="6.24889"
             sodipodi:open="true"
             sodipodi:arc-type="arc"
             d="m 167.83098,151.64915 a 6.1246076,7.1363573 0 0 1 -6.07209,7.1361 6.1246076,7.1363573 0 0 1 -6.17622,-7.01373 6.1246076,7.1363573 0 0 1 5.96619,-7.25636 6.1246076,7.1363573 0 0 1 6.27852,6.8893" />
          <path
             style="fill:#000000;fill-opacity:1;stroke-width:0.264999"
             id="path4069"
             sodipodi:type="arc"
             sodipodi:cx="169.62576"
             sodipodi:cy="149.81342"
             sodipodi:rx="6.1246076"
             sodipodi:ry="7.1363573"
             sodipodi:start="0"
             sodipodi:end="6.24889"
             sodipodi:open="true"
             sodipodi:arc-type="arc"
             d="m 175.75037,149.81342 a 6.1246076,7.1363573 0 0 1 -6.0721,7.13609 6.1246076,7.1363573 0 0 1 -6.17621,-7.01373 6.1246076,7.1363573 0 0 1 5.96619,-7.25636 6.1246076,7.1363573 0 0 1 6.27852,6.8893" />
          <path
             style="fill:#000000;fill-opacity:1;stroke-width:0.209375"
             id="path4071"
             sodipodi:type="arc"
             sodipodi:cx="230.08562"
             sodipodi:cy="39.278774"
             sodipodi:rx="3.8708475"
             sodipodi:ry="7.0487123"
             sodipodi:start="0"
             sodipodi:end="6.24889"
             sodipodi:open="true"
             sodipodi:arc-type="arc"
             d="m 233.95646,39.278774 a 3.8708475,7.0487123 0 0 1 -3.83766,7.048453 3.8708475,7.0487123 0 0 1 -3.90346,-6.92759 3.8708475,7.0487123 0 0 1 3.77072,-7.167243 3.8708475,7.0487123 0 0 1 3.96813,6.80469"
             transform="matrix(0.8592139,0.51161653,-0.33524464,0.94213111,0,0)" />
          <path
             style="fill:#000000;fill-opacity:1;stroke-width:0.233559"
             id="path4073"
             sodipodi:type="arc"
             sodipodi:cx="203.98505"
             sodipodi:cy="110.55006"
             sodipodi:rx="5.3479609"
             sodipodi:ry="6.3484893"
             sodipodi:start="0"
             sodipodi:end="6.24889"
             sodipodi:open="true"
             sodipodi:arc-type="arc"
             d="m 209.33301,110.55006 a 5.3479609,6.3484893 0 0 1 -5.30211,6.34825 5.3479609,6.3484893 0 0 1 -5.39303,-6.2394 5.3479609,6.3484893 0 0 1 5.20963,-6.45524 5.3479609,6.3484893 0 0 1 5.48236,6.12871"
             transform="matrix(0.97948673,0.20150867,-0.19383885,0.98103338,0,0)" />
        </g>
        <path
           style="fill:#ffb380;fill-opacity:1;stroke-width:0.264999"
           id="path2820"
           sodipodi:type="arc"
           sodipodi:cx="170.7856"
           sodipodi:cy="156.61113"
           sodipodi:rx="15.532881"
           sodipodi:ry="10.607408"
           sodipodi:start="0"
           sodipodi:end="6.24889"
           sodipodi:open="true"
           sodipodi:arc-type="arc"
           d="m 186.31848,156.61113 a 15.532881,10.607408 0 0 1 -15.39971,10.60702 15.532881,10.607408 0 0 1 -15.66377,-10.42514 15.532881,10.607408 0 0 1 15.13111,-10.78578 15.532881,10.607408 0 0 1 15.92324,10.24019" />
        <path
           style="fill:#ffb380;fill-opacity:1;stroke-width:0.264999"
           id="path2876"
           sodipodi:type="arc"
           sodipodi:cx="161.70638"
           sodipodi:cy="151.64915"
           sodipodi:rx="6.1246076"
           sodipodi:ry="7.1363573"
           sodipodi:start="0"
           sodipodi:end="6.24889"
           sodipodi:open="true"
           sodipodi:arc-type="arc"
           d="m 167.83098,151.64915 a 6.1246076,7.1363573 0 0 1 -6.07209,7.1361 6.1246076,7.1363573 0 0 1 -6.17622,-7.01373 6.1246076,7.1363573 0 0 1 5.96619,-7.25636 6.1246076,7.1363573 0 0 1 6.27852,6.8893" />
        <path
           style="fill:#000000;fill-opacity:1;stroke-width:0.268997"
           id="path4037"
           sodipodi:type="arc"
           sodipodi:cx="169.26837"
           sodipodi:cy="150.2717"
           sodipodi:rx="6.9485121"
           sodipodi:ry="6.4814048"
           sodipodi:start="0"
           sodipodi:end="6.24889"
           sodipodi:open="true"
           sodipodi:arc-type="arc"
           d="m 176.21688,150.2717 a 6.9485121,6.4814048 0 0 1 -6.88893,6.48116 6.9485121,6.4814048 0 0 1 -7.00707,-6.37003 6.9485121,6.4814048 0 0 1 6.76879,-6.59039 6.9485121,6.4814048 0 0 1 7.12313,6.25702" />
        <path
           style="fill:#ffb380;fill-opacity:1;stroke-width:0.264999"
           id="path2878"
           sodipodi:type="arc"
           sodipodi:cx="169.62576"
           sodipodi:cy="149.81342"
           sodipodi:rx="6.1246076"
           sodipodi:ry="7.1363573"
           sodipodi:start="0"
           sodipodi:end="6.24889"
           sodipodi:open="true"
           sodipodi:arc-type="arc"
           d="m 175.75037,149.81342 a 6.1246076,7.1363573 0 0 1 -6.0721,7.13609 6.1246076,7.1363573 0 0 1 -6.17621,-7.01373 6.1246076,7.1363573 0 0 1 5.96619,-7.25636 6.1246076,7.1363573 0 0 1 6.27852,6.8893" />
        <path
           style="fill:#ffb380;fill-opacity:1;stroke-width:0.209375"
           id="path2882"
           sodipodi:type="arc"
           sodipodi:cx="230.08562"
           sodipodi:cy="39.278774"
           sodipodi:rx="3.8708475"
           sodipodi:ry="7.0487123"
           sodipodi:start="0"
           sodipodi:end="6.24889"
           sodipodi:open="true"
           sodipodi:arc-type="arc"
           d="m 233.95646,39.278774 a 3.8708475,7.0487123 0 0 1 -3.83766,7.048453 3.8708475,7.0487123 0 0 1 -3.90346,-6.92759 3.8708475,7.0487123 0 0 1 3.77072,-7.167243 3.8708475,7.0487123 0 0 1 3.96813,6.80469"
           transform="matrix(0.8592139,0.51161653,-0.33524464,0.94213111,0,0)" />
        <path
           style="fill:#ffb380;fill-opacity:1;stroke-width:0.263177"
           id="path4039"
           sodipodi:type="arc"
           sodipodi:cx="168.99333"
           sodipodi:cy="152.19885"
           sodipodi:rx="6.0824752"
           sodipodi:ry="7.087265"
           sodipodi:start="0"
           sodipodi:end="6.24889"
           sodipodi:open="true"
           sodipodi:arc-type="arc"
           d="m 175.07581,152.19885 a 6.0824752,7.087265 0 0 1 -6.03033,7.08701 6.0824752,7.087265 0 0 1 -6.13373,-6.96548 6.0824752,7.087265 0 0 1 5.92515,-7.20645 6.0824752,7.087265 0 0 1 6.23533,6.84191" />
        <path
           style="fill:#000000;fill-opacity:1;stroke-width:0.232303"
           id="path4027"
           sodipodi:type="arc"
           sodipodi:cx="221.34038"
           sodipodi:cy="84.667"
           sodipodi:rx="6.1750026"
           sodipodi:ry="5.4392476"
           sodipodi:start="0"
           sodipodi:end="6.24889"
           sodipodi:open="true"
           sodipodi:arc-type="arc"
           d="m 227.51538,84.667 a 6.1750026,5.4392476 0 0 1 -6.12206,5.439048 6.1750026,5.4392476 0 0 1 -6.22704,-5.345782 6.1750026,5.4392476 0 0 1 6.01529,-5.530715 6.1750026,5.4392476 0 0 1 6.33018,5.250945"
           transform="matrix(0.94674597,0.32198146,-0.36994161,0.92905501,0,0)" />
        <path
           style="fill:#ffb380;fill-opacity:1;stroke-width:0.233559"
           id="path2880"
           sodipodi:type="arc"
           sodipodi:cx="203.98505"
           sodipodi:cy="110.55006"
           sodipodi:rx="5.3479609"
           sodipodi:ry="6.3484893"
           sodipodi:start="0"
           sodipodi:end="6.24889"
           sodipodi:open="true"
           sodipodi:arc-type="arc"
           d="m 209.33301,110.55006 a 5.3479609,6.3484893 0 0 1 -5.30211,6.34825 5.3479609,6.3484893 0 0 1 -5.39303,-6.2394 5.3479609,6.3484893 0 0 1 5.20963,-6.45524 5.3479609,6.3484893 0 0 1 5.48236,6.12871"
           transform="matrix(0.97948673,0.20150867,-0.19383885,0.98103338,0,0)" />
        <rect
           style="fill:#ffb380;fill-opacity:1;stroke-width:0.218088"
           id="rect2936"
           width="5.7850571"
           height="6.804719"
           x="166.30217"
           y="146.55194"
           ry="0.56931424"
           transform="matrix(0.99977984,0.02098287,-0.07179033,0.99741975,0,0)" />
        <path
           style="fill:#ffb380;fill-opacity:1;stroke-width:0.231718"
           id="path4029"
           sodipodi:type="arc"
           sodipodi:cx="205.83771"
           sodipodi:cy="115.02711"
           sodipodi:rx="5.5053039"
           sodipodi:ry="6.0702019"
           sodipodi:start="0"
           sodipodi:end="6.24889"
           sodipodi:open="true"
           sodipodi:arc-type="arc"
           d="m 211.34301,115.02711 a 5.5053039,6.0702019 0 0 1 -5.4581,6.06998 5.5053039,6.0702019 0 0 1 -5.5517,-5.9659 5.5053039,6.0702019 0 0 1 5.36291,-6.17228 5.5053039,6.0702019 0 0 1 5.64365,5.86006"
           transform="matrix(0.9824434,0.18656089,-0.20931971,0.97784726,0,0)" />
        <path
           id="path6554"
           style="fill:#ffa467;fill-opacity:1;stroke-width:0.531889"
           d="m 155.38922,154.3852 a 15.521932,11.554465 0.22571469 0 0 -0.17919,1.88166 15.521932,11.554465 0.22571469 0 0 15.60831,11.41783 15.521932,11.554465 0.22571469 0 0 13.80618,-6.39565 16.325087,11.461231 0.22558696 0 1 -12.81711,4.4328 16.325087,11.461231 0.22558696 0 1 -16.41822,-11.3293 16.325087,11.461231 0.22558696 0 1 3e-5,-0.007 z" />
      </g>
      <g
         id="g8266"
         transform="matrix(-0.93711779,-0.34901324,-0.34901324,0.93711779,296.0704,73.308427)">
        <g
           id="g8242"
           style="fill:#000000"
           transform="matrix(1.0859481,0,0,1.1179733,-14.77694,-18.672677)">
          <path
             style="fill:#000000;fill-opacity:1;stroke-width:0.264999"
             id="path8232"
             sodipodi:type="arc"
             sodipodi:cx="170.7856"
             sodipodi:cy="156.61113"
             sodipodi:rx="15.532881"
             sodipodi:ry="10.607408"
             sodipodi:start="0"
             sodipodi:end="6.24889"
             sodipodi:open="true"
             sodipodi:arc-type="arc"
             d="m 186.31848,156.61113 a 15.532881,10.607408 0 0 1 -15.39971,10.60702 15.532881,10.607408 0 0 1 -15.66377,-10.42514 15.532881,10.607408 0 0 1 15.13111,-10.78578 15.532881,10.607408 0 0 1 15.92324,10.24019" />
          <path
             style="fill:#000000;fill-opacity:1;stroke-width:0.264999"
             id="path8234"
             sodipodi:type="arc"
             sodipodi:cx="161.70638"
             sodipodi:cy="151.64915"
             sodipodi:rx="6.1246076"
             sodipodi:ry="7.1363573"
             sodipodi:start="0"
             sodipodi:end="6.24889"
             sodipodi:open="true"
             sodipodi:arc-type="arc"
             d="m 167.83098,151.64915 a 6.1246076,7.1363573 0 0 1 -6.07209,7.1361 6.1246076,7.1363573 0 0 1 -6.17622,-7.01373 6.1246076,7.1363573 0 0 1 5.96619,-7.25636 6.1246076,7.1363573 0 0 1 6.27852,6.8893" />
          <path
             style="fill:#000000;fill-opacity:1;stroke-width:0.264999"
             id="path8236"
             sodipodi:type="arc"
             sodipodi:cx="169.62576"
             sodipodi:cy="149.81342"
             sodipodi:rx="6.1246076"
             sodipodi:ry="7.1363573"
             sodipodi:start="0"
             sodipodi:end="6.24889"
             sodipodi:open="true"
             sodipodi:arc-type="arc"
             d="m 175.75037,149.81342 a 6.1246076,7.1363573 0 0 1 -6.0721,7.13609 6.1246076,7.1363573 0 0 1 -6.17621,-7.01373 6.1246076,7.1363573 0 0 1 5.96619,-7.25636 6.1246076,7.1363573 0 0 1 6.27852,6.8893" />
          <path
             style="fill:#000000;fill-opacity:1;stroke-width:0.209375"
             id="path8238"
             sodipodi:type="arc"
             sodipodi:cx="230.08562"
             sodipodi:cy="39.278774"
             sodipodi:rx="3.8708475"
             sodipodi:ry="7.0487123"
             sodipodi:start="0"
             sodipodi:end="6.24889"
             sodipodi:open="true"
             sodipodi:arc-type="arc"
             d="m 233.95646,39.278774 a 3.8708475,7.0487123 0 0 1 -3.83766,7.048453 3.8708475,7.0487123 0 0 1 -3.90346,-6.92759 3.8708475,7.0487123 0 0 1 3.77072,-7.167243 3.8708475,7.0487123 0 0 1 3.96813,6.80469"
             transform="matrix(0.8592139,0.51161653,-0.33524464,0.94213111,0,0)" />
          <path
             style="fill:#000000;fill-opacity:1;stroke-width:0.233559"
             id="path8240"
             sodipodi:type="arc"
             sodipodi:cx="203.98505"
             sodipodi:cy="110.55006"
             sodipodi:rx="5.3479609"
             sodipodi:ry="6.3484893"
             sodipodi:start="0"
             sodipodi:end="6.24889"
             sodipodi:open="true"
             sodipodi:arc-type="arc"
             d="m 209.33301,110.55006 a 5.3479609,6.3484893 0 0 1 -5.30211,6.34825 5.3479609,6.3484893 0 0 1 -5.39303,-6.2394 5.3479609,6.3484893 0 0 1 5.20963,-6.45524 5.3479609,6.3484893 0 0 1 5.48236,6.12871"
             transform="matrix(0.97948673,0.20150867,-0.19383885,0.98103338,0,0)" />
        </g>
        <path
           style="fill:#ffb380;fill-opacity:1;stroke-width:0.264999"
           id="path8244"
           sodipodi:type="arc"
           sodipodi:cx="170.7856"
           sodipodi:cy="156.61113"
           sodipodi:rx="15.532881"
           sodipodi:ry="10.607408"
           sodipodi:start="0"
           sodipodi:end="6.24889"
           sodipodi:open="true"
           sodipodi:arc-type="arc"
           d="m 186.31848,156.61113 a 15.532881,10.607408 0 0 1 -15.39971,10.60702 15.532881,10.607408 0 0 1 -15.66377,-10.42514 15.532881,10.607408 0 0 1 15.13111,-10.78578 15.532881,10.607408 0 0 1 15.92324,10.24019" />
        <path
           style="fill:#ffb380;fill-opacity:1;stroke-width:0.264999"
           id="path8246"
           sodipodi:type="arc"
           sodipodi:cx="161.70638"
           sodipodi:cy="151.64915"
           sodipodi:rx="6.1246076"
           sodipodi:ry="7.1363573"
           sodipodi:start="0"
           sodipodi:end="6.24889"
           sodipodi:open="true"
           sodipodi:arc-type="arc"
           d="m 167.83098,151.64915 a 6.1246076,7.1363573 0 0 1 -6.07209,7.1361 6.1246076,7.1363573 0 0 1 -6.17622,-7.01373 6.1246076,7.1363573 0 0 1 5.96619,-7.25636 6.1246076,7.1363573 0 0 1 6.27852,6.8893" />
        <path
           style="fill:#000000;fill-opacity:1;stroke-width:0.268997"
           id="path8248"
           sodipodi:type="arc"
           sodipodi:cx="169.26837"
           sodipodi:cy="150.2717"
           sodipodi:rx="6.9485121"
           sodipodi:ry="6.4814048"
           sodipodi:start="0"
           sodipodi:end="6.24889"
           sodipodi:open="true"
           sodipodi:arc-type="arc"
           d="m 176.21688,150.2717 a 6.9485121,6.4814048 0 0 1 -6.88893,6.48116 6.9485121,6.4814048 0 0 1 -7.00707,-6.37003 6.9485121,6.4814048 0 0 1 6.76879,-6.59039 6.9485121,6.4814048 0 0 1 7.12313,6.25702" />
        <path
           style="fill:#ffb380;fill-opacity:1;stroke-width:0.264999"
           id="path8250"
           sodipodi:type="arc"
           sodipodi:cx="169.62576"
           sodipodi:cy="149.81342"
           sodipodi:rx="6.1246076"
           sodipodi:ry="7.1363573"
           sodipodi:start="0"
           sodipodi:end="6.24889"
           sodipodi:open="true"
           sodipodi:arc-type="arc"
           d="m 175.75037,149.81342 a 6.1246076,7.1363573 0 0 1 -6.0721,7.13609 6.1246076,7.1363573 0 0 1 -6.17621,-7.01373 6.1246076,7.1363573 0 0 1 5.96619,-7.25636 6.1246076,7.1363573 0 0 1 6.27852,6.8893" />
        <path
           style="fill:#ffb380;fill-opacity:1;stroke-width:0.209375"
           id="path8252"
           sodipodi:type="arc"
           sodipodi:cx="230.08562"
           sodipodi:cy="39.278774"
           sodipodi:rx="3.8708475"
           sodipodi:ry="7.0487123"
           sodipodi:start="0"
           sodipodi:end="6.24889"
           sodipodi:open="true"
           sodipodi:arc-type="arc"
           d="m 233.95646,39.278774 a 3.8708475,7.0487123 0 0 1 -3.83766,7.048453 3.8708475,7.0487123 0 0 1 -3.90346,-6.92759 3.8708475,7.0487123 0 0 1 3.77072,-7.167243 3.8708475,7.0487123 0 0 1 3.96813,6.80469"
           transform="matrix(0.8592139,0.51161653,-0.33524464,0.94213111,0,0)" />
        <path
           style="fill:#ffb380;fill-opacity:1;stroke-width:0.263177"
           id="path8254"
           sodipodi:type="arc"
           sodipodi:cx="168.99333"
           sodipodi:cy="152.19885"
           sodipodi:rx="6.0824752"
           sodipodi:ry="7.087265"
           sodipodi:start="0"
           sodipodi:end="6.24889"
           sodipodi:open="true"
           sodipodi:arc-type="arc"
           d="m 175.07581,152.19885 a 6.0824752,7.087265 0 0 1 -6.03033,7.08701 6.0824752,7.087265 0 0 1 -6.13373,-6.96548 6.0824752,7.087265 0 0 1 5.92515,-7.20645 6.0824752,7.087265 0 0 1 6.23533,6.84191" />
        <path
           style="fill:#000000;fill-opacity:1;stroke-width:0.232303"
           id="path8256"
           sodipodi:type="arc"
           sodipodi:cx="221.34038"
           sodipodi:cy="84.667"
           sodipodi:rx="6.1750026"
           sodipodi:ry="5.4392476"
           sodipodi:start="0"
           sodipodi:end="6.24889"
           sodipodi:open="true"
           sodipodi:arc-type="arc"
           d="m 227.51538,84.667 a 6.1750026,5.4392476 0 0 1 -6.12206,5.439048 6.1750026,5.4392476 0 0 1 -6.22704,-5.345782 6.1750026,5.4392476 0 0 1 6.01529,-5.530715 6.1750026,5.4392476 0 0 1 6.33018,5.250945"
           transform="matrix(0.94674597,0.32198146,-0.36994161,0.92905501,0,0)" />
        <path
           style="fill:#ffb380;fill-opacity:1;stroke-width:0.233559"
           id="path8258"
           sodipodi:type="arc"
           sodipodi:cx="203.98505"
           sodipodi:cy="110.55006"
           sodipodi:rx="5.3479609"
           sodipodi:ry="6.3484893"
           sodipodi:start="0"
           sodipodi:end="6.24889"
           sodipodi:open="true"
           sodipodi:arc-type="arc"
           d="m 209.33301,110.55006 a 5.3479609,6.3484893 0 0 1 -5.30211,6.34825 5.3479609,6.3484893 0 0 1 -5.39303,-6.2394 5.3479609,6.3484893 0 0 1 5.20963,-6.45524 5.3479609,6.3484893 0 0 1 5.48236,6.12871"
           transform="matrix(0.97948673,0.20150867,-0.19383885,0.98103338,0,0)" />
        <rect
           style="fill:#ffb380;fill-opacity:1;stroke-width:0.218088"
           id="rect8260"
           width="5.7850571"
           height="6.804719"
           x="166.30217"
           y="146.55194"
           ry="0.56931424"
           transform="matrix(0.99977984,0.02098287,-0.07179033,0.99741975,0,0)" />
        <path
           style="fill:#ffb380;fill-opacity:1;stroke-width:0.231718"
           id="path8262"
           sodipodi:type="arc"
           sodipodi:cx="205.83771"
           sodipodi:cy="115.02711"
           sodipodi:rx="5.5053039"
           sodipodi:ry="6.0702019"
           sodipodi:start="0"
           sodipodi:end="6.24889"
           sodipodi:open="true"
           sodipodi:arc-type="arc"
           d="m 211.34301,115.02711 a 5.5053039,6.0702019 0 0 1 -5.4581,6.06998 5.5053039,6.0702019 0 0 1 -5.5517,-5.9659 5.5053039,6.0702019 0 0 1 5.36291,-6.17228 5.5053039,6.0702019 0 0 1 5.64365,5.86006"
           transform="matrix(0.9824434,0.18656089,-0.20931971,0.97784726,0,0)" />
        <path
           id="path8264"
           style="fill:#ffa467;fill-opacity:1;stroke-width:0.531889"
           d="m 155.38922,154.3852 a 15.521932,11.554465 0.22571469 0 0 -0.17919,1.88166 15.521932,11.554465 0.22571469 0 0 15.60831,11.41783 15.521932,11.554465 0.22571469 0 0 13.80618,-6.39565 16.325087,11.461231 0.22558696 0 1 -12.81711,4.4328 16.325087,11.461231 0.22558696 0 1 -16.41822,-11.3293 16.325087,11.461231 0.22558696 0 1 3e-5,-0.007 z" />
      </g>
    </g>
  </g>
</svg>
