<?xml version="1.0" encoding="UTF-8" standalone="no"?>
<!-- Created with Inkscape (http://www.inkscape.org/) -->

<svg
   width="48.685524mm"
   height="90.144073mm"
   viewBox="0 0 48.685524 90.144075"
   version="1.1"
   id="svg51532"
   inkscape:version="1.2.2 (b0a8486541, 2022-12-01)"
   sodipodi:docname="gnome4.svg"
   xmlns:inkscape="http://www.inkscape.org/namespaces/inkscape"
   xmlns:sodipodi="http://sodipodi.sourceforge.net/DTD/sodipodi-0.dtd"
   xmlns="http://www.w3.org/2000/svg"
   xmlns:svg="http://www.w3.org/2000/svg">
  <sodipodi:namedview
     id="namedview51534"
     pagecolor="#cacaca"
     bordercolor="#000000"
     borderopacity="0.25"
     inkscape:showpageshadow="2"
     inkscape:pageopacity="0.63137255"
     inkscape:pagecheckerboard="0"
     inkscape:deskcolor="#f0f0f0"
     inkscape:document-units="mm"
     showgrid="false"
     inkscape:zoom="0.70710678"
     inkscape:cx="120.91526"
     inkscape:cy="118.08683"
     inkscape:window-width="1916"
     inkscape:window-height="1036"
     inkscape:window-x="1280"
     inkscape:window-y="0"
     inkscape:window-maximized="1"
     inkscape:current-layer="layer1" />
  <defs
     id="defs51529" />
  <g
     inkscape:label="Layer 1"
     inkscape:groupmode="layer"
     id="layer1"
     transform="translate(-123.76283,-108.47998)">
    <g
       id="g67599"
       transform="matrix(1.0813403,0,0,1.0813403,88.517482,-16.814716)" />
    <g
       id="g39148"
       transform="matrix(-1.2264396,0,0,1.3321625,330.10564,-63.412169)">
      <g
         id="g39146"
         transform="matrix(0.96969204,0,0,1.3543223,5.2968569,-68.480705)">
        <path
           style="fill:#000000;fill-opacity:1;stroke-width:0.405839"
           d="m 137.88924,183.05496 c 0,0 0.54175,4.65785 -1.735,6.55205 -2.27674,1.89422 -5.45261,1.66358 -8.48178,3.6106 -3.02918,1.94704 6.79029,3.46517 12.01882,2.00108 5.22855,-1.46406 5.95201,0.66561 5.10721,-6.0431 -0.11806,-0.93759 -0.51738,-2.66399 -0.45888,-3.37457 0.35182,-4.2717 -6.45035,-2.74606 -6.45035,-2.74606 z"
           id="path39136"
           sodipodi:nodetypes="csscsscc" />
        <path
           style="fill:#ffffff;fill-opacity:1;stroke-width:0.405839"
           d="m 137.88924,183.05496 c 0,0 0.85721,5.54779 -1.41954,7.44199 -2.27674,1.89422 -5.12816,0.75642 -8.15733,2.70344 -3.02918,1.94704 6.15029,3.1203 11.37882,1.65621 5.22855,-1.46406 5.51522,1.01244 4.67042,-5.69627 -0.11806,-0.93759 -0.0805,-2.64873 -0.022,-3.35931 0.35182,-4.2717 -6.45035,-2.74606 -6.45035,-2.74606 z"
           id="path39138"
           sodipodi:nodetypes="csscssc" />
        <g
           id="g39144">
          <path
             style="fill:#000000;fill-opacity:1;stroke-width:0.291659"
             d="m 131.76253,191.96041 c 0,0 2.66228,0.9096 3.10497,1.8307 0.44269,0.92112 5.37826,-1.16476 5.64868,-2.99476 0.27041,-1.83001 0.29488,-1.80178 0.29488,-1.80178 l -3.02231,-1.05148 c 0,0 -0.30225,1.92821 -6.02622,4.01732 z"
             id="path39140"
             sodipodi:nodetypes="cssccc" />
          <path
             style="fill:#ffc49c;fill-opacity:1;stroke-width:0.264999"
             d="m 132.26254,191.87076 c 0,0 2.41893,0.82645 2.82116,1.66337 0.40222,0.83692 4.88664,-1.0583 5.13234,-2.72103 0.24569,-1.66273 0.26793,-1.63708 0.26793,-1.63708 l -2.74605,-0.95536 c 0,0 -0.27462,1.75195 -5.47538,3.6501 z"
             id="path39142"
             sodipodi:nodetypes="cssccc" />
        </g>
      </g>
    </g>
    <g
       id="g32386"
       transform="matrix(1.2264396,0,0,1.3321625,-33.894465,-63.412169)">
      <g
         id="g33853"
         transform="matrix(0.96969204,0,0,1.3543223,5.2968569,-68.480705)">
        <path
           style="fill:#000000;fill-opacity:1;stroke-width:0.405839"
           d="m 137.88924,183.05496 c 0,0 0.54175,4.65785 -1.735,6.55205 -2.27674,1.89422 -5.45261,1.66358 -8.48178,3.6106 -3.02918,1.94704 6.79029,3.46517 12.01882,2.00108 5.22855,-1.46406 5.95201,0.66561 5.10721,-6.0431 -0.11806,-0.93759 -0.51738,-2.66399 -0.45888,-3.37457 0.35182,-4.2717 -6.45035,-2.74606 -6.45035,-2.74606 z"
           id="path33840"
           sodipodi:nodetypes="csscsscc" />
        <path
           style="fill:#ffffff;fill-opacity:1;stroke-width:0.405839"
           d="m 137.88924,183.05496 c 0,0 0.85721,5.54779 -1.41954,7.44199 -2.27674,1.89422 -5.12816,0.75642 -8.15733,2.70344 -3.02918,1.94704 6.15029,3.1203 11.37882,1.65621 5.22855,-1.46406 5.51522,1.01244 4.67042,-5.69627 -0.11806,-0.93759 -0.0805,-2.64873 -0.022,-3.35931 0.35182,-4.2717 -6.45035,-2.74606 -6.45035,-2.74606 z"
           id="path27402"
           sodipodi:nodetypes="csscssc" />
        <g
           id="g33846">
          <path
             style="fill:#000000;fill-opacity:1;stroke-width:0.291659"
             d="m 131.76253,191.96041 c 0,0 2.66228,0.9096 3.10497,1.8307 0.44269,0.92112 5.37826,-1.16476 5.64868,-2.99476 0.27041,-1.83001 0.29488,-1.80178 0.29488,-1.80178 l -3.02231,-1.05148 c 0,0 -0.30225,1.92821 -6.02622,4.01732 z"
             id="path33842"
             sodipodi:nodetypes="cssccc" />
          <path
             style="fill:#ffc49c;fill-opacity:1;stroke-width:0.264999"
             d="m 132.26254,191.87076 c 0,0 2.41893,0.82645 2.82116,1.66337 0.40222,0.83692 4.88664,-1.0583 5.13234,-2.72103 0.24569,-1.66273 0.26793,-1.63708 0.26793,-1.63708 l -2.74605,-0.95536 c 0,0 -0.27462,1.75195 -5.47538,3.6501 z"
             id="path30930"
             sodipodi:nodetypes="cssccc" />
        </g>
      </g>
    </g>
    <path
       style="fill:#000000;fill-opacity:0.40869;stroke-width:0.361151"
       id="path68476"
       sodipodi:type="arc"
       sodipodi:cx="148.12584"
       sodipodi:cy="187.01659"
       sodipodi:rx="19.808451"
       sodipodi:ry="4.610621"
       sodipodi:start="3.185723"
       sodipodi:end="3.1844767"
       sodipodi:open="true"
       sodipodi:arc-type="arc"
       d="m 128.33667,186.81318 a 19.808451,4.610621 0 0 1 20.65687,-4.40279 19.808451,4.610621 0 0 1 18.92201,4.80673 19.808451,4.610621 0 0 1 -20.64508,4.40579 19.808451,4.610621 0 0 1 -18.93487,-4.80399" />
    <path
       style="fill:#000000;fill-opacity:1;stroke-width:0.462025"
       id="path107877"
       sodipodi:type="arc"
       sodipodi:cx="147.69907"
       sodipodi:cy="135.16547"
       sodipodi:rx="16.327061"
       sodipodi:ry="23.350498"
       sodipodi:start="3.185723"
       sodipodi:end="3.1844767"
       sodipodi:open="true"
       sodipodi:arc-type="arc"
       d="m 131.3879,134.13534 a 16.327061,23.350498 0 0 1 17.02637,-22.29796 16.327061,23.350498 0 0 1 15.59641,24.34368 16.327061,23.350498 0 0 1 -17.01665,22.31312 16.327061,23.350498 0 0 1 -15.60701,-24.32977" />
    <path
       style="fill:#ebd16b;fill-opacity:1;stroke-width:0.432388"
       id="path106589"
       sodipodi:type="arc"
       sodipodi:cx="147.69907"
       sodipodi:cy="135.16547"
       sodipodi:rx="15.990238"
       sodipodi:ry="20.881697"
       sodipodi:start="3.185723"
       sodipodi:end="3.1844767"
       sodipodi:open="true"
       sodipodi:arc-type="arc"
       d="m 131.7244,134.24425 a 15.990238,20.881697 0 0 1 16.67511,-19.94044 15.990238,20.881697 0 0 1 15.27466,21.76987 15.990238,20.881697 0 0 1 -16.6656,19.954 15.990238,20.881697 0 0 1 -15.28504,-21.75743" />
    <g
       id="g51601"
       transform="matrix(1.3321625,0,0,1.3321625,-49.195116,-63.412169)">
      <g
         id="g45243"
         transform="matrix(0.83699922,0,0,0.95519525,24.134782,7.890743)">
        <g
           id="g17104">
          <g
             id="g22513">
            <g
               id="g14025">
              <path
                 style="fill:#000000;fill-opacity:1;stroke-width:0.272916"
                 d="m 147.46206,190.33017 c 0,0 23.75878,-0.22692 20.39705,-4.5198 -3.29875,-4.21246 -9.69891,-11.27206 -9.36222,-14.02746 0.18902,-1.54689 3.28895,-8.96953 4.51905,-13.57867 0.57256,-2.14536 0.92242,-4.74303 -2.21464,-4.88759 -1.09659,-0.0505 -4.26808,0.0368 -5.08093,0.15899 -2.23418,0.33583 -7.46411,2.10442 -7.46411,2.10442 z"
                 id="path19296"
                 sodipodi:nodetypes="cssssscc" />
              <path
                 style="fill:#f9f9f9;fill-opacity:1;stroke-width:0.273932"
                 d="m 147.46576,189.75946 c 0,0 22.53533,0.12986 19.30798,-4.2773 -4.60024,-6.28193 -9.23181,-10.9661 -8.89261,-13.7215 0.3392,-2.75541 9.18508,-18.81308 1.99413,-18.24539 -7.19093,0.56768 -11.75033,2.31715 -11.75033,2.31715 z"
                 id="path9835"
                 sodipodi:nodetypes="cssscc" />
              <path
                 style="fill:#ffc49c;fill-opacity:1;stroke-width:0.264999"
                 d="m 159.82405,166.4906 -1.43993,-12.83684 c 0,0 6.04988,-1.50781 4.49567,3.83703 -2.35781,8.10838 -3.05574,8.99981 -3.05574,8.99981 z"
                 id="path11018"
                 sodipodi:nodetypes="ccsc" />
              <path
                 style="fill:#ffc49c;fill-opacity:1;stroke-width:0.264999"
                 d="m 148.05527,158.27088 c 0,0 4.64574,-1.07232 5.35134,-3.85121 0.7056,-2.77889 4.3e-4,-0.006 4.3e-4,-0.006 0,0 -5.14926,1.03183 -5.26054,1.33656 -0.11128,0.30473 -0.0917,2.52092 -0.0917,2.52092 z"
                 id="path11116"
                 sodipodi:nodetypes="cscscc" />
              <path
                 style="fill:#000000;fill-opacity:1;stroke-width:0.264999"
                 d="m 160.20426,166.44254 -1.50716,-12.88769 -0.31667,0.0928 1.44376,12.8659 z"
                 id="path21476"
                 sodipodi:nodetypes="ccccc" />
              <path
                 style="fill:#f9f9f9;fill-opacity:1;stroke-width:0.267822"
                 id="path34541"
                 sodipodi:type="arc"
                 sodipodi:cx="149.24954"
                 sodipodi:cy="173.56627"
                 sodipodi:rx="1.7782103"
                 sodipodi:ry="14.843542"
                 sodipodi:start="3.185723"
                 sodipodi:end="3.1844767"
                 sodipodi:open="true"
                 sodipodi:arc-type="arc"
                 d="m 147.47306,172.91143 a 1.7782103,14.843542 0 0 1 1.85438,-14.17446 1.7782103,14.843542 0 0 1 1.69863,15.4749 1.7782103,14.843542 0 0 1 -1.85331,14.1841 1.7782103,14.843542 0 0 1 -1.69979,-15.46606" />
            </g>
            <path
               style="fill:#f9f9f9;fill-opacity:1;stroke-width:0.264999"
               d="m 153.41183,154.4143 c 0,0 0.33202,-0.53685 2.24665,-0.74067 2.92765,-0.31166 2.71083,-0.0415 2.71644,-0.0136 0.0107,0.053 -4.7346,0.81418 -4.7346,0.81418 z"
               id="path14331"
               sodipodi:nodetypes="csccc" />
            <path
               style="fill:#000000;fill-opacity:1;stroke-width:0.264999"
               d="m 153.47672,154.24479 c 0,0 -1.55467,2.63693 -3.58453,3.3601 -1.9683,0.70124 -1.84101,0.59653 -1.84101,0.59653 l 0.002,0.24983 c 0,0 3.27976,-0.83328 4.57318,-2.63304 1.21827,-1.69517 1.44201,-1.81328 1.30568,-1.8898 -0.12273,-0.0689 -0.36239,0.13685 -0.36239,0.13685 z"
               id="path21478"
               sodipodi:nodetypes="csccsscc" />
          </g>
        </g>
        <g
           id="g44202"
           transform="matrix(-1,0,0,1,296.13087,-0.00498546)">
          <g
             id="g44200">
            <g
               id="g44194">
              <path
                 style="fill:#000000;fill-opacity:1;stroke-width:0.272916"
                 d="m 147.46206,190.33017 c 0,0 23.75878,-0.22692 20.39705,-4.5198 -3.29875,-4.21246 -9.69891,-11.27206 -9.36222,-14.02746 0.18902,-1.54689 3.28895,-8.96953 4.51905,-13.57867 0.57256,-2.14536 0.92242,-4.74303 -2.21464,-4.88759 -1.09659,-0.0505 -4.26808,0.0368 -5.08093,0.15899 -2.23418,0.33583 -7.46411,2.10442 -7.46411,2.10442 z"
                 id="path44182"
                 sodipodi:nodetypes="cssssscc" />
              <path
                 style="fill:#f9f9f9;fill-opacity:1;stroke-width:0.273932"
                 d="m 147.46576,189.75946 c 0,0 22.53533,0.12986 19.30798,-4.2773 -4.60024,-6.28193 -9.23181,-10.9661 -8.89261,-13.7215 0.3392,-2.75541 9.18508,-18.81308 1.99413,-18.24539 -7.19093,0.56768 -11.75033,2.31715 -11.75033,2.31715 z"
                 id="path44184"
                 sodipodi:nodetypes="cssscc" />
              <path
                 style="fill:#ffc49c;fill-opacity:1;stroke-width:0.264999"
                 d="m 159.82405,166.4906 -1.43993,-12.83684 c 0,0 6.04988,-1.50781 4.49567,3.83703 -2.35781,8.10838 -3.05574,8.99981 -3.05574,8.99981 z"
                 id="path44186"
                 sodipodi:nodetypes="ccsc" />
              <path
                 style="fill:#ffc49c;fill-opacity:1;stroke-width:0.264999"
                 d="m 148.05527,158.27088 c 0,0 4.64574,-1.07232 5.35134,-3.85121 0.7056,-2.77889 4.3e-4,-0.006 4.3e-4,-0.006 0,0 -5.14926,1.03183 -5.26054,1.33656 -0.11128,0.30473 -0.0917,2.52092 -0.0917,2.52092 z"
                 id="path44188"
                 sodipodi:nodetypes="cscscc" />
              <path
                 style="fill:#000000;fill-opacity:1;stroke-width:0.264999"
                 d="m 160.20426,166.44254 -1.50716,-12.88769 -0.31667,0.0928 1.44376,12.8659 z"
                 id="path44190"
                 sodipodi:nodetypes="ccccc" />
              <path
                 style="fill:#f9f9f9;fill-opacity:1;stroke-width:0.267822"
                 id="path44192"
                 sodipodi:type="arc"
                 sodipodi:cx="149.24954"
                 sodipodi:cy="173.56627"
                 sodipodi:rx="1.7782103"
                 sodipodi:ry="14.843542"
                 sodipodi:start="3.185723"
                 sodipodi:end="3.1844767"
                 sodipodi:open="true"
                 sodipodi:arc-type="arc"
                 d="m 147.47306,172.91143 a 1.7782103,14.843542 0 0 1 1.85438,-14.17446 1.7782103,14.843542 0 0 1 1.69863,15.4749 1.7782103,14.843542 0 0 1 -1.85331,14.1841 1.7782103,14.843542 0 0 1 -1.69979,-15.46606" />
            </g>
            <path
               style="fill:#f9f9f9;fill-opacity:1;stroke-width:0.264999"
               d="m 153.41183,154.4143 c 0,0 0.33202,-0.53685 2.24665,-0.74067 2.92765,-0.31166 2.71083,-0.0415 2.71644,-0.0136 0.0107,0.053 -4.7346,0.81418 -4.7346,0.81418 z"
               id="path44196"
               sodipodi:nodetypes="csccc" />
            <path
               style="fill:#000000;fill-opacity:1;stroke-width:0.264999"
               d="m 153.47672,154.24479 c 0,0 -1.55467,2.63693 -3.58453,3.3601 -1.9683,0.70124 -1.84101,0.59653 -1.84101,0.59653 l 0.002,0.24983 c 0,0 3.27976,-0.83328 4.57318,-2.63304 1.21827,-1.69517 1.44201,-1.81328 1.30568,-1.8898 -0.12273,-0.0689 -0.36239,0.13685 -0.36239,0.13685 z"
               id="path44198"
               sodipodi:nodetypes="csccsscc" />
          </g>
        </g>
        <path
           style="fill:#ffc49c;fill-opacity:1;stroke-width:0.254839"
           id="path26364"
           sodipodi:type="arc"
           sodipodi:cx="148.00356"
           sodipodi:cy="155.91898"
           sodipodi:rx="2.8563449"
           sodipodi:ry="1.0675719"
           sodipodi:start="3.185723"
           sodipodi:end="3.1844767"
           sodipodi:open="true"
           sodipodi:arc-type="arc"
           d="m 145.14999,155.87188 a 2.8563449,1.0675719 0 0 1 2.97869,-1.01945 2.8563449,1.0675719 0 0 1 2.72852,1.11298 2.8563449,1.0675719 0 0 1 -2.97699,1.02014 2.8563449,1.0675719 0 0 1 -2.73037,-1.11234" />
        <path
           style="fill:#f9f9f9;fill-opacity:1;stroke-width:0.254815"
           id="path35269"
           sodipodi:type="arc"
           sodipodi:cx="147.77002"
           sodipodi:cy="174.0853"
           sodipodi:rx="8.9413996"
           sodipodi:ry="15.675054"
           sodipodi:start="3.185723"
           sodipodi:end="3.1844767"
           sodipodi:open="true"
           sodipodi:arc-type="arc"
           d="m 138.83733,173.39378 a 8.9413996,15.675054 0 0 1 9.32437,-14.96849 8.9413996,15.675054 0 0 1 8.54126,16.34177 8.9413996,15.675054 0 0 1 -9.31905,14.97867 8.9413996,15.675054 0 0 1 -8.54707,-16.33244" />
        <path
           style="fill:#000000;fill-opacity:1;stroke-width:0.264999"
           d="m 137.64852,171.10553 c 0,0 4.71919,0.38859 9.57834,0.37222 5.02963,-0.0169 10.21595,-0.4449 10.87902,-0.81227 1.30366,-0.7223 0.40944,0.45458 0.40944,0.45458 l -0.15814,1.06886 c 0,0 -5.41886,0.45752 -11.19514,0.54294 -6.4037,0.0947 -9.27204,-0.39465 -9.27204,-0.39465 z"
           id="path35590"
           sodipodi:nodetypes="cssccscc" />
        <path
           style="fill:#ffc49c;fill-opacity:1;stroke-width:0.196793"
           id="path44860"
           sodipodi:type="arc"
           sodipodi:cx="148.05975"
           sodipodi:cy="157.25037"
           sodipodi:rx="0.80530655"
           sodipodi:ry="0.9342683"
           sodipodi:start="3.185723"
           sodipodi:end="3.1844767"
           sodipodi:open="true"
           sodipodi:arc-type="arc"
           d="m 147.25523,157.20915 a 0.80530655,0.9342683 0 0 1 0.8398,-0.89216 0.80530655,0.9342683 0 0 1 0.76927,0.97401 0.80530655,0.9342683 0 0 1 -0.83932,0.89276 0.80530655,0.9342683 0 0 1 -0.76979,-0.97345" />
      </g>
      <path
         id="path50924"
         style="fill:#e0e0e0;fill-opacity:1;stroke-width:0.255818"
         d="m 148.07063,166.60672 v 0.001 a 5.809273,3.868679 0 0 1 -5.31519,1.97565 5.809273,3.868679 0 0 1 -4.53161,-1.6754 9.9595714,2.4514749 0 0 0 -0.001,0.002 l 0.40537,1.16956 a 9.9595714,2.4514749 0 0 0 9.00115,1.66144 9.9595714,2.4514749 0 0 0 9.89025,-1.68277 l 0.38947,-1.12961 a 9.9595714,2.4514749 0 0 0 -0.004,-0.007 5.809273,3.868679 0 0 1 -5.02038,1.66066 5.809273,3.868679 0 0 1 -4.81363,-1.97603 z" />
    </g>
    <g
       id="g6435"
       transform="matrix(0.57166649,0,0,0.79769059,63.662199,20.768355)"
       style="display:inline">
      <g
         id="g58650"
         transform="matrix(0.62259919,0,0,0.42799865,55.244008,95.750009)"
         style="fill:#000000;fill-opacity:0.289231">
        <path
           style="fill:#000000;fill-opacity:0.289231;stroke-width:0.377673"
           id="path58646"
           sodipodi:type="arc"
           sodipodi:cx="148.07362"
           sodipodi:cy="126.18987"
           sodipodi:rx="23.638287"
           sodipodi:ry="21.551781"
           sodipodi:start="0"
           sodipodi:end="6.24889"
           sodipodi:open="true"
           sodipodi:arc-type="arc"
           d="m 171.71191,126.18987 a 23.638287,21.551781 0 0 1 -23.43562,21.55099 23.638287,21.551781 0 0 1 -23.83748,-21.18144 23.638287,21.551781 0 0 1 23.02687,-21.9142 23.638287,21.551781 0 0 1 24.23233,20.80567" />
        <path
           id="path58648"
           style="fill:#000000;fill-opacity:0.289231;stroke-width:0.331957"
           d="m 147.46545,104.64518 a 23.638287,21.551781 0 0 0 -22.73505,18.23041 38.105484,10.32863 0 0 0 23.66987,2.1699 38.105484,10.32863 0 0 0 23.01565,-2.16473 23.638287,21.551781 0 0 0 -23.95047,-18.23558 z" />
      </g>
      <g
         id="g6419"
         transform="matrix(1.0937915,0,0,1.0404947,-14.540954,1.7664274)"
         style="fill:#000000">
        <path
           style="fill:#000000;fill-opacity:1;stroke-width:0.377673"
           id="path6415"
           sodipodi:type="arc"
           sodipodi:cx="148.07362"
           sodipodi:cy="126.18987"
           sodipodi:rx="23.638287"
           sodipodi:ry="21.551781"
           sodipodi:start="0"
           sodipodi:end="6.24889"
           sodipodi:open="true"
           sodipodi:arc-type="arc"
           d="m 171.71191,126.18987 a 23.638287,21.551781 0 0 1 -23.43562,21.55099 23.638287,21.551781 0 0 1 -23.83748,-21.18144 23.638287,21.551781 0 0 1 23.02687,-21.9142 23.638287,21.551781 0 0 1 24.23233,20.80567" />
        <path
           id="path6417"
           style="fill:#000000;fill-opacity:1;stroke-width:0.331957"
           d="m 147.46545,104.64518 a 23.638287,21.551781 0 0 0 -22.73505,18.23041 38.105484,10.32863 0 0 0 23.66987,2.1699 38.105484,10.32863 0 0 0 23.01565,-2.16473 23.638287,21.551781 0 0 0 -23.95047,-18.23558 z" />
      </g>
      <g
         id="g6433"
         transform="matrix(1.0601744,0,0,1.0057024,-9.5631508,6.2797552)"
         style="fill:#ffa770;fill-opacity:1">
        <path
           style="fill:#fab484;fill-opacity:1;stroke-width:0.377673"
           id="path6421"
           sodipodi:type="arc"
           sodipodi:cx="148.07362"
           sodipodi:cy="126.18987"
           sodipodi:rx="23.638287"
           sodipodi:ry="21.551781"
           sodipodi:start="0"
           sodipodi:end="6.24889"
           sodipodi:open="true"
           sodipodi:arc-type="arc"
           d="m 171.71191,126.18987 a 23.638287,21.551781 0 0 1 -23.43562,21.55099 23.638287,21.551781 0 0 1 -23.83748,-21.18144 23.638287,21.551781 0 0 1 23.02687,-21.9142 23.638287,21.551781 0 0 1 24.23233,20.80567" />
      </g>
      <g
         id="g74767"
         transform="matrix(1.0601744,0,0,0.98129239,-9.5631508,8.833972)" />
      <g
         id="g74771"
         transform="matrix(1.0061158,0,0,0.94720214,-1.5584985,12.40111)">
        <path
           style="fill:#ffc49c;fill-opacity:1;stroke-width:0.377673"
           id="path74769"
           sodipodi:type="arc"
           sodipodi:cx="148.07362"
           sodipodi:cy="126.18987"
           sodipodi:rx="23.638287"
           sodipodi:ry="21.551781"
           sodipodi:start="0"
           sodipodi:end="6.24889"
           sodipodi:open="true"
           sodipodi:arc-type="arc"
           d="m 171.71191,126.18987 a 23.638287,21.551781 0 0 1 -23.43562,21.55099 23.638287,21.551781 0 0 1 -23.83748,-21.18144 23.638287,21.551781 0 0 1 23.02687,-21.9142 23.638287,21.551781 0 0 1 24.23233,20.80567" />
      </g>
      <path
         style="fill:#ff3434;fill-opacity:1;stroke-width:0.618116"
         id="path64468"
         sodipodi:type="arc"
         sodipodi:cx="155.70091"
         sodipodi:cy="142.76012"
         sodipodi:rx="7.8898978"
         sodipodi:ry="0.78399307"
         sodipodi:start="3.185723"
         sodipodi:end="3.1844767"
         sodipodi:open="true"
         sodipodi:arc-type="arc"
         d="m 147.8187,142.72553 a 7.8898978,0.78399307 0 0 1 8.22783,-0.74865 7.8898978,0.78399307 0 0 1 7.53681,0.81734 7.8898978,0.78399307 0 0 1 -8.22313,0.74916 7.8898978,0.78399307 0 0 1 -7.54194,-0.81687"
         transform="matrix(0.99941387,0.03423331,-0.06421052,0.99793638,0,0)" />
      <path
         style="fill:#ff5555;fill-opacity:1;stroke-width:0.542469"
         id="path62809"
         sodipodi:type="arc"
         sodipodi:cx="158.5282"
         sodipodi:cy="143.97302"
         sodipodi:rx="7.8955851"
         sodipodi:ry="0.60340488"
         sodipodi:start="3.185723"
         sodipodi:end="3.1844767"
         sodipodi:open="true"
         sodipodi:arc-type="arc"
         d="m 150.6403,143.9464 a 7.8955851,0.60340488 0 0 1 8.23376,-0.5762 7.8955851,0.60340488 0 0 1 7.54225,0.62907 7.8955851,0.60340488 0 0 1 -8.22906,0.57659 7.8955851,0.60340488 0 0 1 -7.54738,-0.62871"
         transform="matrix(0.99965433,0.02629117,-0.08350781,0.99650712,0,0)" />
      <g
         id="g60840"
         transform="matrix(1.1305484,0,0,1.1305484,-19.148372,-19.175675)">
        <path
           style="fill:#000000;fill-opacity:0.999972;stroke-width:0.421644"
           d="m 139.80048,147.44397 c 0,0 9.53664,-0.53331 11.4607,-0.13948 1.92407,0.39383 2.15729,0.56124 2.15729,0.56124 0,0 2.98583,-2.8236 -6.58876,-1.69335 -9.57458,1.13024 -7.02923,1.27159 -7.02923,1.27159 z"
           id="path60320" />
        <path
           style="fill:#ffffff;fill-opacity:0.999972;stroke-width:0.319954"
           d="m 141.23362,147.25285 c 0,0 8.13386,-0.44419 9.78175,-0.19568 1.64789,0.24853 1.84926,0.35935 1.84926,0.35935 0,0 2.51041,-1.93062 -5.64771,-1.08354 -8.15812,0.84709 -5.9833,0.91984 -5.9833,0.91984 z"
           id="path60538" />
      </g>
      <path
         style="fill:#ffffff;fill-opacity:1;stroke-width:1.65952"
         id="path64165"
         sodipodi:type="arc"
         sodipodi:cx="150.02924"
         sodipodi:cy="141.63039"
         sodipodi:rx="1.4039258"
         sodipodi:ry="0.27109078"
         sodipodi:start="3.185723"
         sodipodi:end="3.1844767"
         sodipodi:open="true"
         sodipodi:arc-type="arc"
         d="m 148.62668,141.61843 a 1.4039258,0.27109078 0 0 1 1.46405,-0.25887 1.4039258,0.27109078 0 0 1 1.3411,0.28262 1.4039258,0.27109078 0 0 1 -1.46322,0.25904 1.4039258,0.27109078 0 0 1 -1.34201,-0.28246"
         transform="matrix(0.99912847,0.04174088,0.00965673,0.99995337,0,0)" />
      <path
         id="path67468"
         style="fill:#fab484;fill-opacity:1;stroke-width:0.690759"
         d="m 141.09971,149.54098 a 1.5473643,5.5106204 88.166508 0 0 -0.0455,0.16488 l -8.7e-4,0.002 a 1.5473643,5.5106204 88.166508 0 0 5.37381,1.42596 1.5473643,5.5106204 88.166508 0 0 5.31515,-1.18136 1.274602,6.5030535 88.080425 0 1 -4.43159,0.44986 1.274602,6.5030535 88.080425 0 1 -6.2108,-0.86111 z" />
      <path
         style="fill:#ebd16b;fill-opacity:1;stroke-width:0.392424"
         d="m 120.05331,141.17663 c 0,0 -1.01507,-11.61554 7.90542,-20.33203 8.9205,-8.71649 8.72133,-8.59552 8.72133,-8.59552 0,0 -12.90486,3.89445 -16.08496,13.11063 -3.1801,9.21617 -0.54179,15.81692 -0.54179,15.81692 z"
         id="path113672" />
    </g>
    <path
       style="fill:#e0e0e0;fill-opacity:1;stroke-width:0.351837"
       d="m 137.00265,164.88134 c 0,0 -1.411,-4.10513 -1.50111,-4.33266 -0.0817,-0.20647 -0.10887,-0.31946 -0.10887,-0.31946 0,0 8.9686,3.14793 16.65925,1.82689 l 7.69066,-1.32103 0.90796,-0.27336 c 0,0 -1.2218,3.43552 -1.29758,3.74522 -0.0443,0.13224 -0.93376,0.37364 -2.32073,0.53873 -1.06291,0.12653 -2.45924,0.26127 -4.14352,0.36711 -1.862,0.11698 -4.06318,0.23534 -6.48035,0.18684 -1.90827,-0.0383 -3.96001,-0.0788 -6.09003,-0.19317 -1.08606,-0.0583 -2.20655,-0.11553 -3.31568,-0.22511 z"
       id="path70864"
       sodipodi:nodetypes="cscscccssssc" />
    <path
       style="fill:#fab484;fill-opacity:1;stroke-width:0.621077"
       d="m 143.8737,132.94828 c 0,0 2.58279,-1.02367 3.18361,-0.93888 0.60081,0.0849 3.27143,0.68112 3.13088,1.10974 -0.14064,0.42859 -6.31449,-0.17086 -6.31449,-0.17086 z"
       id="path78935" />
    <path
       style="fill:#000000;fill-opacity:1;stroke-width:0.481324"
       d="m 143.88118,132.94973 c 0,0 2.86975,-0.9943 3.09271,-0.94514 0.22301,0.0492 3.15027,0.64525 3.19928,1.02959 0.0177,-0.14334 -0.71192,-0.65906 -2.3373,-1.05194 -0.43707,-0.10578 -0.51723,-0.26247 -0.87188,-0.26518 -0.34624,-0.003 -0.11443,-0.0107 -1.15089,0.36332 -1.15969,0.41938 -1.93192,0.86935 -1.93192,0.86935 z"
       id="path79075"
       sodipodi:nodetypes="cscsssc" />
    <path
       style="fill:#fab484;fill-opacity:1;stroke-width:0.262411"
       id="path78435"
       sodipodi:type="arc"
       sodipodi:cx="147.04311"
       sodipodi:cy="129.42505"
       sodipodi:rx="2.6199524"
       sodipodi:ry="0.77426213"
       sodipodi:start="3.185723"
       sodipodi:end="3.1844767"
       sodipodi:open="true"
       sodipodi:arc-type="arc"
       d="m 144.4257,129.39089 a 2.6199524,0.77426213 0 0 1 2.73217,-0.73936 2.6199524,0.77426213 0 0 1 2.50271,0.80719 2.6199524,0.77426213 0 0 1 -2.73061,0.73987 2.6199524,0.77426213 0 0 1 -2.50441,-0.80673" />
    <g
       id="g90764"
       transform="translate(8.5493124e-4,-0.28359767)">
      <g
         id="g109197"
         transform="matrix(1.3321625,0,0,1.3321625,-49.260295,-62.020816)">
        <path
           style="fill:#000000;fill-opacity:1;stroke-width:0.354672"
           d="m 150.57838,144.23989 c 0,0 3.58598,0.70026 4.43192,-0.52779 0.83724,-1.21541 -2.58347,-1.03413 -3.2702,-0.83638 -0.68671,0.19775 -0.77161,0.42088 -0.77161,0.42088"
           id="path84931"
           sodipodi:nodetypes="cszc" />
        <path
           style="fill:#ffffff;fill-opacity:1;stroke-width:0.297771"
           d="m 150.92689,144.18796 c 0,0 3.09624,0.47935 3.77924,-0.55228 0.67596,-1.02102 -2.24867,-0.78053 -2.83032,-0.59969 -0.58162,0.18086 -0.64678,0.36647 -0.64678,0.36647"
           id="path94586"
           sodipodi:nodetypes="cszc" />
        <path
           id="path89615"
           style="fill:#19c619;fill-opacity:1;stroke-width:0.301529"
           d="m 153.30091,142.87151 c -0.30102,0.003 -0.60294,0.0274 -0.85446,0.0594 a 0.76652336,0.81920671 5.4740029 0 0 -0.29879,0.53929 l -1e-4,0.001 a 0.76652336,0.81920671 5.4740029 0 0 0.39026,0.83011 c 0.26397,-0.001 0.53747,-0.0159 0.79866,-0.0511 a 0.76652336,0.81920671 5.4740029 0 0 0.32903,-0.56235 0.76652336,0.81920671 5.4740029 0 0 -0.3646,-0.81625 z" />
        <path
           id="path90766"
           style="fill:#39e639;fill-opacity:1;stroke-width:0.263709"
           d="m 153.21798,142.87404 c -0.23028,0.001 -0.46112,0.0231 -0.65333,0.0532 a 0.81852019,0.58678998 89.65684 0 0 -0.22474,0.53704 l -7e-5,0.001 a 0.81852019,0.58678998 89.65684 0 0 0.30453,0.83272 c 0.20195,8.5e-4 0.4111,-0.012 0.61069,-0.0454 a 0.81852019,0.58678998 89.65684 0 0 0.24772,-0.55987 0.81852019,0.58678998 89.65684 0 0 -0.2848,-0.81868 z" />
        <path
           id="path89613"
           style="fill:#000000;fill-opacity:0.240828;stroke-width:0.316812"
           d="m 153.12828,142.84443 c -0.56489,0.002 -1.10412,0.0634 -1.32595,0.12655 -0.61725,0.17554 -0.6936,0.37359 -0.6936,0.37359 l -0.35075,0.83765 c 0,0 0.17973,0.0343 0.46259,0.0728 l 0.26869,-0.79435 c 0,0 0.058,-0.18743 0.57499,-0.37026 0.51707,-0.18281 3.1174,-0.42599 2.51645,0.60617 -0.23022,0.39541 -0.76891,0.57136 -1.34901,0.63727 0.64551,-0.0579 1.23651,-0.2283 1.50976,-0.62006 0.4821,-0.69118 -0.60617,-0.87364 -1.61317,-0.86928 z" />
        <path
           style="fill:#ffffff;fill-opacity:1;stroke-width:0.368939"
           id="path91601"
           sodipodi:type="arc"
           sodipodi:cx="153.38499"
           sodipodi:cy="143.57144"
           sodipodi:rx="0.32364085"
           sodipodi:ry="0.16080613"
           sodipodi:start="3.185723"
           sodipodi:end="3.1844767"
           sodipodi:open="true"
           sodipodi:arc-type="arc"
           d="m 153.06167,143.56435 a 0.32364085,0.16080613 0 0 1 0.3375,-0.15356 0.32364085,0.16080613 0 0 1 0.30916,0.16765 0.32364085,0.16080613 0 0 1 -0.33731,0.15366 0.32364085,0.16080613 0 0 1 -0.30937,-0.16755" />
        <rect
           style="fill:#ffffff;fill-opacity:0.37562;stroke-width:0.248262"
           id="rect92283"
           width="1.4782511"
           height="0.81706971"
           x="147.97133"
           y="148.16451"
           transform="matrix(0.99948934,-0.03195387,0.02903077,0.99957852,0,0)" />
      </g>
      <g
         id="g109201"
         transform="matrix(1.3321625,0,0,1.3321625,-49.260295,-62.020816)">
        <path
           id="path98104"
           style="fill:#000000;fill-opacity:1;stroke-width:0.313786"
           d="m 152.76923,141.35765 a 0.65806784,2.6803278 74.950838 0 1 2.64521,-0.0528 l 1.3e-4,5.8e-4 a 0.65806784,2.6803278 74.950838 0 1 -0.38559,0.52481 0.55133963,3.5009293 79.032341 0 0 -2.97017,0.33296 0.55133963,3.5009293 79.032341 0 0 -1.80909,0.44684 0.65806784,2.6803278 74.950838 0 1 2.32613,-1.20034 0.65806784,2.6803278 74.950838 0 1 0.1934,-0.0521 z" />
        <path
           id="path98745"
           style="fill:#ffeeaa;fill-opacity:1;stroke-width:0.24599"
           d="m 152.7833,141.44634 a 0.4717551,2.2977941 76.105305 0 1 2.30446,-0.11406 l 1.3e-4,4.1e-4 a 0.4717551,2.2977941 76.105305 0 1 -0.31298,0.38027 0.39253738,3.0219735 79.264597 0 0 -2.57541,0.32054 0.39253738,3.0219735 79.264597 0 0 -1.55783,0.36684 0.4717551,2.2977941 76.105305 0 1 1.97529,-0.91177 0.4717551,2.2977941 76.105305 0 1 0.16636,-0.0422 z" />
      </g>
      <g
         id="g106594"
         style="fill:#ffeeaa"
         transform="matrix(1.3321625,0,0,1.3321625,-49.194832,-63.50637)">
        <path
           style="fill:#000000;fill-opacity:1;stroke-width:0.288217"
           d="m 151.14233,136.26407 c 6.597,12.30543 4.19566,9.03723 4.25047,15.07635 0.0548,6.03912 -1.71663,4.99069 -1.71663,4.99069 0,0 8.59403,3.35898 5.85432,-14.96295 -1.03689,-6.93432 -4.19577,-9.91211 -7.38204,-11.27745 -5.08608,-2.17943 -11.82121,0.44695 -14.78131,5.28485 -4.24508,6.93802 -1.14081,16.13112 1.04514,18.04832 2.18594,1.91721 3.40006,2.34724 3.40006,2.34724 0,0 -3.30775,-1.56527 -0.5545,-15.12024 10.87645,-13.42029 9.88412,-4.38681 9.88412,-4.38681 z"
           id="path107147"
           sodipodi:nodetypes="cscsssccccc" />
        <path
           style="fill:#000000;fill-opacity:1;stroke-width:0.288217"
           d="m 140.70516,138.55026 c 0,0 -2.38606,3.51087 -0.16224,6.23416 2.22377,2.72329 2.72481,3.08321 2.72481,3.08321 0,0 -0.98802,-5.05398 -0.48099,-7.68743 0.50702,-2.63346 -0.019,-2.41631 -0.019,-2.41631 0,0 0.81228,3.94533 1.52684,5.759 0.71457,1.81365 8.86679,-4.98141 8.86679,-4.98141 l -2.43766,-7.77568 -9.88527,4.66722 z"
           id="path107149"
           sodipodi:nodetypes="cccccccccc" />
        <path
           style="fill:#000000;fill-opacity:0.5366;stroke-width:0.272241"
           d="m 141.24016,140.79194 c 0,0 -2.25052,2.92733 -0.0267,5.35708 2.22377,2.42976 2.40987,2.68718 2.40987,2.68718 0,0 -1.14836,-4.1519 -0.64133,-6.5015 0.50702,-2.34961 0.655,-2.37154 0.655,-2.37154 0,0 0.63342,3.31763 1.34798,4.93581 0.71457,1.61816 8.80059,-4.63778 8.80059,-4.63778 l -2.52683,-6.41465 -9.88527,4.16416 z"
           id="path108529" />
        <path
           style="fill:#ffeeaa;fill-opacity:1;stroke-width:0.288217"
           d="m 151.14233,136.26407 c 7.97253,13.06487 4.4165,9.11509 4.47131,15.15421 0.0548,6.03912 -1.35382,4.88267 -1.35382,4.88267 0,0 7.40714,2.51858 4.93222,-14.94963 -0.98357,-6.94208 -4.1764,-9.61104 -7.36267,-10.97638 -5.08608,-2.17943 -10.96508,0.41965 -13.92518,5.25755 -4.24508,6.93802 -1.39986,15.56287 0.78609,17.48007 1.75641,2.13552 2.74661,2.33634 2.74661,2.33634 0,0 -3.57392,-0.55411 -0.25397,-16.60776 10.87645,-13.42029 9.95904,-2.57707 9.95904,-2.57707 z"
           id="path101414"
           sodipodi:nodetypes="cscsssccccc" />
        <path
           style="fill:#ffeeaa;fill-opacity:1;stroke-width:0.288217"
           d="m 140.70516,138.55026 c 0,0 -2.25052,3.28097 -0.0267,6.00426 2.22377,2.72329 2.40987,3.01181 2.40987,3.01181 0,0 -1.14836,-4.65348 -0.64133,-7.28693 0.50702,-2.63346 0.655,-2.65804 0.655,-2.65804 0,0 0.63342,3.71842 1.34798,5.53209 0.71457,1.81365 8.80059,-5.19806 8.80059,-5.19806 l -2.52683,-7.18959 -9.88527,4.66722 z"
           id="path103985" />
        <path
           style="fill:#edcc88;fill-opacity:1;stroke-width:0.198924"
           d="m 136.70234,149.67002 c -0.19846,-3.11425 -0.16126,-4.8101 0.009,-6.78206 0.36887,-4.28126 1.49194,-7.23818 4.14929,-9.16907 1.33919,-0.97308 2.83184,-2.4137 5.44784,-2.96558 1.57258,-0.33176 4.01422,-0.45421 5.71946,-0.29082 0,0 -2.22974,-1.47177 -6.50314,-0.60212 -1.42199,0.28938 -3.96172,1.67006 -4.96943,2.54412 -2.3689,2.05469 -3.91712,4.86228 -4.77063,8.55418 -0.75291,4.46154 0.91797,8.71135 0.91797,8.71135 z"
           id="path113967"
           sodipodi:nodetypes="cssscsscc" />
        <path
           style="fill:#ffffff;fill-opacity:0.714637;stroke-width:0.206491"
           id="path117533"
           sodipodi:type="arc"
           sodipodi:cx="230.76474"
           sodipodi:cy="-66.597244"
           sodipodi:rx="3.9799531"
           sodipodi:ry="1.0221621"
           sodipodi:start="3.185723"
           sodipodi:end="3.1844767"
           sodipodi:open="true"
           sodipodi:arc-type="arc"
           d="m 226.78866,-66.642338 a 3.9799531,1.0221621 0 0 1 4.15042,-0.976087 3.9799531,1.0221621 0 0 1 3.80185,1.065638 3.9799531,1.0221621 0 0 1 -4.14805,0.976751 3.9799531,1.0221621 0 0 1 -3.80443,-1.065029"
           transform="matrix(0.53589083,0.84428729,-0.47964691,0.87746159,0,0)" />
      </g>
    </g>
    <path
       style="fill:#f2f2f2;fill-opacity:1;stroke-width:0.264999"
       d="m 127.39984,182.69906 c 0,0 -2.07923,2.63747 1.73213,3.78499 3.81135,1.14751 4.80241,1.19975 7.23213,1.46586 2.72941,0.29893 6.14321,0.57088 11.87736,0.61828 3.02844,0.025 6.17586,-0.15843 8.44688,-0.31362 4.86103,-0.33219 7.05947,-0.1903 11.43571,-2.42452 0.62279,-0.31795 1.18739,-1.13373 1.17749,-1.39853 -0.042,-1.12382 -0.61031,-1.59007 -0.90883,-2.12828 -2.21293,-3.98971 -9.44185,-13.22273 -9.33049,-15.3609 0.007,-0.14066 -0.0683,-0.51416 -0.0782,-0.68804 -9e-4,-0.016 -4.91945,0.36873 -5.39108,0.38423 -0.1844,0.006 -9.84926,0.41546 -13.96377,0.0771 -2.39787,-0.19716 -0.51937,2.82435 -0.64066,2.57156 -0.24983,-0.52071 1.06196,0.42514 8.95758,0.0457 8.13021,-0.39072 8.11363,-0.51694 8.17054,-0.50843 1.65837,0.24795 5.63446,7.92766 6.53697,10.06614 4.57911,10.85012 -18.47203,6.38122 -27.38724,6.0787 -7.73227,-0.26238 8.30182,-17.91254 4.25009,-18.25432 -0.44428,-0.0375 -1.94996,-0.20641 -2.37208,-0.27131 -0.25821,-0.0397 0.27108,0.19686 -2.99065,6.50866 -1.64024,3.17402 -6.21539,9.07711 -6.35878,9.22325 -0.3666,0.37364 -0.39514,0.52345 -0.39514,0.52345 z"
       id="path121476"
       sodipodi:nodetypes="csssssssssssssssssssscc" />
  </g>
</svg>
