<?xml version="1.0" encoding="UTF-8" standalone="no"?>
<!-- Created with Inkscape (http://www.inkscape.org/) -->

<svg
   width="34.184673mm"
   height="226.06837mm"
   viewBox="0 0 34.184673 226.06838"
   version="1.1"
   id="svg19456"
   inkscape:version="1.2.2 (b0a8486541, 2022-12-01)"
   sodipodi:docname="gnome3_axe.svg"
   xmlns:inkscape="http://www.inkscape.org/namespaces/inkscape"
   xmlns:sodipodi="http://sodipodi.sourceforge.net/DTD/sodipodi-0.dtd"
   xmlns:xlink="http://www.w3.org/1999/xlink"
   xmlns="http://www.w3.org/2000/svg"
   xmlns:svg="http://www.w3.org/2000/svg">
  <sodipodi:namedview
     id="namedview19458"
     pagecolor="#ffffff"
     bordercolor="#000000"
     borderopacity="0.25"
     inkscape:showpageshadow="2"
     inkscape:pageopacity="0.0"
     inkscape:pagecheckerboard="0"
     inkscape:deskcolor="#d1d1d1"
     inkscape:document-units="mm"
     showgrid="false"
     inkscape:zoom="1"
     inkscape:cx="-131"
     inkscape:cy="151.5"
     inkscape:window-width="1916"
     inkscape:window-height="1036"
     inkscape:window-x="1280"
     inkscape:window-y="0"
     inkscape:window-maximized="1"
     inkscape:current-layer="g4098" />
  <defs
     id="defs19453">
    <linearGradient
       inkscape:collect="always"
       id="linearGradient128480">
      <stop
         style="stop-color:#2e1111;stop-opacity:1;"
         offset="0.2602523"
         id="stop128476" />
      <stop
         style="stop-color:#ff0e0e;stop-opacity:0.30822498;"
         offset="0.64844161"
         id="stop130618" />
      <stop
         style="stop-color:#eaeaea;stop-opacity:0;"
         offset="0.95069677"
         id="stop128478" />
    </linearGradient>
    <radialGradient
       inkscape:collect="always"
       xlink:href="#linearGradient128480"
       id="radialGradient128482"
       cx="183.29012"
       cy="-57.609356"
       fx="183.29012"
       fy="-57.609356"
       r="20.941694"
       gradientTransform="matrix(1.3782918,0,0,2.1199641,-384.78624,6.8685185)"
       gradientUnits="userSpaceOnUse" />
  </defs>
  <g
     inkscape:label="Layer 1"
     inkscape:groupmode="layer"
     id="layer1"
     transform="translate(-97.561205,-16.537479)">
    <g
       id="g4098"
       transform="matrix(0.15009475,0.5728352,-0.5728352,0.15009475,192.48452,110.80804)">
      <g
         id="g12895"
         transform="rotate(-75.294996,100.49781,248.0754)">
        <g
           id="g110322">
          <path
             id="path109932"
             style="fill:#000000;fill-opacity:1;stroke-width:1.18135"
             d="m 178.54873,0.78754894 2.1375,21.03743206 -3.4317,12.64979 -0.52423,234.449079 13.10192,-1.06556 0.0631,-101.18208 -4.12016,-29.26266 4.7776,-16.35335 -2.74944,-122.5667874 -4.15062,0.078175 -2.55159,3.1826729 -0.66586,-2.27371651 z"
             sodipodi:nodetypes="ccccccccccccc"
             transform="rotate(-0.02238814,-3.2799341e-4,-0.00381056)" />
          <g
             id="g101760">
            <path
               id="path107008"
               style="fill:#000000;fill-opacity:1;stroke-width:0.492027"
               d="m 198.21527,-11.308874 -2.0074,0.973571 -3.33577,4.3929371 -4.49453,2.9939288 -0.38271,0.3037161 -3.83228,3.50412472 -1.08119,9.89061128 4.44451,-4.7122257 5.25878,-7.4620012 3.10267,-0.8463078 -0.15761,-2.0683301 1.67079,-3.0160713 z"
               sodipodi:nodetypes="ccccccccccccc"
               transform="matrix(1.7019218,-0.30936037,0.30936037,1.7019218,-127.36067,54.618553)" />
            <path
               id="path109928"
               style="fill:#000000;fill-opacity:1;stroke-width:0.755373"
               d="m 160.85405,-22.529569 4.01214,18.3838082 5.52941,1.2103376 7.65373,11.823995 6.55626,8.0380912 -0.72316,-16.96883961 -1.71997,-1.66904009 -4.23482,-4.3756803 -7.26533,-5.10485 -5.6445,-7.598386 z"
               sodipodi:nodetypes="ccccccccccc" />
            <rect
               style="fill:#000000;fill-opacity:1;stroke-width:1.12596"
               id="rect109935"
               width="16.001669"
               height="29.364866"
               x="357.46515"
               y="363.87582"
               transform="matrix(0.29440782,-0.95567988,0.21133095,0.97741456,0,0)" />
            <rect
               style="fill:#000000;fill-opacity:1;stroke-width:1.47733"
               id="rect110109"
               width="20.7251"
               height="39.030933"
               x="613.99817"
               y="675.5069"
               transform="matrix(0.18585622,-0.98257695,0.10416819,0.9945597,0,0)" />
            <rect
               style="fill:#000000;fill-opacity:1;stroke-width:1.61196"
               id="rect110107"
               width="22.718836"
               height="42.391376"
               x="432.83188"
               y="485.47839"
               transform="matrix(0.24532637,-0.96944055,0.13857604,0.9903518,0,0)" />
            <rect
               style="fill:#000000;fill-opacity:1;stroke-width:2.27258"
               id="rect110111"
               width="31.98694"
               height="59.843739"
               x="435.12241"
               y="557.20831"
               transform="matrix(0.2299329,-0.97320648,0.12957586,0.99156951,0,0)" />
            <rect
               style="fill:#000000;fill-opacity:1;stroke-width:0.625897"
               id="rect110201"
               width="5.2885141"
               height="113.68787"
               x="176.41905"
               y="159.901"
               transform="rotate(-0.02238814)" />
            <rect
               style="fill:#000000;fill-opacity:1;stroke-width:1.56476"
               id="rect110205"
               width="22.221781"
               height="40.837917"
               x="251.09123"
               y="517.06445"
               transform="matrix(0.31830819,-0.94798729,0.18236222,0.98323142,0,0)" />
            <rect
               style="fill:#000000;fill-opacity:1;stroke-width:0.373511"
               id="rect110203"
               width="5.6819139"
               height="18.917704"
               x="241.2222"
               y="222.98007"
               transform="matrix(0.97854859,0.20601617,-0.23172371,0.97278164,0,0)" />
            <path
               id="rect94643"
               style="fill:#a4602f;fill-opacity:1;stroke-width:1.18135"
               d="m 179.32687,-0.49539606 3.32832,22.24056206 -3.64073,13.394428 V 266.95421 h 8.81297 v -100.278 l -3.87024,-29.53947 3.87024,-16.2585 V -0.49539605 l -3.98543,-1e-8 -2.01496,3.04034056 -1.15017,-3.04034056 z"
               transform="rotate(-0.02238817)" />
            <rect
               style="fill:#a4602f;fill-opacity:1;stroke-width:1.78482"
               id="rect95371"
               width="25.124247"
               height="46.994705"
               x="436.85449"
               y="558.74963"
               transform="matrix(0.23117465,-0.97291227,0.13029925,0.99147471,0,0)" />
            <rect
               style="fill:#a4602f;fill-opacity:1;stroke-width:1.32153"
               id="rect95376"
               width="18.506613"
               height="34.976654"
               x="732.59814"
               y="796.50305"
               transform="matrix(0.1568635,-0.98762029,0.08770417,0.99614656,0,0)" />
            <rect
               style="fill:#a4602f;fill-opacity:1;stroke-width:1.33135"
               id="rect95378"
               width="18.716938"
               height="35.099689"
               x="502.19052"
               y="555.341"
               transform="matrix(0.21531003,-0.97654574,0.12109018,0.99264151,0,0)" />
            <rect
               style="fill:#a4602f;fill-opacity:1;stroke-width:1.33277"
               id="rect95382"
               width="18.747316"
               height="35.117538"
               x="415.1441"
               y="679.65283"
               transform="matrix(0.22235304,-0.97496622,0.12516979,0.99213534,0,0)" />
            <rect
               style="fill:#a4602f;fill-opacity:1;stroke-width:0.296258"
               id="rect96110"
               width="4.382884"
               height="15.428928"
               x="237.32819"
               y="219.36067"
               transform="rotate(12.622756)" />
            <rect
               style="fill:#a4602f;fill-opacity:1;stroke-width:1.07183"
               id="rect96164"
               width="15.135929"
               height="28.131456"
               x="437.65588"
               y="441.53973"
               transform="matrix(0.26634546,-0.96387764,0.15098685,0.98853577,0,0)" />
            <path
               id="rect96169"
               style="fill:#a4602f;fill-opacity:1;stroke-width:0.755373"
               d="m 162.53507,-19.679752 3.54822,14.0640749 5.04426,1.192422 8.26779,12.1995741 6.82796,6.866917 -3.55045,-14.07018452 -5.90265,-5.93737258 0.0252,0.0368 -7.20896,-5.0244249 -5.46168,-7.729379 z" />
            <g
               id="g99146"
               transform="matrix(1.7019218,-0.30936037,0.30936037,1.7019218,-127.36067,54.618551)">
              <path
                 id="path107006"
                 style="fill:#000000;fill-opacity:1;stroke-width:0.837798"
                 d="m 198.89257,-17.193972 -2.71559,6.075151 -0.72298,6.5216158 2.7156,-6.0751388 z" />
              <path
                 id="path97681"
                 style="fill:#a4602f;fill-opacity:1;stroke-width:0.492027"
                 d="m 197.79539,-11.190137 -0.95568,0.865 -3.55419,4.8245696 -4.85683,3.2185155 0.0166,-0.022696 -3.91852,3.7443617 -2.02031,8.6409772 4.53263,-4.331028 5.36388,-7.6073111 2.95978,-0.7141182 -0.14384,-1.8543422 1.77118,-3.0366695 z"
                 sodipodi:nodetypes="ccccccccccccc" />
              <path
                 id="rect98409"
                 style="fill:#a4602f;fill-opacity:1;stroke-width:1.18176"
                 d="m 818.57377,750.66665 -5.14651,10e-4 8.1e-4,5.14874 5.1465,-10e-4 z"
                 transform="matrix(0.37603804,-0.92660423,-0.14560283,0.98934312,0,0)" />
            </g>
            <path
               id="path109926"
               style="fill:#a4602f;fill-opacity:1;stroke-width:0.755373"
               d="m 162.53507,-19.679752 3.54822,14.0640749 5.04426,1.192422 8.26779,12.1995741 6.82796,6.866917 -3.55045,-14.07018452 -5.90265,-5.93737258 0.0252,0.0368 -7.20896,-5.0244249 -5.46168,-7.729379 z" />
          </g>
        </g>
      </g>
      <g
         id="g115709"
         transform="rotate(-75.294996,-57.048835,-3.6827431)"
         style="fill:#808080;fill-opacity:0.758845" />
      <g
         id="g119018">
        <path
           id="rect119012"
           style="fill:#000000;fill-opacity:0.566936;stroke-width:0.114749"
           d="m -94.842567,-136.09954 -1.090545,8.07348 -0.0022,-0.004 -1.086009,5.96957 -2.891491,5.84386 -8.67e-4,-1.2e-4 -9.9e-5,8.7e-4 -1e-4,8.6e-4 6.69e-4,0.002 0.472231,2.81582 -4.850892,1.79449 -8.7e-4,-1.2e-4 -7.54421,11.88253 -6.06863,6.901 7.7e-4,9.84e-4 -0.002,-2.38e-4 0.96097,16.07843 -5.39259,12.046964 8.7e-4,1.19e-4 -1.48816,13.110737 -0.91345,32.48532 -4.23729,16.6552752 -0.002,-2.381e-4 -1.89164,16.1884519 -5.9431,14.75579 0.005,0.0024 -6.3e-4,25.392281 1.83578,-1.27e-4 -1.87087,0.144632 -11.58568,107.021119 -4.09312,10.3957 0.005,0.003 -0.51572,5.36799 -4.46664,13.91056 2.32966,1.66012 1.70846,-5.32199 2.08238,0.90592 1.47939,-15.39039 -0.11745,-0.0512 4.07048,-10.33645 0.27646,-0.0218 11.73136,-108.366966 -0.0133,8.09e-4 -5.4e-4,-25.328323 -0.48182,-2.53e-4 4.80083,-11.918255 0.62684,0.102724 0.27283,-2.338506 0.94972,-2.357152 -0.63983,-0.28896 1.5976,-13.6727952 3.95619,-15.5493588 0.2855,-0.01615 0.0352,-1.243305 0.32124,-1.263781 -0.28353,-0.08547 0.88769,-31.570098 -0.0186,9.6e-4 1.34071,-11.810807 0.1272,0.07367 5.66967,-12.665067 -0.48091,-0.276809 -0.95467,-15.972163 4.99976,-5.685373 0.10493,0.190951 7.55594,-11.900242 -0.24628,-0.44839 4.874826,-1.8035 0.01996,-0.0587 0.400925,0.23684 -0.159861,-0.95563 0.382049,-1.14125 -0.540029,0.19993 -0.275115,-1.63988 2.457475,-4.96359 0.102777,0.17134 1.174971,-6.46066 -0.153113,-0.25466 0.158702,0.0218 0.47137,-4.10661 -0.499521,-0.0686 0.465115,-3.43816 z"
           transform="matrix(0.11919035,-0.99287142,0.98989209,0.14182263,0,0)" />
      </g>
      <g
         id="g125024">
        <path
           id="rect125015"
           style="fill:#000000;fill-opacity:0.566936;stroke-width:0.391544"
           d="m -119.29924,-152.06879 -0.40567,1.66352 0.20197,0.36926 -0.31183,-2e-5 1.7e-4,12.44901 -0.2552,1.34016 0.25483,0.20205 2e-4,1.08286 1.37044,6e-4 4.013,3.17273 -0.13924,0.12713 2.62483,8.01762 0.0173,-0.016 2.49084,7.06549 -0.54457,0.36784 -1.52752,12.86905 -4.03454,7.114438 -0.27881,-0.281366 -2.67485,5.321329 -0.0934,-0.06136 -0.1151,0.474265 -0.45448,0.904853 0.18968,0.191539 -1.09012,4.510212 -0.0259,-0.0492 -6.90581,11.907314 0.0222,0.04256 -1.33232,5.641152 -0.16798,-0.183523 -0.23663,1.896238 -1.56305,6.614833 0.63067,0.846301 -0.63108,5.046962 0.0352,0.03869 -2.26872,14.223563 0.0118,0.01382 -3.7774,13.713582 0.0155,0.02045 -11.3189,20.0971304 -0.55186,-1.2130556 -4.44746,37.1860062 -0.0613,-0.180203 -12.08617,42.958749 -0.043,-0.123544 -12.08364,45.212915 0.26842,0.76282 -2.27998,1.04905 0.43199,3.35473 -2.57895,4.64447 -0.67586,-0.69015 -0.37654,2.58581 -2.66377,4.79758 1.54339,2.20751 0.13651,-0.24652 -3.69465,25.38458 2.34294,2.38913 4.99893,-34.3412 4.121,-7.4226 0.001,0.002 11.56022,-43.257813 12.59245,-44.759349 0.004,0.0105 4.55262,-38.0651683 11.60034,-20.5973687 6.2e-4,0.0011 3.82696,-13.895439 0.001,0.0014 2.28154,-14.3062 0.001,0.0014 1.71139,-13.697079 1.34467,-5.692282 6.84385,-11.800082 0.001,0.0014 1.72423,-7.12917 2.37652,-4.727122 5.55119,-9.787807 0.006,-0.004 1.54642,-13.03654 10e-4,-5.5e-4 -6.1e-4,-0.001 -2.59801,-7.37199 -2.62383,-8.01459 6.9e-4,-0.002 -4.56527,-3.60887 -4e-5,-13.30109 -0.6587,2.5e-4 z"
           transform="matrix(-0.06548212,-0.99785374,0.99994767,-0.01023046,0,0)" />
      </g>
      <g
         id="g8230"
         transform="rotate(-171.10671,144.68139,161.82571)"
         style="display:inline">
        <g
           id="g4080"
           style="fill:#000000"
           transform="matrix(1.0859481,0,0,1.1179733,-14.77694,-18.672677)">
          <path
             style="fill:#000000;fill-opacity:1;stroke-width:0.264999"
             id="path4065"
             sodipodi:type="arc"
             sodipodi:cx="170.7856"
             sodipodi:cy="156.61113"
             sodipodi:rx="15.532881"
             sodipodi:ry="10.607408"
             sodipodi:start="0"
             sodipodi:end="6.24889"
             sodipodi:open="true"
             sodipodi:arc-type="arc"
             d="m 186.31848,156.61113 a 15.532881,10.607408 0 0 1 -15.39971,10.60702 15.532881,10.607408 0 0 1 -15.66377,-10.42514 15.532881,10.607408 0 0 1 15.13111,-10.78578 15.532881,10.607408 0 0 1 15.92324,10.24019" />
          <path
             style="fill:#000000;fill-opacity:1;stroke-width:0.264999"
             id="path4067"
             sodipodi:type="arc"
             sodipodi:cx="161.70638"
             sodipodi:cy="151.64915"
             sodipodi:rx="6.1246076"
             sodipodi:ry="7.1363573"
             sodipodi:start="0"
             sodipodi:end="6.24889"
             sodipodi:open="true"
             sodipodi:arc-type="arc"
             d="m 167.83098,151.64915 a 6.1246076,7.1363573 0 0 1 -6.07209,7.1361 6.1246076,7.1363573 0 0 1 -6.17622,-7.01373 6.1246076,7.1363573 0 0 1 5.96619,-7.25636 6.1246076,7.1363573 0 0 1 6.27852,6.8893" />
          <path
             style="fill:#000000;fill-opacity:1;stroke-width:0.264999"
             id="path4069"
             sodipodi:type="arc"
             sodipodi:cx="169.62576"
             sodipodi:cy="149.81342"
             sodipodi:rx="6.1246076"
             sodipodi:ry="7.1363573"
             sodipodi:start="0"
             sodipodi:end="6.24889"
             sodipodi:open="true"
             sodipodi:arc-type="arc"
             d="m 175.75037,149.81342 a 6.1246076,7.1363573 0 0 1 -6.0721,7.13609 6.1246076,7.1363573 0 0 1 -6.17621,-7.01373 6.1246076,7.1363573 0 0 1 5.96619,-7.25636 6.1246076,7.1363573 0 0 1 6.27852,6.8893" />
          <path
             style="fill:#000000;fill-opacity:1;stroke-width:0.209375"
             id="path4071"
             sodipodi:type="arc"
             sodipodi:cx="230.08562"
             sodipodi:cy="39.278774"
             sodipodi:rx="3.8708475"
             sodipodi:ry="7.0487123"
             sodipodi:start="0"
             sodipodi:end="6.24889"
             sodipodi:open="true"
             sodipodi:arc-type="arc"
             d="m 233.95646,39.278774 a 3.8708475,7.0487123 0 0 1 -3.83766,7.048453 3.8708475,7.0487123 0 0 1 -3.90346,-6.92759 3.8708475,7.0487123 0 0 1 3.77072,-7.167243 3.8708475,7.0487123 0 0 1 3.96813,6.80469"
             transform="matrix(0.8592139,0.51161653,-0.33524464,0.94213111,0,0)" />
          <path
             style="fill:#000000;fill-opacity:1;stroke-width:0.233559"
             id="path4073"
             sodipodi:type="arc"
             sodipodi:cx="203.98505"
             sodipodi:cy="110.55006"
             sodipodi:rx="5.3479609"
             sodipodi:ry="6.3484893"
             sodipodi:start="0"
             sodipodi:end="6.24889"
             sodipodi:open="true"
             sodipodi:arc-type="arc"
             d="m 209.33301,110.55006 a 5.3479609,6.3484893 0 0 1 -5.30211,6.34825 5.3479609,6.3484893 0 0 1 -5.39303,-6.2394 5.3479609,6.3484893 0 0 1 5.20963,-6.45524 5.3479609,6.3484893 0 0 1 5.48236,6.12871"
             transform="matrix(0.97948673,0.20150867,-0.19383885,0.98103338,0,0)" />
        </g>
        <path
           style="fill:#ffb380;fill-opacity:1;stroke-width:0.264999"
           id="path2820"
           sodipodi:type="arc"
           sodipodi:cx="170.7856"
           sodipodi:cy="156.61113"
           sodipodi:rx="15.532881"
           sodipodi:ry="10.607408"
           sodipodi:start="0"
           sodipodi:end="6.24889"
           sodipodi:open="true"
           sodipodi:arc-type="arc"
           d="m 186.31848,156.61113 a 15.532881,10.607408 0 0 1 -15.39971,10.60702 15.532881,10.607408 0 0 1 -15.66377,-10.42514 15.532881,10.607408 0 0 1 15.13111,-10.78578 15.532881,10.607408 0 0 1 15.92324,10.24019" />
        <path
           style="fill:#ffb380;fill-opacity:1;stroke-width:0.264999"
           id="path2876"
           sodipodi:type="arc"
           sodipodi:cx="161.70638"
           sodipodi:cy="151.64915"
           sodipodi:rx="6.1246076"
           sodipodi:ry="7.1363573"
           sodipodi:start="0"
           sodipodi:end="6.24889"
           sodipodi:open="true"
           sodipodi:arc-type="arc"
           d="m 167.83098,151.64915 a 6.1246076,7.1363573 0 0 1 -6.07209,7.1361 6.1246076,7.1363573 0 0 1 -6.17622,-7.01373 6.1246076,7.1363573 0 0 1 5.96619,-7.25636 6.1246076,7.1363573 0 0 1 6.27852,6.8893" />
        <path
           style="fill:#000000;fill-opacity:1;stroke-width:0.268997"
           id="path4037"
           sodipodi:type="arc"
           sodipodi:cx="169.26837"
           sodipodi:cy="150.2717"
           sodipodi:rx="6.9485121"
           sodipodi:ry="6.4814048"
           sodipodi:start="0"
           sodipodi:end="6.24889"
           sodipodi:open="true"
           sodipodi:arc-type="arc"
           d="m 176.21688,150.2717 a 6.9485121,6.4814048 0 0 1 -6.88893,6.48116 6.9485121,6.4814048 0 0 1 -7.00707,-6.37003 6.9485121,6.4814048 0 0 1 6.76879,-6.59039 6.9485121,6.4814048 0 0 1 7.12313,6.25702" />
        <path
           style="fill:#ffb380;fill-opacity:1;stroke-width:0.264999"
           id="path2878"
           sodipodi:type="arc"
           sodipodi:cx="169.62576"
           sodipodi:cy="149.81342"
           sodipodi:rx="6.1246076"
           sodipodi:ry="7.1363573"
           sodipodi:start="0"
           sodipodi:end="6.24889"
           sodipodi:open="true"
           sodipodi:arc-type="arc"
           d="m 175.75037,149.81342 a 6.1246076,7.1363573 0 0 1 -6.0721,7.13609 6.1246076,7.1363573 0 0 1 -6.17621,-7.01373 6.1246076,7.1363573 0 0 1 5.96619,-7.25636 6.1246076,7.1363573 0 0 1 6.27852,6.8893" />
        <path
           style="fill:#ffb380;fill-opacity:1;stroke-width:0.209375"
           id="path2882"
           sodipodi:type="arc"
           sodipodi:cx="230.08562"
           sodipodi:cy="39.278774"
           sodipodi:rx="3.8708475"
           sodipodi:ry="7.0487123"
           sodipodi:start="0"
           sodipodi:end="6.24889"
           sodipodi:open="true"
           sodipodi:arc-type="arc"
           d="m 233.95646,39.278774 a 3.8708475,7.0487123 0 0 1 -3.83766,7.048453 3.8708475,7.0487123 0 0 1 -3.90346,-6.92759 3.8708475,7.0487123 0 0 1 3.77072,-7.167243 3.8708475,7.0487123 0 0 1 3.96813,6.80469"
           transform="matrix(0.8592139,0.51161653,-0.33524464,0.94213111,0,0)" />
        <path
           style="fill:#ffb380;fill-opacity:1;stroke-width:0.263177"
           id="path4039"
           sodipodi:type="arc"
           sodipodi:cx="168.99333"
           sodipodi:cy="152.19885"
           sodipodi:rx="6.0824752"
           sodipodi:ry="7.087265"
           sodipodi:start="0"
           sodipodi:end="6.24889"
           sodipodi:open="true"
           sodipodi:arc-type="arc"
           d="m 175.07581,152.19885 a 6.0824752,7.087265 0 0 1 -6.03033,7.08701 6.0824752,7.087265 0 0 1 -6.13373,-6.96548 6.0824752,7.087265 0 0 1 5.92515,-7.20645 6.0824752,7.087265 0 0 1 6.23533,6.84191" />
        <path
           style="fill:#000000;fill-opacity:1;stroke-width:0.232303"
           id="path4027"
           sodipodi:type="arc"
           sodipodi:cx="221.34038"
           sodipodi:cy="84.667"
           sodipodi:rx="6.1750026"
           sodipodi:ry="5.4392476"
           sodipodi:start="0"
           sodipodi:end="6.24889"
           sodipodi:open="true"
           sodipodi:arc-type="arc"
           d="m 227.51538,84.667 a 6.1750026,5.4392476 0 0 1 -6.12206,5.439048 6.1750026,5.4392476 0 0 1 -6.22704,-5.345782 6.1750026,5.4392476 0 0 1 6.01529,-5.530715 6.1750026,5.4392476 0 0 1 6.33018,5.250945"
           transform="matrix(0.94674597,0.32198146,-0.36994161,0.92905501,0,0)" />
        <path
           style="fill:#ffb380;fill-opacity:1;stroke-width:0.233559"
           id="path2880"
           sodipodi:type="arc"
           sodipodi:cx="203.98505"
           sodipodi:cy="110.55006"
           sodipodi:rx="5.3479609"
           sodipodi:ry="6.3484893"
           sodipodi:start="0"
           sodipodi:end="6.24889"
           sodipodi:open="true"
           sodipodi:arc-type="arc"
           d="m 209.33301,110.55006 a 5.3479609,6.3484893 0 0 1 -5.30211,6.34825 5.3479609,6.3484893 0 0 1 -5.39303,-6.2394 5.3479609,6.3484893 0 0 1 5.20963,-6.45524 5.3479609,6.3484893 0 0 1 5.48236,6.12871"
           transform="matrix(0.97948673,0.20150867,-0.19383885,0.98103338,0,0)" />
        <rect
           style="fill:#ffb380;fill-opacity:1;stroke-width:0.218088"
           id="rect2936"
           width="5.7850571"
           height="6.804719"
           x="166.30217"
           y="146.55194"
           ry="0.56931424"
           transform="matrix(0.99977984,0.02098287,-0.07179033,0.99741975,0,0)" />
        <path
           style="fill:#ffb380;fill-opacity:1;stroke-width:0.231718"
           id="path4029"
           sodipodi:type="arc"
           sodipodi:cx="205.83771"
           sodipodi:cy="115.02711"
           sodipodi:rx="5.5053039"
           sodipodi:ry="6.0702019"
           sodipodi:start="0"
           sodipodi:end="6.24889"
           sodipodi:open="true"
           sodipodi:arc-type="arc"
           d="m 211.34301,115.02711 a 5.5053039,6.0702019 0 0 1 -5.4581,6.06998 5.5053039,6.0702019 0 0 1 -5.5517,-5.9659 5.5053039,6.0702019 0 0 1 5.36291,-6.17228 5.5053039,6.0702019 0 0 1 5.64365,5.86006"
           transform="matrix(0.9824434,0.18656089,-0.20931971,0.97784726,0,0)" />
        <path
           id="path6554"
           style="fill:#ffa467;fill-opacity:1;stroke-width:0.531889"
           d="m 155.38922,154.3852 a 15.521932,11.554465 0.22571469 0 0 -0.17919,1.88166 15.521932,11.554465 0.22571469 0 0 15.60831,11.41783 15.521932,11.554465 0.22571469 0 0 13.80618,-6.39565 16.325087,11.461231 0.22558696 0 1 -12.81711,4.4328 16.325087,11.461231 0.22558696 0 1 -16.41822,-11.3293 16.325087,11.461231 0.22558696 0 1 3e-5,-0.007 z" />
      </g>
      <g
         id="g8266"
         transform="matrix(-0.93711779,-0.34901324,-0.34901324,0.93711779,296.0704,73.308427)"
         style="display:inline">
        <g
           id="g8242"
           style="fill:#000000"
           transform="matrix(1.0859481,0,0,1.1179733,-14.77694,-18.672677)">
          <path
             style="fill:#000000;fill-opacity:1;stroke-width:0.264999"
             id="path8232"
             sodipodi:type="arc"
             sodipodi:cx="170.7856"
             sodipodi:cy="156.61113"
             sodipodi:rx="15.532881"
             sodipodi:ry="10.607408"
             sodipodi:start="0"
             sodipodi:end="6.24889"
             sodipodi:open="true"
             sodipodi:arc-type="arc"
             d="m 186.31848,156.61113 a 15.532881,10.607408 0 0 1 -15.39971,10.60702 15.532881,10.607408 0 0 1 -15.66377,-10.42514 15.532881,10.607408 0 0 1 15.13111,-10.78578 15.532881,10.607408 0 0 1 15.92324,10.24019" />
          <path
             style="fill:#000000;fill-opacity:1;stroke-width:0.264999"
             id="path8234"
             sodipodi:type="arc"
             sodipodi:cx="161.70638"
             sodipodi:cy="151.64915"
             sodipodi:rx="6.1246076"
             sodipodi:ry="7.1363573"
             sodipodi:start="0"
             sodipodi:end="6.24889"
             sodipodi:open="true"
             sodipodi:arc-type="arc"
             d="m 167.83098,151.64915 a 6.1246076,7.1363573 0 0 1 -6.07209,7.1361 6.1246076,7.1363573 0 0 1 -6.17622,-7.01373 6.1246076,7.1363573 0 0 1 5.96619,-7.25636 6.1246076,7.1363573 0 0 1 6.27852,6.8893" />
          <path
             style="fill:#000000;fill-opacity:1;stroke-width:0.264999"
             id="path8236"
             sodipodi:type="arc"
             sodipodi:cx="169.62576"
             sodipodi:cy="149.81342"
             sodipodi:rx="6.1246076"
             sodipodi:ry="7.1363573"
             sodipodi:start="0"
             sodipodi:end="6.24889"
             sodipodi:open="true"
             sodipodi:arc-type="arc"
             d="m 175.75037,149.81342 a 6.1246076,7.1363573 0 0 1 -6.0721,7.13609 6.1246076,7.1363573 0 0 1 -6.17621,-7.01373 6.1246076,7.1363573 0 0 1 5.96619,-7.25636 6.1246076,7.1363573 0 0 1 6.27852,6.8893" />
          <path
             style="fill:#000000;fill-opacity:1;stroke-width:0.209375"
             id="path8238"
             sodipodi:type="arc"
             sodipodi:cx="230.08562"
             sodipodi:cy="39.278774"
             sodipodi:rx="3.8708475"
             sodipodi:ry="7.0487123"
             sodipodi:start="0"
             sodipodi:end="6.24889"
             sodipodi:open="true"
             sodipodi:arc-type="arc"
             d="m 233.95646,39.278774 a 3.8708475,7.0487123 0 0 1 -3.83766,7.048453 3.8708475,7.0487123 0 0 1 -3.90346,-6.92759 3.8708475,7.0487123 0 0 1 3.77072,-7.167243 3.8708475,7.0487123 0 0 1 3.96813,6.80469"
             transform="matrix(0.8592139,0.51161653,-0.33524464,0.94213111,0,0)" />
          <path
             style="fill:#000000;fill-opacity:1;stroke-width:0.233559"
             id="path8240"
             sodipodi:type="arc"
             sodipodi:cx="203.98505"
             sodipodi:cy="110.55006"
             sodipodi:rx="5.3479609"
             sodipodi:ry="6.3484893"
             sodipodi:start="0"
             sodipodi:end="6.24889"
             sodipodi:open="true"
             sodipodi:arc-type="arc"
             d="m 209.33301,110.55006 a 5.3479609,6.3484893 0 0 1 -5.30211,6.34825 5.3479609,6.3484893 0 0 1 -5.39303,-6.2394 5.3479609,6.3484893 0 0 1 5.20963,-6.45524 5.3479609,6.3484893 0 0 1 5.48236,6.12871"
             transform="matrix(0.97948673,0.20150867,-0.19383885,0.98103338,0,0)" />
        </g>
        <path
           style="fill:#ffb380;fill-opacity:1;stroke-width:0.264999"
           id="path8244"
           sodipodi:type="arc"
           sodipodi:cx="170.7856"
           sodipodi:cy="156.61113"
           sodipodi:rx="15.532881"
           sodipodi:ry="10.607408"
           sodipodi:start="0"
           sodipodi:end="6.24889"
           sodipodi:open="true"
           sodipodi:arc-type="arc"
           d="m 186.31848,156.61113 a 15.532881,10.607408 0 0 1 -15.39971,10.60702 15.532881,10.607408 0 0 1 -15.66377,-10.42514 15.532881,10.607408 0 0 1 15.13111,-10.78578 15.532881,10.607408 0 0 1 15.92324,10.24019" />
        <path
           style="fill:#ffb380;fill-opacity:1;stroke-width:0.264999"
           id="path8246"
           sodipodi:type="arc"
           sodipodi:cx="161.70638"
           sodipodi:cy="151.64915"
           sodipodi:rx="6.1246076"
           sodipodi:ry="7.1363573"
           sodipodi:start="0"
           sodipodi:end="6.24889"
           sodipodi:open="true"
           sodipodi:arc-type="arc"
           d="m 167.83098,151.64915 a 6.1246076,7.1363573 0 0 1 -6.07209,7.1361 6.1246076,7.1363573 0 0 1 -6.17622,-7.01373 6.1246076,7.1363573 0 0 1 5.96619,-7.25636 6.1246076,7.1363573 0 0 1 6.27852,6.8893" />
        <path
           style="fill:#000000;fill-opacity:1;stroke-width:0.268997"
           id="path8248"
           sodipodi:type="arc"
           sodipodi:cx="169.26837"
           sodipodi:cy="150.2717"
           sodipodi:rx="6.9485121"
           sodipodi:ry="6.4814048"
           sodipodi:start="0"
           sodipodi:end="6.24889"
           sodipodi:open="true"
           sodipodi:arc-type="arc"
           d="m 176.21688,150.2717 a 6.9485121,6.4814048 0 0 1 -6.88893,6.48116 6.9485121,6.4814048 0 0 1 -7.00707,-6.37003 6.9485121,6.4814048 0 0 1 6.76879,-6.59039 6.9485121,6.4814048 0 0 1 7.12313,6.25702" />
        <path
           style="fill:#ffb380;fill-opacity:1;stroke-width:0.264999"
           id="path8250"
           sodipodi:type="arc"
           sodipodi:cx="169.62576"
           sodipodi:cy="149.81342"
           sodipodi:rx="6.1246076"
           sodipodi:ry="7.1363573"
           sodipodi:start="0"
           sodipodi:end="6.24889"
           sodipodi:open="true"
           sodipodi:arc-type="arc"
           d="m 175.75037,149.81342 a 6.1246076,7.1363573 0 0 1 -6.0721,7.13609 6.1246076,7.1363573 0 0 1 -6.17621,-7.01373 6.1246076,7.1363573 0 0 1 5.96619,-7.25636 6.1246076,7.1363573 0 0 1 6.27852,6.8893" />
        <path
           style="fill:#ffb380;fill-opacity:1;stroke-width:0.209375"
           id="path8252"
           sodipodi:type="arc"
           sodipodi:cx="230.08562"
           sodipodi:cy="39.278774"
           sodipodi:rx="3.8708475"
           sodipodi:ry="7.0487123"
           sodipodi:start="0"
           sodipodi:end="6.24889"
           sodipodi:open="true"
           sodipodi:arc-type="arc"
           d="m 233.95646,39.278774 a 3.8708475,7.0487123 0 0 1 -3.83766,7.048453 3.8708475,7.0487123 0 0 1 -3.90346,-6.92759 3.8708475,7.0487123 0 0 1 3.77072,-7.167243 3.8708475,7.0487123 0 0 1 3.96813,6.80469"
           transform="matrix(0.8592139,0.51161653,-0.33524464,0.94213111,0,0)" />
        <path
           style="fill:#ffb380;fill-opacity:1;stroke-width:0.263177"
           id="path8254"
           sodipodi:type="arc"
           sodipodi:cx="168.99333"
           sodipodi:cy="152.19885"
           sodipodi:rx="6.0824752"
           sodipodi:ry="7.087265"
           sodipodi:start="0"
           sodipodi:end="6.24889"
           sodipodi:open="true"
           sodipodi:arc-type="arc"
           d="m 175.07581,152.19885 a 6.0824752,7.087265 0 0 1 -6.03033,7.08701 6.0824752,7.087265 0 0 1 -6.13373,-6.96548 6.0824752,7.087265 0 0 1 5.92515,-7.20645 6.0824752,7.087265 0 0 1 6.23533,6.84191" />
        <path
           style="fill:#000000;fill-opacity:1;stroke-width:0.232303"
           id="path8256"
           sodipodi:type="arc"
           sodipodi:cx="221.34038"
           sodipodi:cy="84.667"
           sodipodi:rx="6.1750026"
           sodipodi:ry="5.4392476"
           sodipodi:start="0"
           sodipodi:end="6.24889"
           sodipodi:open="true"
           sodipodi:arc-type="arc"
           d="m 227.51538,84.667 a 6.1750026,5.4392476 0 0 1 -6.12206,5.439048 6.1750026,5.4392476 0 0 1 -6.22704,-5.345782 6.1750026,5.4392476 0 0 1 6.01529,-5.530715 6.1750026,5.4392476 0 0 1 6.33018,5.250945"
           transform="matrix(0.94674597,0.32198146,-0.36994161,0.92905501,0,0)" />
        <path
           style="fill:#ffb380;fill-opacity:1;stroke-width:0.233559"
           id="path8258"
           sodipodi:type="arc"
           sodipodi:cx="203.98505"
           sodipodi:cy="110.55006"
           sodipodi:rx="5.3479609"
           sodipodi:ry="6.3484893"
           sodipodi:start="0"
           sodipodi:end="6.24889"
           sodipodi:open="true"
           sodipodi:arc-type="arc"
           d="m 209.33301,110.55006 a 5.3479609,6.3484893 0 0 1 -5.30211,6.34825 5.3479609,6.3484893 0 0 1 -5.39303,-6.2394 5.3479609,6.3484893 0 0 1 5.20963,-6.45524 5.3479609,6.3484893 0 0 1 5.48236,6.12871"
           transform="matrix(0.97948673,0.20150867,-0.19383885,0.98103338,0,0)" />
        <rect
           style="fill:#ffb380;fill-opacity:1;stroke-width:0.218088"
           id="rect8260"
           width="5.7850571"
           height="6.804719"
           x="166.30217"
           y="146.55194"
           ry="0.56931424"
           transform="matrix(0.99977984,0.02098287,-0.07179033,0.99741975,0,0)" />
        <path
           style="fill:#ffb380;fill-opacity:1;stroke-width:0.231718"
           id="path8262"
           sodipodi:type="arc"
           sodipodi:cx="205.83771"
           sodipodi:cy="115.02711"
           sodipodi:rx="5.5053039"
           sodipodi:ry="6.0702019"
           sodipodi:start="0"
           sodipodi:end="6.24889"
           sodipodi:open="true"
           sodipodi:arc-type="arc"
           d="m 211.34301,115.02711 a 5.5053039,6.0702019 0 0 1 -5.4581,6.06998 5.5053039,6.0702019 0 0 1 -5.5517,-5.9659 5.5053039,6.0702019 0 0 1 5.36291,-6.17228 5.5053039,6.0702019 0 0 1 5.64365,5.86006"
           transform="matrix(0.9824434,0.18656089,-0.20931971,0.97784726,0,0)" />
        <path
           id="path8264"
           style="fill:#ffa467;fill-opacity:1;stroke-width:0.531889"
           d="m 155.38922,154.3852 a 15.521932,11.554465 0.22571469 0 0 -0.17919,1.88166 15.521932,11.554465 0.22571469 0 0 15.60831,11.41783 15.521932,11.554465 0.22571469 0 0 13.80618,-6.39565 16.325087,11.461231 0.22558696 0 1 -12.81711,4.4328 16.325087,11.461231 0.22558696 0 1 -16.41822,-11.3293 16.325087,11.461231 0.22558696 0 1 3e-5,-0.007 z" />
      </g>
      <path
         style="fill:url(#radialGradient128482);fill-opacity:1;stroke-width:0.634669"
         id="path128474"
         transform="rotate(-75.317384)"
         sodipodi:type="arc"
         sodipodi:cx="-132.15897"
         sodipodi:cy="-115.26124"
         sodipodi:rx="28.863787"
         sodipodi:ry="44.395638"
         sodipodi:start="3.1433102"
         sodipodi:end="3.132978"
         sodipodi:open="true"
         sodipodi:arc-type="arc"
         d="m -161.02271,-115.33749 a 28.863787,44.395638 0 0 1 28.83876,-44.31937 28.863787,44.395638 0 0 1 28.8886,44.24252 28.863787,44.395638 0 0 1 -28.68952,44.547932 28.863787,44.395638 0 0 1 -29.03681,-44.012382" />
    </g>
    <g
       id="g128301"
       transform="matrix(0.59217274,2.3138956e-4,-2.3138956e-4,0.59217274,5.3532978,55.600963)"
       style="fill:#cccccc;fill-opacity:1" />
    <g
       id="g130511">
      <g
         id="g103344"
         transform="matrix(0.59217274,2.3138956e-4,-2.3138956e-4,0.59217274,6.1141195,75.277434)">
        <g
           id="g101768"
           transform="matrix(1.1264818,0,0,1.1264818,-24.570198,-30.162765)"
           style="fill:#000000">
          <rect
             style="fill:#000000;fill-opacity:1;stroke-width:0.296104"
             id="rect101762"
             width="19.087658"
             height="19.087658"
             x="99.751091"
             y="-150.9751"
             transform="matrix(0.73655714,0.67637533,-0.73602833,0.67695073,0,0)" />
          <rect
             style="fill:#000000;fill-opacity:1;stroke-width:0.329275"
             id="rect101764"
             width="20.439629"
             height="22.042524"
             x="166.39513"
             y="-204.92216"
             transform="matrix(0.54201643,0.84036789,-0.45518363,0.89039758,0,0)" />
          <rect
             style="fill:#000000;fill-opacity:1;stroke-width:0.307899"
             id="rect101766"
             width="19.43812"
             height="20.266247"
             x="-137.19633"
             y="-120.47955"
             transform="matrix(-0.74064332,0.67189841,-0.81184429,-0.583874,0,0)" />
        </g>
        <g
           id="g100290"
           transform="translate(-1.2977845,-33.227087)"
           style="fill:#ff4d4d;fill-opacity:1">
          <rect
             style="fill:#ff4d4d;fill-opacity:1;stroke-width:0.296104"
             id="rect99983"
             width="19.087658"
             height="19.087658"
             x="99.751091"
             y="-150.9751"
             transform="matrix(0.73655714,0.67637533,-0.73602833,0.67695073,0,0)" />
          <rect
             style="fill:#ff4d4d;fill-opacity:1;stroke-width:0.329275"
             id="rect99985"
             width="20.439629"
             height="22.042524"
             x="166.39513"
             y="-204.92216"
             transform="matrix(0.54201643,0.84036789,-0.45518363,0.89039758,0,0)" />
          <rect
             style="fill:#ff4d4d;fill-opacity:1;stroke-width:0.307899"
             id="rect100105"
             width="19.43812"
             height="20.266247"
             x="-137.19633"
             y="-120.47955"
             transform="matrix(-0.74064332,0.67189841,-0.81184429,-0.583874,0,0)" />
        </g>
        <g
           id="g103228"
           transform="matrix(0.78687443,0,0,0.78687443,37.916924,-38.39056)"
           style="fill:#ff1717;fill-opacity:1">
          <rect
             style="fill:#ff1717;fill-opacity:1;stroke-width:0.296104"
             id="rect103222"
             width="19.087658"
             height="19.087658"
             x="99.751091"
             y="-150.9751"
             transform="matrix(0.73655714,0.67637533,-0.73602833,0.67695073,0,0)" />
          <rect
             style="fill:#ff1717;fill-opacity:1;stroke-width:0.329275"
             id="rect103224"
             width="20.439629"
             height="22.042524"
             x="166.39513"
             y="-204.92216"
             transform="matrix(0.54201643,0.84036789,-0.45518363,0.89039758,0,0)" />
          <rect
             style="fill:#ff1717;fill-opacity:1;stroke-width:0.307899"
             id="rect103226"
             width="19.43812"
             height="20.266247"
             x="-137.19633"
             y="-120.47955"
             transform="matrix(-0.74064332,0.67189841,-0.81184429,-0.583874,0,0)" />
        </g>
        <g
           id="g103236"
           transform="matrix(0.47249268,0,0,0.47249268,95.762581,-46.007204)"
           style="fill:#da0000;fill-opacity:1">
          <rect
             style="fill:#da0000;fill-opacity:1;stroke-width:0.296104"
             id="rect103230"
             width="19.087658"
             height="19.087658"
             x="99.751091"
             y="-150.9751"
             transform="matrix(0.73655714,0.67637533,-0.73602833,0.67695073,0,0)" />
          <rect
             style="fill:#da0000;fill-opacity:1;stroke-width:0.329275"
             id="rect103232"
             width="20.439629"
             height="22.042524"
             x="166.39513"
             y="-204.92216"
             transform="matrix(0.54201643,0.84036789,-0.45518363,0.89039758,0,0)" />
          <rect
             style="fill:#da0000;fill-opacity:1;stroke-width:0.307899"
             id="rect103234"
             width="19.43812"
             height="20.266247"
             x="-137.19633"
             y="-120.47955"
             transform="matrix(-0.74064332,0.67189841,-0.81184429,-0.583874,0,0)" />
        </g>
        <g
           id="g103244"
           transform="matrix(0.27737126,0,0,0.27737126,131.66455,-50.734483)"
           style="fill:#b80000;fill-opacity:1">
          <rect
             style="fill:#b80000;fill-opacity:1;stroke-width:0.296104"
             id="rect103238"
             width="19.087658"
             height="19.087658"
             x="99.751091"
             y="-150.9751"
             transform="matrix(0.73655714,0.67637533,-0.73602833,0.67695073,0,0)" />
          <rect
             style="fill:#b80000;fill-opacity:1;stroke-width:0.329275"
             id="rect103240"
             width="20.439629"
             height="22.042524"
             x="166.39513"
             y="-204.92216"
             transform="matrix(0.54201643,0.84036789,-0.45518363,0.89039758,0,0)" />
          <rect
             style="fill:#b80000;fill-opacity:1;stroke-width:0.307899"
             id="rect103242"
             width="19.43812"
             height="20.266247"
             x="-137.19633"
             y="-120.47955"
             transform="matrix(-0.74064332,0.67189841,-0.81184429,-0.583874,0,0)" />
        </g>
      </g>
      <g
         id="g130457">
        <g
           id="g130462">
          <rect
             style="fill:#ffffff;fill-opacity:1;stroke-width:0.128072"
             id="rect127565"
             width="4.1366253"
             height="6.9007812"
             x="-843.73706"
             y="856.52905"
             transform="matrix(0.38526844,-0.92280455,0.50669781,-0.86212373,0,0)" />
          <path
             id="rect127929"
             style="fill:#ffabab;fill-opacity:0.404592;stroke-width:0.286393"
             d="m 56.76264,111.76741 -14.331344,5.2e-4 0.92491,6.38372 -0.187,0.78189 11.879658,-3e-5 z"
             transform="matrix(0.63079444,-0.77594998,0.71859572,0.69542806,0,0)" />
          <rect
             style="fill:#ffffff;fill-opacity:1;stroke-width:0.0645296"
             id="rect128317"
             width="2.0754795"
             height="3.4916909"
             x="-701.79785"
             y="748.55377"
             transform="matrix(0.67715984,-0.73583596,0.77524476,-0.63166096,0,0)" />
        </g>
      </g>
    </g>
  </g>
</svg>
