<?xml version="1.0" encoding="UTF-8" standalone="no"?>
<!-- Created with Inkscape (http://www.inkscape.org/) -->

<svg
   width="200mm"
   height="200mm"
   viewBox="0 0 200 200"
   version="1.1"
   id="svg5"
   inkscape:version="1.2.2 (b0a8486541, 2022-12-01)"
   sodipodi:docname="tileset.svg"
   xmlns:inkscape="http://www.inkscape.org/namespaces/inkscape"
   xmlns:sodipodi="http://sodipodi.sourceforge.net/DTD/sodipodi-0.dtd"
   xmlns="http://www.w3.org/2000/svg"
   xmlns:svg="http://www.w3.org/2000/svg">
  <sodipodi:namedview
     id="namedview7"
     pagecolor="#ffffff"
     bordercolor="#000000"
     borderopacity="0.25"
     inkscape:showpageshadow="2"
     inkscape:pageopacity="0.0"
     inkscape:pagecheckerboard="0"
     inkscape:deskcolor="#d1d1d1"
     inkscape:document-units="mm"
     showgrid="true"
     inkscape:zoom="0.70710678"
     inkscape:cx="456.08387"
     inkscape:cy="540.93669"
     inkscape:window-width="1916"
     inkscape:window-height="1036"
     inkscape:window-x="1280"
     inkscape:window-y="0"
     inkscape:window-maximized="1"
     inkscape:current-layer="g99807">
    <inkscape:grid
       type="xygrid"
       id="grid2501"
       spacingx="0.26458333"
       empspacing="84"
       dotted="false" />
  </sodipodi:namedview>
  <defs
     id="defs2" />
  <g
     inkscape:label="Layer 1"
     inkscape:groupmode="layer"
     id="layer1">
    <rect
       style="fill:#000000;fill-opacity:1;stroke-width:1.67022"
       id="rect51909"
       width="68.262497"
       height="41.064152"
       x="21.431253"
       y="26.299173" />
    <rect
       style="fill:#7d5935;fill-opacity:1;stroke-width:0.264999"
       id="rect10956"
       width="22.225"
       height="22.225"
       x="22.225"
       y="22.225" />
    <rect
       style="fill:#7d5935;fill-opacity:1;stroke-width:0.264999"
       id="rect16054"
       width="22.225"
       height="22.225"
       x="44.450001"
       y="22.225" />
    <rect
       style="fill:#7d5935;fill-opacity:1;stroke-width:0.264999"
       id="rect16056"
       width="22.225004"
       height="22.225"
       x="66.674995"
       y="22.225"
       ry="0" />
    <rect
       style="fill:#251d18;fill-opacity:1;stroke-width:0.264999"
       id="rect16532"
       width="22.225"
       height="22.225"
       x="22.225"
       y="44.450001" />
    <rect
       style="fill:#251d18;fill-opacity:1;stroke-width:0.264999"
       id="rect18250"
       width="22.225"
       height="22.225"
       x="44.450001"
       y="44.450001" />
    <rect
       style="fill:#251d18;fill-opacity:1;stroke-width:0.264999"
       id="rect18252"
       width="22.225"
       height="22.225"
       x="66.674995"
       y="44.450001" />
    <g
       id="g21313"
       transform="matrix(1,0,0,3.1736342,22.224998,-46.058267)" />
    <rect
       style="fill:#5b412e;fill-opacity:1;stroke-width:0.264999"
       id="rect34799"
       width="22.225"
       height="8.9958334"
       x="22.225"
       y="35.454166" />
    <rect
       style="fill:#5b412e;fill-opacity:1;stroke-width:0.264999"
       id="rect34797"
       width="22.225"
       height="8.9958334"
       x="44.450001"
       y="35.454166" />
    <rect
       style="fill:#5b412e;fill-opacity:1;stroke-width:0.264999"
       id="rect34795"
       width="22.225"
       height="8.9958334"
       x="66.674995"
       y="35.454166" />
    <path
       style="fill:#7d5935;fill-opacity:1;stroke-width:0.264999"
       d="m 88.899999,33.602073 v 10.583343 c 0,0 -3.968746,-3.968749 -2.910413,-6.614583 0.523569,-1.308924 1.322913,1.852083 -0.264587,1.322917 -1.53019,-0.510064 -3.548088,0.130892 -5.820833,0.264583 -2.873583,0.169035 -5.88096,-1.777016 -8.202084,-0.264583 -0.730774,0.476169 -3.175,0.264583 -5.027083,0.264583 -0.822016,0 -1.505405,-0.149023 -1.852083,-0.264583 -1.5875,-0.529167 -3.636376,-0.740125 -4.7625,-0.79375 -4.27123,-0.203392 -6.614583,1.058333 -10.583333,0 -1.848821,-0.493019 -3.175,1.058333 -5.027084,1.058333 -0.973628,0 -1.914363,-0.03967 -2.910416,-0.264583 -2.955743,-0.667425 -3.96875,-2.38125 -6.614583,-0.529167 -1.668902,1.168231 -6.61946,-1.717355 -8.995834,-0.529167 -1.636062,0.818032 -2.665352,-1.013192 -3.175,-1.852083 -0.149712,-0.246429 -0.185452,-0.24114 -0.264583,-0.264583 0,-2.645833 -0.264583,1.322916 -0.264579,-2.116677 0.03108,0 0,0 0,0"
       id="path34664"
       sodipodi:nodetypes="ccsssssssssssssccc" />
    <path
       style="fill:#5b412e;fill-opacity:1;stroke-width:0.264999"
       d="m 88.899999,24.60624 v 20.902093 c 0,0 -6.02701,-5.273794 -4.233333,-6.35 0.564209,-0.338525 1.572947,-3.009305 0.79375,-4.7625 -1.058334,-2.38125 0.113656,-4.782049 0.52917,-5.820833 0.52357,-1.308924 1.587496,2.645833 -4e-6,2.116667 -1.53019,-0.510064 -3.812671,-0.662858 -6.085416,-0.529167 -2.873583,0.169035 -5.88096,-1.777016 -8.202084,-0.264583 -0.730774,0.476169 -3.175,0.264583 -5.027083,0.264583 -0.822016,0 -1.505405,-0.149023 -1.852083,-0.264583 -1.5875,-0.529167 -3.636376,-0.740125 -4.7625,-0.79375 -4.27123,-0.203392 -6.614583,1.058333 -10.583333,0 -1.848821,-0.493019 -3.175,1.058333 -5.027084,1.058333 -0.973628,0 -1.914363,-0.03967 -2.910416,-0.264583 -2.955743,-0.667425 -3.96875,-2.38125 -6.614583,-0.529167 -1.668902,1.168231 -6.61946,-1.717355 -8.995834,-0.529167 -0.848522,0.424261 0.652295,2.682403 0.529167,5.027084 -0.0893,1.700477 -2.101483,3.56599 -1.322917,4.233333 0.790632,0.677685 -2.80294,-0.76191 -2.910416,-0.79375 0,-2.645833 0,-9.260417 4e-6,-12.70001 0.03108,0 0,0 0,0"
       id="path32165"
       sodipodi:nodetypes="ccssssssssssssssssccc" />
    <path
       style="fill:#000000;fill-opacity:1;stroke-width:0.264999"
       d="m 88.899999,21.882949 c 0,0 0.01462,0.0042 0.04118,0.0038 0.223399,-0.0038 1.545427,0.372365 1.403851,3.216889 -0.157323,3.160885 -1.062143,5.107509 -1.062143,5.107509 l -0.382892,-5.417772 c 0,0 0.504714,4.185723 0.475325,4.689099 L 89.129915,33.6858 c 0,0 -2.720541,-3.596767 -2.595687,-6.15535 0.06871,-1.408078 0.750078,1.0072 -0.837422,0.478034 -1.53019,-0.510064 -3.601038,0.174415 -5.873783,0.308106 -2.873583,0.169035 -5.787289,-1.758449 -8.108413,-0.246016 -0.730774,0.476169 -3.168143,0.247206 -5.020226,0.247206 -0.822016,0 -1.521226,-0.149928 -1.867904,-0.265488 -1.5875,-0.529167 -3.659284,-0.654405 -4.785408,-0.70803 -4.27123,-0.203392 -6.602269,0.988472 -10.571019,-0.06986 -1.848821,-0.493019 -3.157147,1.046984 -5.009231,1.046984 -0.973628,0 -1.919539,-0.03862 -2.915592,-0.263535 -2.955743,-0.667425 -3.948815,-2.398407 -6.594648,-0.546324 -1.668902,1.168231 -6.657842,-1.662364 -9.034216,-0.474177 -2.116666,1.058334 -3.478553,3.381815 -3.827062,3.278567 -0.351041,-0.103999 -0.834733,-3.677828 -0.467888,-2.825756 0.161319,0.374696 -1.073057,1.09644 -1.116257,1.048279 -0.147736,-0.164705 0.0059,-3.716276 0.02052,-3.992607 0.03796,-0.715694 0.288011,-1.538331 0.564612,-2.120658 0.173221,-0.364682 0.870126,-0.542225 1.13471,-0.542225 0.03108,0 0,0 0,0"
       id="path26035"
       sodipodi:nodetypes="cssccscssssssssssssssssssc" />
    <path
       style="fill:#3b9c28;fill-opacity:1;stroke-width:0.264999"
       d="m 88.899999,22.225 c 0,0 0.01462,0.0042 0.04118,0.0038 0.223399,-0.0038 1.253667,0.333003 1.017149,3.17121 -0.264584,3.175 -0.529166,3.439583 -0.529166,3.439583 l -0.529167,-3.704167 c 0,0 0.529167,1.322917 0.264583,4.497917 l -0.264583,3.175 c 0,0 -2.645833,-4.233333 -1.5875,-6.879167 0.523569,-1.308924 0,2.116667 -1.5875,1.587501 -1.53019,-0.510064 -3.548088,0.130892 -5.820833,0.264583 -2.873583,0.169035 -5.88096,-1.777016 -8.202084,-0.264583 -0.730774,0.476169 -3.175,0.264583 -5.027083,0.264583 -0.822016,0 -1.505405,-0.149023 -1.852083,-0.264583 -1.5875,-0.529167 -3.636376,-0.740125 -4.7625,-0.79375 -4.27123,-0.203392 -6.614583,1.058333 -10.583333,0 -1.848821,-0.493019 -3.175,1.058333 -5.027084,1.058333 -0.973628,0 -1.914363,-0.03967 -2.910416,-0.264583 -2.955743,-0.667425 -3.96875,-2.38125 -6.614583,-0.529167 -1.668902,1.168231 -6.61946,-1.717354 -8.995834,-0.529167 -2.116666,1.058334 -3.355657,3.278248 -3.704166,3.175 -0.351041,-0.103999 -0.529167,-3.573519 -0.529167,-2.645833 0,0.299311 -0.75055,0.841911 -0.79375,0.79375 -0.147736,-0.164705 -0.01466,-2.634086 0,-2.910417 0.03796,-0.715694 0.25257,-1.534349 0.529171,-2.116676 C 21.604471,22.389485 21.960416,22.225 22.225,22.225 c 0.03108,0 0,0 0,0"
       id="path24443"
       sodipodi:nodetypes="cssccscssssssssssssssssssc" />
    <path
       style="fill:#51cc37;fill-opacity:1;stroke-width:0.264999"
       d="m 88.899999,22.225 c 0,0 0.01462,0.0042 0.04118,0.0038 0.223399,-0.0038 1.311117,1.436796 0.75257,4.229533 -0.264583,1.322917 -0.264583,1.322917 -0.264583,1.322917 l -0.79375,-3.175 c 0,0 0.455005,-0.284653 0.264583,2.38125 l -0.264583,3.704167 c 0,0 -1.058334,-2.38125 -1.058334,-5.55625 0,-1.409754 0,0.529166 -1.5875,0 -1.53019,-0.510064 -3.812671,-0.133691 -6.085416,0 -2.873583,0.169035 -5.88096,-1.777016 -8.202084,-0.264583 -0.730774,0.476169 -3.175,0.264583 -5.027083,0.264583 -0.822016,0 -1.505405,-0.149023 -1.852083,-0.264583 -1.5875,-0.529167 -3.636376,-0.740125 -4.7625,-0.79375 -4.27123,-0.203392 -6.614583,1.058333 -10.583333,0 -1.848821,-0.493019 -3.175,1.058333 -5.027084,1.058333 -0.973628,0 -1.914363,-0.03967 -2.910416,-0.264583 C 38.58384,24.203409 37.570833,22.489584 34.925,24.341667 33.256098,25.509898 28.30554,22.624313 25.929166,23.8125 23.8125,24.870834 22.838092,28.149081 22.489583,28.045833 22.138542,27.941834 21.695833,24.472314 21.695833,25.4 c 0,0.299311 -0.485967,1.371078 -0.529167,1.322917 -0.147736,-0.164705 -0.01466,-2.369503 0,-2.645834 0.03796,-0.715694 0.264584,-1.322916 0.529167,-1.5875 C 21.981314,22.204103 21.960416,22.225 22.225,22.225 c 0.03108,0 0,0 0,0"
       id="path28979"
       sodipodi:nodetypes="cssccscssssssssssssssssssc" />
    <path
       style="fill:#5b412e;fill-opacity:1;stroke-width:0.222644"
       d="m 88.899995,44.44999 c 0,6.18349 0,2.988245 0,7.470601 0,0 -3.968746,-2.801472 -2.910413,-4.669121 0.523569,-0.923947 1.322913,1.307354 -0.264587,0.933825 -1.53019,-0.360046 -3.548088,0.09239 -5.820833,0.186764 -2.873583,0.119319 -5.88096,-1.254365 -8.202084,-0.186764 -0.730774,0.336119 -3.175,0.186764 -5.027083,0.186764 -0.822016,0 -1.505405,-0.105193 -1.852083,-0.186764 -1.5875,-0.37353 -3.636376,-0.522442 -4.7625,-0.560295 -4.27123,-0.143571 -6.614583,0.747059 -10.583333,0 -1.848821,-0.348014 -3.175,0.747059 -5.027084,0.747059 -0.973628,0 -1.914363,-0.028 -2.910416,-0.186764 -2.955743,-0.471124 -3.96875,-1.680884 -6.614583,-0.37353 -1.668902,0.824634 -6.61946,-1.212251 -8.995834,-0.37353 -2.116666,0.74706 -3.355657,2.314059 -3.704166,2.241178 0,-1.867648 0,-2.801473 4e-6,-5.229423 0.03108,0 0,0 0,0"
       id="path38127"
       sodipodi:nodetypes="ccssssssssssssccc" />
    <rect
       style="fill:#7d5935;fill-opacity:1;stroke-width:0.264999"
       id="rect41184"
       width="22.225"
       height="22.225"
       x="22.224998"
       y="88.900002" />
    <rect
       style="fill:#7d5935;fill-opacity:1;stroke-width:0.264999"
       id="rect41186"
       width="22.225"
       height="22.225"
       x="44.449993"
       y="88.900002" />
    <g
       id="g41344"
       transform="translate(-23.133454,-0.00937451)">
      <path
         style="fill:#000000;fill-opacity:1;stroke-width:0.264999"
         d="m 168.524,22.225 -1.94305,-1.5875 c 0,0 3.89942,0.367223 3.37828,0.459063 -0.43482,0.07663 1.04719,-0.946596 1.86419,-1.186031 l 1.48247,-0.43446 c 0,0 -1.07507,1.330406 -1.33965,1.859573 -0.33468,0.669346 -0.0475,-0.566401 -0.0475,-0.566401 l 1.88739,-0.49942 c 0,0 -0.79395,1.050817 -1.0189,1.349726 -0.22496,0.298909 0.1542,0.604493 0.1542,0.604493"
         id="path41294"
         sodipodi:nodetypes="ccsscscczc" />
      <path
         style="fill:#4fa83c;fill-opacity:1;stroke-width:0.264999"
         d="m 169.06875,22.225 -1.85209,-1.322917 c 0,0 3.43959,0.529167 2.91042,0.529167 -0.52917,0 1.05833,-1.058334 1.85208,-1.322917 l 0.79375,-0.264583 c 0,0 -1.05833,1.058333 -1.32291,1.5875 -0.33468,0.669346 0,-0.264583 0,-0.264583 l 1.85208,-0.529167 c 0,0 -0.52917,0.529167 -0.79375,0.79375 -0.26458,0.264583 0,0.79375 0,0.79375"
         id="path41292"
         sodipodi:nodetypes="ccsscscczc" />
      <path
         style="fill:#3f8430;fill-opacity:1;stroke-width:0.264999"
         d="m 169.06875,22.225 -1.85209,-1.322917 c 0,0 3.50225,0.45817 2.98138,0.551519 -0.52026,0.09324 -0.005,-0.399368 0.83559,-0.88645 -0.69687,0.873899 0.34723,0.884968 1.23413,1.157023 0.14883,0.04565 0.16372,0.420854 0.24534,0.497786"
         id="path41296"
         sodipodi:nodetypes="ccscsc" />
    </g>
    <rect
       style="fill:#7d5935;fill-opacity:1;stroke-width:0.264999"
       id="rect41188"
       width="22.225004"
       height="22.225"
       x="66.674995"
       y="88.900002"
       ry="0" />
    <rect
       style="fill:#5b412e;fill-opacity:1;stroke-width:0.264999"
       id="rect41190"
       width="22.225"
       height="8.9958334"
       x="22.224998"
       y="102.12916" />
    <rect
       style="fill:#5b412e;fill-opacity:1;stroke-width:0.264999"
       id="rect41192"
       width="22.225"
       height="8.9958334"
       x="44.449993"
       y="102.12916" />
    <rect
       style="fill:#5b412e;fill-opacity:1;stroke-width:0.264999"
       id="rect41194"
       width="22.225"
       height="8.9958334"
       x="66.674995"
       y="102.12916" />
    <path
       style="fill:#7d5935;fill-opacity:1;stroke-width:0.264999"
       d="m 88.899999,100.27707 c 0,8.75994 0,4.23335 0,10.58335 0,0 -3.96874,-3.96875 -2.91041,-6.61459 0.52357,-1.30892 1.32291,1.85209 -0.26459,1.32292 -1.53019,-0.51006 -3.54809,0.13089 -5.82083,0.26458 -2.87358,0.16904 -5.88096,-1.77701 -8.20209,-0.26458 -0.73077,0.47617 -3.175,0.26458 -5.02708,0.26458 -0.82201,0 -1.5054,-0.14902 -1.85208,-0.26458 -1.5875,-0.52917 -3.63638,-0.74013 -4.7625,-0.79375 -4.27123,-0.20339 -6.61458,1.05833 -10.58333,0 -1.84883,-0.49302 -3.175,1.05833 -5.02709,1.05833 -0.97363,0 -1.91436,-0.0397 -2.91041,-0.26458 -2.95575,-0.66743 -3.96875,-2.38125 -6.61459,-0.52917 -1.6689,1.16823 -6.61946,-1.71735 -8.99583,-0.52916 -2.11667,1.05833 -3.35566,3.27824 -3.70417,3.175 0,-2.64584 0,-3.96875 0,-7.40835 0.0311,0 0,0 0,0"
       id="path41196"
       sodipodi:nodetypes="ccssssssssssssccc" />
    <path
       style="fill:#5b412e;fill-opacity:1;stroke-width:0.264999"
       d="m 88.899999,91.281237 c 0,8.759943 0,4.23334 0,10.583343 0,0 -3.96874,-3.968753 -2.91041,-6.614583 0.52357,-1.30892 1.32291,1.85208 -0.26459,1.32292 -1.53019,-0.51007 -3.54809,0.13089 -5.82083,0.26458 -2.87358,0.16903 -5.88096,-1.77702 -8.20209,-0.26458 -0.73077,0.47617 -3.175,0.26458 -5.02708,0.26458 -0.82201,0 -1.5054,-0.14902 -1.85208,-0.26458 -1.5875,-0.52917 -3.63638,-0.74013 -4.7625,-0.79375 -4.27123,-0.2034 -6.61458,1.05833 -10.58333,0 -1.84883,-0.49302 -3.175,1.05833 -5.02709,1.05833 -0.97363,0 -1.91436,-0.0397 -2.91041,-0.26458 -2.95575,-0.66743 -3.96875,-2.38125 -6.61459,-0.52917 -1.6689,1.16823 -6.61946,-1.71735 -8.99583,-0.52917 -2.11667,1.05834 -3.35566,3.27825 -3.70417,3.175 0,-2.64583 0,-3.96875 0,-7.40834 0.0311,0 0,0 0,0"
       id="path41198"
       sodipodi:nodetypes="ccssssssssssssccc" />
    <g
       id="g93052"
       transform="translate(154.51858,-44.456164)">
      <path
         style="fill:#000000;fill-opacity:1;stroke-width:0.264999"
         d="m 24.606249,88.899997 0.52917,-2.116667 0.26458,-0.264583 v -0.264583 l 0.79375,-1.5875 1.85208,-1.322917 1.05834,0.529167 1.32291,0.529166 1.85209,1.322917 0.52916,1.058333 -0.26458,0.264584 0.52917,0.264583 1.05833,1.5875 z"
         id="path42374"
         sodipodi:nodetypes="cccccccccccccc" />
      <path
         style="fill:#828474;fill-opacity:1;stroke-width:0.264999"
         d="m 25.113229,88.899769 0.55135,-2.116439 0.26458,-0.264583 v -0.264584 l 0.79375,-1.5875 1.32292,-0.79375 0.52917,0.264584 1.05833,0.264583 2.11667,1.322917 0.52916,1.058333 -0.26458,0.264583 0.52917,0.264584 1.05833,1.5875 z"
         id="path42298" />
      <path
         style="fill:#abaca1;fill-opacity:1;stroke-width:0.264999"
         d="m 26.458329,85.19583 1.32292,-0.79375 0.26458,0.529167 0.26459,-0.529167 1.77115,0.281138 -0.44764,-0.288485 -1.0495,-0.266973 -0.53931,-0.269193 -1.33388,0.809679 z"
         id="path42430"
         sodipodi:nodetypes="cccccccccc" />
      <path
         style="fill:#000000;fill-opacity:1;stroke-width:0.264999"
         d="m 25.662619,86.232261 1.06029,0.551069 h -1.32291 l 0.26458,-0.529167 z"
         id="path44334" />
      <path
         style="fill:#abaca1;fill-opacity:1;stroke-width:0.264999"
         d="m 25.664579,86.78333 h 1.05833 l -0.64668,0.297072 -0.46765,-0.08088 z"
         id="path46021"
         sodipodi:nodetypes="ccccc" />
      <path
         style="fill:#606356;fill-opacity:1;stroke-width:0.264999"
         d="m 29.633329,88.899997 c 0,0 0.47339,-0.502115 0.47339,-0.515781 0,-0.01367 0.16765,-0.554609 0.16765,-0.554609 l -0.0508,-0.430246 -0.23723,-0.244809 2.10616,0.03878 0.39239,0.07329 0.0832,0.03985 1.03399,1.59353 z"
         id="path46790"
         sodipodi:nodetypes="cscccccccc" />
      <path
         style="fill:#000000;fill-opacity:1;stroke-width:0.275498"
         d="m 32.281159,86.833839 -0.33435,0.24005 c 0,0 -1.75941,0.09422 -2.13361,-0.161634 -0.37419,-0.25585 -0.58362,-0.472776 -0.58362,-0.472776 l 0.0588,0.182917 0.70759,0.543046 2.0921,0.03624 0.461,0.08625 -0.0123,-0.42987 z"
         id="path44292"
         sodipodi:nodetypes="cczccccccc" />
      <path
         style="fill:#abaca1;fill-opacity:1;stroke-width:0.264999"
         d="m 31.678399,87.194284 c 0,0 0.8309,0.30553 0.83957,0.307657 0.009,0.0021 0.53751,0.55284 0.53751,0.55284 l -0.48347,-0.752931 -0.0537,-0.02791 -0.42776,-0.08088 z"
         id="path47199"
         sodipodi:nodetypes="ccccccc" />
    </g>
    <g
       id="g84160"
       transform="matrix(0.75104413,0,0,0.66721497,77.867906,-37.093468)">
      <path
         style="fill:#000000;fill-opacity:1;stroke-width:0.264999"
         d="m 52.916666,88.9 c 0,0 -0.264583,-2.38125 -0.79375,-2.38125 h -1.852083 c 0,0 2.645833,-2.645832 3.439583,-0.264583 0.905015,2.715043 -0.264583,0 -0.264583,0 0,0 0,-1.5875 0.79375,-2.910417 0.79375,-1.322916 2.910416,-1.5875 2.910416,-1.5875 0,0 -1.370014,1.076333 -1.5875,2.38125 l -0.264583,1.5875 c 0,0 -0.282312,-0.349823 0.79375,-0.529167 l 1.5875,-0.264583 c 0,0 -1.5875,1.322917 -1.852083,2.645833 L 55.562499,88.9 Z"
         id="path79557"
         sodipodi:nodetypes="cscscscscscscc" />
      <g
         id="g84154">
        <path
           style="fill:#4fa83c;fill-opacity:1;stroke-width:0.264999"
           d="m 53.181249,88.9 c 0,0 2e-6,-2.645834 -1.058333,-2.645833 h -1.322917 c 0,0 2.116667,-1.852084 2.910417,0.529165 0.905015,2.715043 0,0 0,0 0,0 0,-1.852083 0.79375,-3.175 0.79375,-1.322916 2.116667,-1.5875 2.116667,-1.5875 0,0 -1.322917,0.79375 -1.5875,2.910417 l -0.264584,2.116667 c 0,0 0.264584,-1.322917 1.322917,-1.5875 l 1.058333,-0.264584 c 0,0 -1.322916,1.058334 -1.5875,2.38125 l -0.264583,1.322917 z"
           id="path79555"
           sodipodi:nodetypes="cscscscscscscc" />
        <path
           style="fill:#3f8430;fill-opacity:1;stroke-width:0.264999"
           d="m 53.181249,88.9 c 0,0 2e-6,-2.645834 -1.058333,-2.645833 h -1.322917 c 0,0 2.116667,-1.852084 2.910417,0.529165 0.905015,2.715043 0,0 0,0 0,0 0,-1.852083 0.79375,-3.175 0.79375,-1.322916 2.116667,-1.5875 2.116667,-1.5875 0,0 -1.852084,0.793751 -2.116667,2.910418 -0.264583,1.5875 -0.264583,3.175 0.79375,3.968749 z"
           id="path79559"
           sodipodi:nodetypes="cscscscccc" />
      </g>
    </g>
    <g
       id="g92192"
       transform="matrix(2.5762942,0,0,2.5762942,-195.9019,-206.81178)">
      <path
         style="fill:#000000;fill-opacity:1;stroke-width:0.264999"
         d="m 141.98418,88.899999 c 0,0 0.30455,-0.78792 0.30038,-1.31707 l -0.004,-0.535013 0.66316,0.0075 c 0,0 -0.10897,1.844707 0.0812,1.84631 l -0.20429,-0.0017 z"
         id="path92003"
         sodipodi:nodetypes="csccscc" />
      <path
         style="fill:#e3dbdb;fill-opacity:1;stroke-width:0.264999"
         d="m 142.08125,88.899999 c 0,0 0.26458,-0.79375 0.26458,-1.322917 v -0.529166 h 0.52917 c 0,0 -0.0865,1.852083 0.0358,1.852083 h -0.0901 z"
         id="path90672"
         sodipodi:nodetypes="csccscc" />
      <path
         style="fill:#000000;fill-opacity:1;stroke-width:0.264999"
         d="m 141.44699,87.401605 c 0,0 1.27613,-0.26633 2.33446,-0.0017 1.00099,0.250247 -0.8018,-1.910265 -2.15098,-0.885631 -0.17307,0.131433 -0.44806,0.887379 -0.18344,0.887378 2.34772,-9e-6 0,0 0,0 z"
         id="path92093"
         sodipodi:nodetypes="cssscc" />
      <path
         style="fill:#b03232;fill-opacity:1;stroke-width:0.264999"
         d="m 141.55208,87.312499 c 0,0 1.05834,-0.264582 2.11667,10e-7 1.00099,0.250247 -1.05834,-1.852083 -2.11667,-0.529167 -0.0644,0.08049 -0.26458,0.529167 0,0.529166 2.34772,-9e-6 0,0 0,0 z"
         id="path90728"
         sodipodi:nodetypes="csssc" />
      <path
         style="fill:#d95050;fill-opacity:1;stroke-width:0.236605"
         d="m 141.91471,87.207013 c 0,0 0.73075,-0.171212 1.65578,0.05191 0.87479,0.211009 -0.56537,-1.534797 -1.69709,-0.507792 -0.0679,0.06166 -0.18881,0.455879 0.0413,0.455878 2.04198,-8e-6 0,0 0,0 z"
         id="path92490"
         sodipodi:nodetypes="cssscc" />
      <path
         style="fill:#ffffff;fill-opacity:1;stroke-width:0.396907"
         id="path91856"
         sodipodi:type="arc"
         sodipodi:cx="-121.911"
         sodipodi:cy="-113.13375"
         sodipodi:rx="0.18322062"
         sodipodi:ry="0.086473204"
         sodipodi:start="3.185723"
         sodipodi:end="3.1336929"
         sodipodi:open="true"
         sodipodi:arc-type="arc"
         d="m -122.09405,-113.13757 a 0.18322062,0.0864732 0 0 1 0.18875,-0.0826 0.18322062,0.0864732 0 0 1 0.17749,0.088 0.18322062,0.0864732 0 0 1 -0.18413,0.0849 0.18322062,0.0864732 0 0 1 -0.18228,-0.0858"
         transform="rotate(168.66726)" />
      <path
         style="fill:#ffffff;fill-opacity:1;stroke-width:0.691346"
         id="path91910"
         sodipodi:type="arc"
         sodipodi:cx="142.41621"
         sodipodi:cy="86.585297"
         sodipodi:rx="0.2520358"
         sodipodi:ry="0.14892814"
         sodipodi:start="3.185723"
         sodipodi:end="3.1336929"
         sodipodi:open="true"
         sodipodi:arc-type="arc"
         d="m 142.16442,86.578727 a 0.2520358,0.14892814 0 0 1 0.25964,-0.142286 0.2520358,0.14892814 0 0 1 0.24415,0.151553 0.2520358,0.14892814 0 0 1 -0.25328,0.146229 0.2520358,0.14892814 0 0 1 -0.25074,-0.14775" />
      <path
         style="fill:#ffffff;fill-opacity:1;stroke-width:0.648565"
         id="path91912"
         sodipodi:type="arc"
         sodipodi:cx="56.732216"
         sodipodi:cy="157.85417"
         sodipodi:rx="0.13310827"
         sodipodi:ry="0.18483715"
         sodipodi:start="3.185723"
         sodipodi:end="3.1336929"
         sodipodi:open="true"
         sodipodi:arc-type="arc"
         d="m 56.599237,157.84602 a 0.13310827,0.18483715 0 0 1 0.137121,-0.1766 0.13310827,0.18483715 0 0 1 0.128944,0.1881 0.13310827,0.18483715 0 0 1 -0.133766,0.18149 0.13310827,0.18483715 0 0 1 -0.132424,-0.18338"
         transform="rotate(-38.997833)" />
      <path
         style="fill:#ffffff;fill-opacity:1;stroke-width:0.369291"
         id="path91914"
         sodipodi:type="arc"
         sodipodi:cx="-145.23532"
         sodipodi:cy="-78.106697"
         sodipodi:rx="0.13987981"
         sodipodi:ry="0.098052986"
         sodipodi:start="3.185723"
         sodipodi:end="3.1336929"
         sodipodi:open="true"
         sodipodi:arc-type="arc"
         d="m -145.37506,-78.111023 a 0.13987981,0.09805299 0 0 1 0.14409,-0.09368 0.13987981,0.09805299 0 0 1 0.13551,0.09978 0.13987981,0.09805299 0 0 1 -0.14058,0.09628 0.13987981,0.09805299 0 0 1 -0.13916,-0.09728"
         transform="matrix(-0.99814023,-0.06095962,0.02759319,-0.99961924,0,0)" />
      <path
         id="path92196"
         style="fill:#b6a2a2;fill-opacity:1;stroke-width:0.264999"
         d="m 142.6736,87.282743 c -0.11349,6.82e-4 -0.22342,0.0046 -0.32776,0.01043 v 0.210212 h 0.5121 c 0.002,-0.08058 0.005,-0.154765 0.007,-0.218637 -0.0648,-0.0017 -0.12879,-0.0024 -0.19176,-0.002 z" />
    </g>
    <path
       style="fill:#000000;fill-opacity:1;stroke-width:0.264999"
       d="m 88.899999,88.557946 c 0,0 0.0146,0.0042 0.0412,0.0038 0.2234,-0.0038 1.54543,0.372365 1.40385,3.216889 -0.15732,3.160882 -1.06214,5.107512 -1.06214,5.107512 l -0.38289,-5.417775 c 0,0 0.50471,4.185725 0.47532,4.689095 l -0.2454,4.203333 c 0,0 -2.72054,-3.596773 -2.59569,-6.155353 0.0687,-1.408078 0.75008,1.0072 -0.83742,0.47803 -1.53019,-0.51006 -3.60104,0.17442 -5.87378,0.30811 -2.87359,0.16903 -5.78729,-1.758449 -8.10842,-0.24602 -0.73077,0.47617 -3.16814,0.24721 -5.02022,0.24721 -0.82202,0 -1.52123,-0.14993 -1.86791,-0.26549 -1.5875,-0.52917 -3.65928,-0.6544 -4.78541,-0.70803 -4.27123,-0.20339 -6.60226,0.98847 -10.57101,-0.0699 -1.84883,-0.493017 -3.15715,1.04699 -5.00924,1.04699 -0.97362,0 -1.91953,-0.0386 -2.91559,-0.26354 -2.95574,-0.66742 -3.94881,-2.398406 -6.59465,-0.54632 -1.6689,1.16823 -6.65784,-1.662367 -9.03421,-0.47418 -2.11667,1.05833 -3.47856,3.38181 -3.82707,3.27857 -0.35104,-0.104 -0.83473,-3.677831 -0.46789,-2.82576 0.16132,0.3747 -1.07305,1.09644 -1.11625,1.04828 -0.14774,-0.16471 0.006,-3.716276 0.0205,-3.992607 0.038,-0.715694 0.28801,-1.538331 0.56461,-2.120658 0.17322,-0.364682 0.87013,-0.542225 1.13471,-0.542225 0.0311,0 0,0 0,0"
       id="path41200"
       sodipodi:nodetypes="cssccscssssssssssssssssssc" />
    <path
       style="fill:#3b9c28;fill-opacity:1;stroke-width:0.264999"
       d="m 88.899999,88.899997 c 0,0 0.0146,0.0042 0.0412,0.0038 0.2234,-0.0038 1.25367,0.333003 1.01715,3.17121 -0.26458,3.175 -0.52917,3.43958 -0.52917,3.43958 l -0.52916,-3.704164 c 0,0 0.52916,1.322917 0.26458,4.497914 l -0.26458,3.175 c 0,0 -2.64584,-4.23333 -1.5875,-6.879164 0.52357,-1.308924 0,2.116664 -1.5875,1.587504 -1.53019,-0.51007 -3.54809,0.13089 -5.82084,0.26458 -2.87358,0.16903 -5.88096,-1.777016 -8.20208,-0.26458 -0.73077,0.47617 -3.175,0.26458 -5.02708,0.26458 -0.82202,0 -1.50541,-0.14902 -1.85209,-0.26458 -1.5875,-0.52917 -3.63637,-0.740128 -4.7625,-0.793753 -4.27123,-0.203392 -6.61458,1.058333 -10.58333,0 -1.84882,-0.493019 -3.175,1.058333 -5.02708,1.058333 -0.97363,0 -1.91437,-0.0397 -2.91042,-0.26458 -2.95574,-0.667428 -3.96875,-2.381253 -6.61458,-0.52917 -1.6689,1.16823 -6.61946,-1.717354 -8.99584,-0.529167 -2.11667,1.058337 -3.35566,3.278247 -3.70417,3.174997 -0.35104,-0.104 -0.52916,-3.573516 -0.52916,-2.64583 0,0.29931 -0.75055,0.84191 -0.79375,0.79375 -0.14774,-0.16471 -0.0147,-2.634086 0,-2.910417 0.038,-0.715694 0.25257,-1.534349 0.52917,-2.116676 0.17322,-0.364682 0.52916,-0.529167 0.79375,-0.529167 0.0311,0 0,0 0,0"
       id="path41202"
       sodipodi:nodetypes="cssccscssssssssssssssssssc" />
    <path
       style="fill:#51cc37;fill-opacity:1;stroke-width:0.264999"
       d="m 88.899999,88.899997 c 0,0 0.0146,0.0042 0.0412,0.0038 0.2234,-0.0038 1.31112,1.436796 0.75257,4.229533 -0.2646,1.322917 -0.2646,1.322917 -0.2646,1.322917 l -0.79375,-3.175 c 0,0 0.455,-0.284653 0.26458,2.38125 l -0.26458,3.70417 c 0,0 -1.05834,-2.38125 -1.05834,-5.556253 0,-1.409754 0,0.529166 -1.5875,0 -1.53019,-0.510064 -3.81267,-0.133691 -6.08541,0 -2.87358,0.169035 -5.88096,-1.777016 -8.20209,-0.264583 -0.73077,0.476169 -3.175,0.264583 -5.02708,0.264583 -0.82201,0 -1.5054,-0.149023 -1.85208,-0.264583 -1.5875,-0.529167 -3.63638,-0.740125 -4.7625,-0.79375 -4.27123,-0.203392 -6.61458,1.058333 -10.58333,0 -1.84883,-0.493019 -3.175,1.058333 -5.02709,1.058333 -0.97363,0 -1.91436,-0.03967 -2.91041,-0.264583 -2.95575,-0.667425 -3.96875,-2.38125 -6.61459,-0.529167 -1.6689,1.168231 -6.61946,-1.717354 -8.99583,-0.529167 -2.11667,1.058334 -3.09108,4.33658 -3.43959,4.23333 -0.35104,-0.104 -0.79375,-3.573516 -0.79375,-2.64583 0,0.299311 -0.48597,1.371078 -0.52917,1.322917 -0.14773,-0.164705 -0.0147,-2.369503 0,-2.645834 0.038,-0.715694 0.26459,-1.322916 0.52917,-1.5875 0.28548,-0.28548 0.26458,-0.264583 0.52917,-0.264583 0.0311,0 0,0 0,0"
       id="path41204"
       sodipodi:nodetypes="cssccscssssssssssssssssssc" />
    <g
       id="g58259"
       transform="matrix(-1,0,0,1.4065566,290.77708,-32.491428)" />
    <g
       id="g64406"
       inkscape:label="barrel"
       transform="matrix(1.4168411,0,0,1.4168411,-17.06952,-101.67883)">
      <path
         style="fill:#000000;fill-opacity:1;stroke-width:0.184966"
         id="path59360"
         sodipodi:type="arc"
         sodipodi:cx="145.38641"
         sodipodi:cy="72.609238"
         sodipodi:rx="4.3097792"
         sodipodi:ry="0.65285438"
         sodipodi:start="3.1433102"
         sodipodi:end="2.9411941"
         sodipodi:arc-type="arc"
         d="m 141.07664,72.608116 a 4.3097792,0.65285438 0 0 1 4.09949,-0.650955 4.3097792,0.65285438 0 0 1 4.49881,0.587328 4.3097792,0.65285438 0 0 1 -3.64504,0.710285 4.3097792,0.65285438 0 0 1 -4.86702,-0.515579"
         sodipodi:open="true" />
      <path
         style="fill:#694118;fill-opacity:1;stroke-width:0.170028"
         id="path59423"
         sodipodi:type="arc"
         sodipodi:cx="145.38814"
         sodipodi:cy="72.757301"
         sodipodi:rx="4.0396905"
         sodipodi:ry="0.58854526"
         sodipodi:start="3.1433102"
         sodipodi:end="2.9411941"
         sodipodi:arc-type="arc"
         d="m 141.34845,72.75629 a 4.0396905,0.58854526 0 0 1 3.84258,-0.586833 4.0396905,0.58854526 0 0 1 4.21688,0.529474 4.0396905,0.58854526 0 0 1 -3.41661,0.640318 4.0396905,0.58854526 0 0 1 -4.56201,-0.464792"
         sodipodi:open="true" />
      <path
         style="fill:#9a6024;fill-opacity:1;stroke-width:0.134093"
         id="path59107"
         sodipodi:type="arc"
         sodipodi:cx="145.38814"
         sodipodi:cy="72.83802"
         sodipodi:rx="3.6560316"
         sodipodi:ry="0.40446994"
         sodipodi:start="3.1433102"
         sodipodi:end="2.9411941"
         sodipodi:arc-type="arc"
         d="m 141.73211,72.837326 a 3.6560316,0.40446994 0 0 1 3.47764,-0.403294 3.6560316,0.40446994 0 0 1 3.81639,0.363874 3.6560316,0.40446994 0 0 1 -3.09212,0.44005 3.6560316,0.40446994 0 0 1 -4.12875,-0.319422"
         sodipodi:open="true" />
      <g
         id="g58253"
         transform="matrix(1,0,0,1.4065566,0,-32.491428)">
        <path
           style="fill:#000000;fill-opacity:1;stroke-width:2.51025"
           d="m 141.14517,84.611738 c 0,0 -1.18059,-0.781157 -1.18059,-4.985202 0,-4.204044 1.18059,-4.985202 1.18059,-4.985202 0,0 0.88544,0.276957 2.95146,0.553912 2.06603,0.276955 -0.29515,0.227246 -0.29515,4.43129 0,4.204045 2.65633,5.816069 0.29515,5.539114 -2.36117,-0.276955 -2.95146,-0.553912 -2.95146,-0.553912 z"
           id="path58092"
           sodipodi:nodetypes="czczzzc" />
        <path
           style="fill:#d38b40;fill-opacity:1;stroke-width:2.32303"
           d="m 141.2875,84.402083 c 0,0 -1.05834,-0.746261 -1.05834,-4.7625 0,-4.016239 1.05834,-4.7625 1.05834,-4.7625 0,0 0.79375,0.264584 2.64583,0.529167 1.85208,0.264583 -0.26459,0.217094 -0.26459,4.233333 0,4.016239 2.38126,5.55625 0.26459,5.291667 -2.11667,-0.264583 -2.64583,-0.529167 -2.64583,-0.529167 z"
           id="path58090"
           sodipodi:nodetypes="czczzzc" />
      </g>
      <g
         id="g58249"
         transform="matrix(1,0,0,1.4065566,0,-32.491428)">
        <path
           style="fill:#000000;fill-opacity:1;stroke-width:2.55556"
           d="m 142.19884,84.93125 c 0,0 -0.91134,-0.529166 -0.91134,-4.7625 0,-4.233333 0.91134,-5.291667 0.91134,-5.291667 0,0 1.21512,0.264584 2.43025,0.264584 1.21513,0 0.60755,0.79375 0.60755,5.027083 0,4.233334 0.60757,5.027083 -0.60755,5.027083 -1.21513,0 -2.43025,-0.264583 -2.43025,-0.264583 z"
           id="path58039"
           sodipodi:nodetypes="czczzzc" />
        <path
           style="fill:#d79651;fill-opacity:1;stroke-width:2.32303"
           d="m 142.34583,84.680235 c 0,0 -0.79375,-0.50203 -0.79375,-4.518269 0,-4.016239 0.79375,-5.020299 0.79375,-5.020299 0,0 1.05833,0.251015 2.11667,0.251015 1.05834,0 0.52916,0.753045 0.52916,4.769284 0,4.016239 0.52917,4.769283 -0.52916,4.769283 -1.05834,0 -2.11667,-0.251014 -2.11667,-0.251014 z"
           id="path57989"
           sodipodi:nodetypes="czczzzc" />
      </g>
      <path
         style="fill:#000000;fill-opacity:1;stroke-width:2.51025"
         d="m 141.14517,84.611738 c 0,0 -1.18059,-0.781157 -1.18059,-4.985202 0,-4.204044 1.18059,-4.985202 1.18059,-4.985202 0,0 0.88544,0.276957 2.95146,0.553912 2.06603,0.276955 -0.29515,0.227246 -0.29515,4.43129 0,4.204045 2.65633,5.816069 0.29515,5.539114 -2.36117,-0.276955 -2.95146,-0.553912 -2.95146,-0.553912 z"
         id="path58255"
         sodipodi:nodetypes="czczzzc"
         transform="matrix(-1,0,0,1.4065566,290.77708,-32.491429)" />
      <path
         style="fill:#a66826;fill-opacity:1;stroke-width:2.32303"
         d="m 141.2875,84.402083 c 0,0 -1.05834,-0.746261 -1.05834,-4.7625 0,-4.016239 1.05834,-4.7625 1.05834,-4.7625 0,0 0.79375,0.264584 2.64583,0.529167 1.85208,0.264583 -0.26459,0.217094 -0.26459,4.233333 0,4.016239 2.38126,5.55625 0.26459,5.291667 -2.11667,-0.264583 -2.64583,-0.529167 -2.64583,-0.529167 z"
         id="path58257"
         sodipodi:nodetypes="czczzzc"
         transform="matrix(-1,0,0,1.4065566,290.77708,-32.491429)" />
      <g
         id="g58265"
         transform="matrix(-1,0,0,1,290.77708,0)">
        <path
           style="fill:#000000;fill-opacity:1;stroke-width:3.03085"
           d="m 142.19884,86.969183 c 0,0 -0.91134,-0.744302 -0.91134,-6.698726 0,-5.954423 0.91134,-7.443029 0.91134,-7.443029 0,0 1.21512,0.372152 2.43025,0.372152 1.21513,0 0.60755,1.116454 0.60755,7.070877 0,5.954424 0.60757,7.070877 -0.60755,7.070877 -1.21513,0 -2.43025,-0.372151 -2.43025,-0.372151 z"
           id="path58261"
           sodipodi:nodetypes="czczzzc" />
        <path
           style="fill:#b47129;fill-opacity:1;stroke-width:2.75507"
           d="m 142.34583,86.616116 c 0,0 -0.79375,-0.706134 -0.79375,-6.355201 0,-5.649068 0.79375,-7.061335 0.79375,-7.061335 0,0 1.05833,0.353067 2.11667,0.353067 1.05834,0 0.52916,1.0592 0.52916,6.708268 0,5.649067 0.52917,6.708266 -0.52916,6.708266 -1.05834,0 -2.11667,-0.353065 -2.11667,-0.353065 z"
           id="path58263"
           sodipodi:nodetypes="czczzzc" />
      </g>
      <path
         style="fill:#000000;fill-opacity:1;stroke-width:3.12162"
         d="m 144.32003,87.341334 c 0,0 -0.91586,-0.785654 -0.91586,-7.070877 0,-6.285224 0.91586,-7.070877 0.91586,-7.070877 h 2.13702 c 0,0 0.91586,0.785653 0.91586,7.070877 0,6.285223 -0.91586,7.070877 -0.91586,7.070877 z"
         id="path57987"
         sodipodi:nodetypes="czcczcc" />
      <path
         style="fill:#c67c2d;fill-opacity:1;stroke-width:2.82856"
         d="m 144.4625,86.969183 c 0,0 -0.79375,-0.744304 -0.79375,-6.698726 0,-5.954423 0.79375,-6.698726 0.79375,-6.698726 h 1.85208 c 0,0 0.79375,0.744303 0.79375,6.698726 0,5.954422 -0.79375,6.698726 -0.79375,6.698726 z"
         id="path57985"
         sodipodi:nodetypes="czcczcc" />
      <path
         style="fill:#ffffff;fill-opacity:0.171628;stroke-width:0.279828"
         id="path61380"
         sodipodi:type="arc"
         sodipodi:cx="143.25761"
         sodipodi:cy="78.840843"
         sodipodi:rx="2.8623059"
         sodipodi:ry="4.9410772"
         sodipodi:start="3.185723"
         sodipodi:end="3.1336929"
         sodipodi:open="true"
         sodipodi:arc-type="arc"
         d="m 140.39809,78.622863 a 2.8623059,4.9410772 0 0 1 2.94859,-4.720704 2.8623059,4.9410772 0 0 1 2.77277,5.028188 2.8623059,4.9410772 0 0 1 -2.87646,4.851509 2.8623059,4.9410772 0 0 1 -2.84759,-4.90198" />
      <g
         id="g60905"
         transform="matrix(1.0136308,0,0,1,-1.9817606,8.6345831)">
        <path
           id="path60895"
           style="fill:#000000;fill-opacity:1;stroke-width:0.356899"
           d="m 150.33782,74.216297 a 4.9733048,1.6945592 0 0 1 -4.97447,1.532989 4.9733048,1.6945592 0 0 1 -4.92273,-1.531803 5.2618864,1.6945592 0 0 0 -0.30872,0.499406 l -0.005,0.08811 a 5.2618864,1.6945592 0 0 0 5.2346,1.681152 5.2618864,1.6945592 0 0 0 5.28788,-1.663768 5.2618864,1.6945592 0 0 0 -0.31184,-0.606083 z" />
        <path
           id="path60897"
           style="fill:#000000;fill-opacity:1;stroke-width:0.359812"
           d="m 150.58722,74.579527 a 5.2239168,1.639705 0 0 1 -5.22514,1.483365 5.2239168,1.639705 0 0 1 -5.17079,-1.482217 5.5270405,1.639705 0 0 0 -0.32428,0.483239 l -0.005,0.08526 a 5.5270405,1.639705 0 0 0 5.49838,1.626732 5.5270405,1.639705 0 0 0 5.55434,-1.60991 5.5270405,1.639705 0 0 0 -0.32755,-0.586464 z" />
        <path
           id="path60899"
           style="fill:#9d9286;fill-opacity:1;stroke-width:0.341283"
           d="m 150.40483,74.514366 a 5.040638,1.5288194 0 0 1 -5.04182,1.383052 5.040638,1.5288194 0 0 1 -4.98938,-1.381983 5.3331266,1.5288194 0 0 0 -0.3129,0.450561 l -0.005,0.07949 a 5.3331266,1.5288194 0 0 0 5.30547,1.516723 5.3331266,1.5288194 0 0 0 5.35948,-1.50104 5.3331266,1.5288194 0 0 0 -0.31607,-0.546804 z" />
        <path
           id="path60907"
           style="fill:#c7c1b9;fill-opacity:1;stroke-width:0.341283"
           d="m 142.06251,75.515836 c 0.0105,0.155333 0.009,0.133684 0.0204,0.299723 l 0.0291,0.423747 a 5.3331266,1.5288194 0 0 0 0.85751,0.156063 l -0.0464,-0.680579 c -5.2e-4,-0.0077 -4.9e-4,-0.0062 -0.001,-0.01395 a 5.040638,1.5288194 0 0 1 -0.85954,-0.185002 z" />
        <path
           id="path61106"
           style="fill:#8f8276;fill-opacity:1;stroke-width:0.341283"
           d="m 150.40461,74.514347 a 5.040638,1.5288194 0 0 1 -5.04156,1.382861 5.040638,1.5288194 0 0 1 -0.72649,-0.01757 l -1.57482,0.529167 a 5.3331266,1.5288194 0 0 0 2.29927,0.153479 5.3331266,1.5288194 0 0 0 5.35969,-1.501201 5.3331266,1.5288194 0 0 0 -0.31609,-0.546736 z" />
      </g>
      <g
         id="g60893">
        <path
           id="path60176"
           style="fill:#000000;fill-opacity:1;stroke-width:0.356899"
           d="m 150.33782,74.216297 a 4.9733048,1.6945592 0 0 1 -4.97447,1.532989 4.9733048,1.6945592 0 0 1 -4.92273,-1.531803 5.2618864,1.6945592 0 0 0 -0.30872,0.499406 l -0.005,0.08811 a 5.2618864,1.6945592 0 0 0 5.2346,1.681152 5.2618864,1.6945592 0 0 0 5.28788,-1.663768 5.2618864,1.6945592 0 0 0 -0.31184,-0.606083 z" />
        <path
           id="path60178"
           style="fill:#000000;fill-opacity:1;stroke-width:0.359812"
           d="m 150.58722,74.579527 a 5.2239168,1.639705 0 0 1 -5.22514,1.483365 5.2239168,1.639705 0 0 1 -5.17079,-1.482217 5.5270405,1.639705 0 0 0 -0.32428,0.483239 l -0.005,0.08526 a 5.5270405,1.639705 0 0 0 5.49838,1.626732 5.5270405,1.639705 0 0 0 5.55434,-1.60991 5.5270405,1.639705 0 0 0 -0.32755,-0.586464 z" />
        <path
           id="path59863"
           style="fill:#a49a8e;fill-opacity:1;stroke-width:0.341283"
           d="m 150.40483,74.514366 a 5.040638,1.5288194 0 0 1 -5.04182,1.383052 5.040638,1.5288194 0 0 1 -4.98938,-1.381983 5.3331266,1.5288194 0 0 0 -0.3129,0.450561 l -0.005,0.07949 a 5.3331266,1.5288194 0 0 0 5.30547,1.516723 5.3331266,1.5288194 0 0 0 5.35948,-1.50104 5.3331266,1.5288194 0 0 0 -0.31607,-0.546804 z" />
        <path
           id="path60245"
           style="fill:#c7c1b9;fill-opacity:1;stroke-width:0.341283"
           d="m 140.90716,75.065186 c -0.065,0.219786 -0.0571,0.193416 -0.12816,0.433565 -0.043,0.14542 -0.0365,0.123938 -0.0775,0.262516 a 5.3331266,1.5288194 0 0 0 1.23455,0.436149 c 0.0367,-0.118336 0.0324,-0.105145 0.0729,-0.235644 0.0732,-0.236 0.0736,-0.236824 0.13229,-0.425814 a 5.040638,1.5288194 0 0 1 -1.23403,-0.470772 z m 1.67483,0.572058 c -0.0701,0.225829 -0.0918,0.294896 -0.20412,0.656807 a 5.3331266,1.5288194 0 0 0 0.73226,0.120923 c 0.0329,-0.111181 0.0274,-0.09289 0.0615,-0.208256 0.0733,-0.247615 0.0655,-0.221175 0.13229,-0.447001 A 5.040638,1.5288194 0 0 1 142.582,75.637244 Z" />
        <path
           id="path60696"
           style="fill:#94887c;fill-opacity:1;stroke-width:0.341283"
           d="m 150.40477,74.514315 a 5.040638,1.5288194 0 0 1 -3.92276,1.345654 l -1.70893,0.691431 a 5.3331266,1.5288194 0 0 0 0.58807,0.01085 5.3331266,1.5288194 0 0 0 5.35937,-1.501201 5.3331266,1.5288194 0 0 0 -0.31575,-0.546736 z" />
      </g>
    </g>
    <g
       id="g99649"
       transform="translate(0,-0.37743225)">
      <g
         id="g98476"
         style="fill:#000000"
         transform="translate(-23.133454,-0.00937451)">
        <path
           style="fill:#000000;fill-opacity:1;stroke-width:0.292312"
           id="path98470"
           sodipodi:type="arc"
           sodipodi:cx="165.13077"
           sodipodi:cy="41.253525"
           sodipodi:rx="5.0387626"
           sodipodi:ry="3.5092154"
           sodipodi:start="3.185723"
           sodipodi:end="3.1336929"
           sodipodi:open="true"
           sodipodi:arc-type="arc"
           d="m 160.09691,41.098712 a 5.0387626,3.5092154 0 0 1 5.19065,-3.352703 5.0387626,3.5092154 0 0 1 4.88114,3.571083 5.0387626,3.5092154 0 0 1 -5.06367,3.445602 5.0387626,3.5092154 0 0 1 -5.01287,-3.481448" />
        <path
           style="fill:#000000;fill-opacity:1;stroke-width:0.236379"
           id="path98472"
           sodipodi:type="arc"
           sodipodi:cx="167.87328"
           sodipodi:cy="41.97731"
           sodipodi:rx="4.0746169"
           sodipodi:ry="2.8377419"
           sodipodi:start="3.185723"
           sodipodi:end="3.1336929"
           sodipodi:open="true"
           sodipodi:arc-type="arc"
           d="m 163.80263,41.85212 a 4.0746169,2.8377419 0 0 1 4.19744,-2.711177 4.0746169,2.8377419 0 0 1 3.94715,2.887771 4.0746169,2.8377419 0 0 1 -4.09476,2.786301 4.0746169,2.8377419 0 0 1 -4.05367,-2.815288" />
        <path
           style="fill:#000000;fill-opacity:1;stroke-width:0.236236"
           id="path98474"
           sodipodi:type="arc"
           sodipodi:cx="166.84441"
           sodipodi:cy="39.577137"
           sodipodi:rx="4.0721397"
           sodipodi:ry="2.8360167"
           sodipodi:start="3.185723"
           sodipodi:end="3.1336929"
           sodipodi:open="true"
           sodipodi:arc-type="arc"
           d="m 162.77623,39.452023 a 4.0721397,2.8360167 0 0 1 4.19489,-2.709529 4.0721397,2.8360167 0 0 1 3.94476,2.886015 4.0721397,2.8360167 0 0 1 -4.09227,2.784608 4.0721397,2.8360167 0 0 1 -4.05122,-2.813576" />
      </g>
      <g
         id="g98468"
         transform="translate(-23.133454,-0.00937451)">
        <path
           style="fill:#4fa83c;fill-opacity:1;stroke-width:0.264999"
           id="path98459"
           sodipodi:type="arc"
           sodipodi:cx="165.13077"
           sodipodi:cy="41.253525"
           sodipodi:rx="4.5679464"
           sodipodi:ry="3.1813183"
           sodipodi:start="3.185723"
           sodipodi:end="3.1336929"
           sodipodi:open="true"
           sodipodi:arc-type="arc"
           d="m 160.56727,41.113178 a 4.5679464,3.1813183 0 0 1 4.70564,-3.039431 4.5679464,3.1813183 0 0 1 4.42505,3.237405 4.5679464,3.1813183 0 0 1 -4.59052,3.12365 4.5679464,3.1813183 0 0 1 -4.54448,-3.156146" />
        <path
           style="fill:#4fa83c;fill-opacity:1;stroke-width:0.205916"
           id="path98461"
           sodipodi:type="arc"
           sodipodi:cx="167.87329"
           sodipodi:cy="41.97731"
           sodipodi:rx="3.5495012"
           sodipodi:ry="2.4720283"
           sodipodi:start="3.185723"
           sodipodi:end="3.1336929"
           sodipodi:open="true"
           sodipodi:arc-type="arc"
           d="m 164.32725,41.868254 a 3.5495012,2.4720283 0 0 1 3.65649,-2.361775 3.5495012,2.4720283 0 0 1 3.43847,2.51561 3.5495012,2.4720283 0 0 1 -3.56705,2.427217 3.5495012,2.4720283 0 0 1 -3.53126,-2.452468" />
        <path
           style="fill:#4fa83c;fill-opacity:1;stroke-width:0.205916"
           id="path98463"
           sodipodi:type="arc"
           sodipodi:cx="166.84442"
           sodipodi:cy="39.577137"
           sodipodi:rx="3.5495012"
           sodipodi:ry="2.4720283"
           sodipodi:start="3.185723"
           sodipodi:end="3.1336929"
           sodipodi:open="true"
           sodipodi:arc-type="arc"
           d="m 163.29838,39.468081 a 3.5495012,2.4720283 0 0 1 3.65649,-2.361775 3.5495012,2.4720283 0 0 1 3.43847,2.51561 3.5495012,2.4720283 0 0 1 -3.56705,2.427217 3.5495012,2.4720283 0 0 1 -3.53126,-2.452468" />
      </g>
      <g
         id="g99425"
         transform="matrix(0.86701198,0,0,0.86701198,-0.48276659,5.3407803)"
         style="fill:#74c762;fill-opacity:1">
        <path
           style="fill:#74c762;fill-opacity:1;stroke-width:0.264999"
           id="path99419"
           sodipodi:type="arc"
           sodipodi:cx="165.13077"
           sodipodi:cy="41.253525"
           sodipodi:rx="4.5679464"
           sodipodi:ry="3.1813183"
           sodipodi:start="3.185723"
           sodipodi:end="3.1336929"
           sodipodi:open="true"
           sodipodi:arc-type="arc"
           d="m 160.56727,41.113178 a 4.5679464,3.1813183 0 0 1 4.70564,-3.039431 4.5679464,3.1813183 0 0 1 4.42505,3.237405 4.5679464,3.1813183 0 0 1 -4.59052,3.12365 4.5679464,3.1813183 0 0 1 -4.54448,-3.156146" />
        <path
           style="fill:#74c762;fill-opacity:1;stroke-width:0.205916"
           id="path99421"
           sodipodi:type="arc"
           sodipodi:cx="167.87329"
           sodipodi:cy="41.97731"
           sodipodi:rx="3.5495012"
           sodipodi:ry="2.4720283"
           sodipodi:start="3.185723"
           sodipodi:end="3.1336929"
           sodipodi:open="true"
           sodipodi:arc-type="arc"
           d="m 164.32725,41.868254 a 3.5495012,2.4720283 0 0 1 3.65649,-2.361775 3.5495012,2.4720283 0 0 1 3.43847,2.51561 3.5495012,2.4720283 0 0 1 -3.56705,2.427217 3.5495012,2.4720283 0 0 1 -3.53126,-2.452468" />
        <path
           style="fill:#74c762;fill-opacity:1;stroke-width:0.205916"
           id="path99423"
           sodipodi:type="arc"
           sodipodi:cx="166.84442"
           sodipodi:cy="39.577137"
           sodipodi:rx="3.5495012"
           sodipodi:ry="2.4720283"
           sodipodi:start="3.185723"
           sodipodi:end="3.1336929"
           sodipodi:open="true"
           sodipodi:arc-type="arc"
           d="m 163.29838,39.468081 a 3.5495012,2.4720283 0 0 1 3.65649,-2.361775 3.5495012,2.4720283 0 0 1 3.43847,2.51561 3.5495012,2.4720283 0 0 1 -3.56705,2.427217 3.5495012,2.4720283 0 0 1 -3.53126,-2.452468" />
      </g>
    </g>
    <g
       id="g99781"
       transform="matrix(-1.3219238,0,0,1.3219238,313.47277,-14.801447)">
      <g
         id="g99763"
         style="fill:#000000"
         transform="translate(-23.133454,-0.00937451)">
        <path
           style="fill:#000000;fill-opacity:1;stroke-width:0.292312"
           id="path99757"
           sodipodi:type="arc"
           sodipodi:cx="165.13077"
           sodipodi:cy="41.253525"
           sodipodi:rx="5.0387626"
           sodipodi:ry="3.5092154"
           sodipodi:start="3.185723"
           sodipodi:end="3.1336929"
           sodipodi:open="true"
           sodipodi:arc-type="arc"
           d="m 160.09691,41.098712 a 5.0387626,3.5092154 0 0 1 5.19065,-3.352703 5.0387626,3.5092154 0 0 1 4.88114,3.571083 5.0387626,3.5092154 0 0 1 -5.06367,3.445602 5.0387626,3.5092154 0 0 1 -5.01287,-3.481448" />
        <path
           style="fill:#000000;fill-opacity:1;stroke-width:0.236379"
           id="path99759"
           sodipodi:type="arc"
           sodipodi:cx="167.87328"
           sodipodi:cy="41.97731"
           sodipodi:rx="4.0746169"
           sodipodi:ry="2.8377419"
           sodipodi:start="3.185723"
           sodipodi:end="3.1336929"
           sodipodi:open="true"
           sodipodi:arc-type="arc"
           d="m 163.80263,41.85212 a 4.0746169,2.8377419 0 0 1 4.19744,-2.711177 4.0746169,2.8377419 0 0 1 3.94715,2.887771 4.0746169,2.8377419 0 0 1 -4.09476,2.786301 4.0746169,2.8377419 0 0 1 -4.05367,-2.815288" />
        <path
           style="fill:#000000;fill-opacity:1;stroke-width:0.236236"
           id="path99761"
           sodipodi:type="arc"
           sodipodi:cx="166.84441"
           sodipodi:cy="39.577137"
           sodipodi:rx="4.0721397"
           sodipodi:ry="2.8360167"
           sodipodi:start="3.185723"
           sodipodi:end="3.1336929"
           sodipodi:open="true"
           sodipodi:arc-type="arc"
           d="m 162.77623,39.452023 a 4.0721397,2.8360167 0 0 1 4.19489,-2.709529 4.0721397,2.8360167 0 0 1 3.94476,2.886015 4.0721397,2.8360167 0 0 1 -4.09227,2.784608 4.0721397,2.8360167 0 0 1 -4.05122,-2.813576" />
      </g>
      <g
         id="g99771"
         transform="translate(-23.133454,-0.00937451)">
        <path
           style="fill:#4fa83c;fill-opacity:1;stroke-width:0.264999"
           id="path99765"
           sodipodi:type="arc"
           sodipodi:cx="165.13077"
           sodipodi:cy="41.253525"
           sodipodi:rx="4.5679464"
           sodipodi:ry="3.1813183"
           sodipodi:start="3.185723"
           sodipodi:end="3.1336929"
           sodipodi:open="true"
           sodipodi:arc-type="arc"
           d="m 160.56727,41.113178 a 4.5679464,3.1813183 0 0 1 4.70564,-3.039431 4.5679464,3.1813183 0 0 1 4.42505,3.237405 4.5679464,3.1813183 0 0 1 -4.59052,3.12365 4.5679464,3.1813183 0 0 1 -4.54448,-3.156146" />
        <path
           style="fill:#4fa83c;fill-opacity:1;stroke-width:0.205916"
           id="path99767"
           sodipodi:type="arc"
           sodipodi:cx="167.87329"
           sodipodi:cy="41.97731"
           sodipodi:rx="3.5495012"
           sodipodi:ry="2.4720283"
           sodipodi:start="3.185723"
           sodipodi:end="3.1336929"
           sodipodi:open="true"
           sodipodi:arc-type="arc"
           d="m 164.32725,41.868254 a 3.5495012,2.4720283 0 0 1 3.65649,-2.361775 3.5495012,2.4720283 0 0 1 3.43847,2.51561 3.5495012,2.4720283 0 0 1 -3.56705,2.427217 3.5495012,2.4720283 0 0 1 -3.53126,-2.452468" />
        <path
           style="fill:#4fa83c;fill-opacity:1;stroke-width:0.205916"
           id="path99769"
           sodipodi:type="arc"
           sodipodi:cx="166.84442"
           sodipodi:cy="39.577137"
           sodipodi:rx="3.5495012"
           sodipodi:ry="2.4720283"
           sodipodi:start="3.185723"
           sodipodi:end="3.1336929"
           sodipodi:open="true"
           sodipodi:arc-type="arc"
           d="m 163.29838,39.468081 a 3.5495012,2.4720283 0 0 1 3.65649,-2.361775 3.5495012,2.4720283 0 0 1 3.43847,2.51561 3.5495012,2.4720283 0 0 1 -3.56705,2.427217 3.5495012,2.4720283 0 0 1 -3.53126,-2.452468" />
      </g>
      <g
         id="g99779"
         transform="matrix(0.86701198,0,0,0.86701198,-0.48276659,5.3407803)"
         style="fill:#74c762;fill-opacity:1">
        <path
           style="fill:#74c762;fill-opacity:1;stroke-width:0.264999"
           id="path99773"
           sodipodi:type="arc"
           sodipodi:cx="165.13077"
           sodipodi:cy="41.253525"
           sodipodi:rx="4.5679464"
           sodipodi:ry="3.1813183"
           sodipodi:start="3.185723"
           sodipodi:end="3.1336929"
           sodipodi:open="true"
           sodipodi:arc-type="arc"
           d="m 160.56727,41.113178 a 4.5679464,3.1813183 0 0 1 4.70564,-3.039431 4.5679464,3.1813183 0 0 1 4.42505,3.237405 4.5679464,3.1813183 0 0 1 -4.59052,3.12365 4.5679464,3.1813183 0 0 1 -4.54448,-3.156146" />
        <path
           style="fill:#74c762;fill-opacity:1;stroke-width:0.205916"
           id="path99775"
           sodipodi:type="arc"
           sodipodi:cx="167.87329"
           sodipodi:cy="41.97731"
           sodipodi:rx="3.5495012"
           sodipodi:ry="2.4720283"
           sodipodi:start="3.185723"
           sodipodi:end="3.1336929"
           sodipodi:open="true"
           sodipodi:arc-type="arc"
           d="m 164.32725,41.868254 a 3.5495012,2.4720283 0 0 1 3.65649,-2.361775 3.5495012,2.4720283 0 0 1 3.43847,2.51561 3.5495012,2.4720283 0 0 1 -3.56705,2.427217 3.5495012,2.4720283 0 0 1 -3.53126,-2.452468" />
        <path
           style="fill:#74c762;fill-opacity:1;stroke-width:0.205916"
           id="path99777"
           sodipodi:type="arc"
           sodipodi:cx="166.84442"
           sodipodi:cy="39.577137"
           sodipodi:rx="3.5495012"
           sodipodi:ry="2.4720283"
           sodipodi:start="3.185723"
           sodipodi:end="3.1336929"
           sodipodi:open="true"
           sodipodi:arc-type="arc"
           d="m 163.29838,39.468081 a 3.5495012,2.4720283 0 0 1 3.65649,-2.361775 3.5495012,2.4720283 0 0 1 3.43847,2.51561 3.5495012,2.4720283 0 0 1 -3.56705,2.427217 3.5495012,2.4720283 0 0 1 -3.53126,-2.452468" />
      </g>
    </g>
    <g
       id="g99807"
       transform="matrix(0.84634293,0,0,0.84634293,-3.3847756,6.5072761)">
      <g
         id="g99789"
         style="fill:#000000"
         transform="translate(-23.133454,-0.00937451)">
        <path
           style="fill:#000000;fill-opacity:1;stroke-width:0.292312"
           id="path99783"
           sodipodi:type="arc"
           sodipodi:cx="165.13077"
           sodipodi:cy="41.253525"
           sodipodi:rx="5.0387626"
           sodipodi:ry="3.5092154"
           sodipodi:start="3.185723"
           sodipodi:end="3.1336929"
           sodipodi:open="true"
           sodipodi:arc-type="arc"
           d="m 160.09691,41.098712 a 5.0387626,3.5092154 0 0 1 5.19065,-3.352703 5.0387626,3.5092154 0 0 1 4.88114,3.571083 5.0387626,3.5092154 0 0 1 -5.06367,3.445602 5.0387626,3.5092154 0 0 1 -5.01287,-3.481448" />
        <path
           style="fill:#000000;fill-opacity:1;stroke-width:0.236379"
           id="path99785"
           sodipodi:type="arc"
           sodipodi:cx="167.87328"
           sodipodi:cy="41.97731"
           sodipodi:rx="4.0746169"
           sodipodi:ry="2.8377419"
           sodipodi:start="3.185723"
           sodipodi:end="3.1336929"
           sodipodi:open="true"
           sodipodi:arc-type="arc"
           d="m 163.80263,41.85212 a 4.0746169,2.8377419 0 0 1 4.19744,-2.711177 4.0746169,2.8377419 0 0 1 3.94715,2.887771 4.0746169,2.8377419 0 0 1 -4.09476,2.786301 4.0746169,2.8377419 0 0 1 -4.05367,-2.815288" />
        <path
           style="fill:#000000;fill-opacity:1;stroke-width:0.236236"
           id="path99787"
           sodipodi:type="arc"
           sodipodi:cx="166.84441"
           sodipodi:cy="39.577137"
           sodipodi:rx="4.0721397"
           sodipodi:ry="2.8360167"
           sodipodi:start="3.185723"
           sodipodi:end="3.1336929"
           sodipodi:open="true"
           sodipodi:arc-type="arc"
           d="m 162.77623,39.452023 a 4.0721397,2.8360167 0 0 1 4.19489,-2.709529 4.0721397,2.8360167 0 0 1 3.94476,2.886015 4.0721397,2.8360167 0 0 1 -4.09227,2.784608 4.0721397,2.8360167 0 0 1 -4.05122,-2.813576" />
      </g>
      <g
         id="g99797"
         transform="translate(-22.500587,-0.18433216)">
        <path
           style="fill:#4fa83c;fill-opacity:1;stroke-width:0.264999"
           id="path99791"
           sodipodi:type="arc"
           sodipodi:cx="165.13077"
           sodipodi:cy="41.253525"
           sodipodi:rx="4.5679464"
           sodipodi:ry="3.1813183"
           sodipodi:start="3.185723"
           sodipodi:end="3.1336929"
           sodipodi:open="true"
           sodipodi:arc-type="arc"
           d="m 160.56727,41.113178 a 4.5679464,3.1813183 0 0 1 4.70564,-3.039431 4.5679464,3.1813183 0 0 1 4.42505,3.237405 4.5679464,3.1813183 0 0 1 -4.59052,3.12365 4.5679464,3.1813183 0 0 1 -4.54448,-3.156146" />
        <path
           style="fill:#4fa83c;fill-opacity:1;stroke-width:0.205916"
           id="path99793"
           sodipodi:type="arc"
           sodipodi:cx="167.87329"
           sodipodi:cy="41.97731"
           sodipodi:rx="3.5495012"
           sodipodi:ry="2.4720283"
           sodipodi:start="3.185723"
           sodipodi:end="3.1336929"
           sodipodi:open="true"
           sodipodi:arc-type="arc"
           d="m 164.32725,41.868254 a 3.5495012,2.4720283 0 0 1 3.65649,-2.361775 3.5495012,2.4720283 0 0 1 3.43847,2.51561 3.5495012,2.4720283 0 0 1 -3.56705,2.427217 3.5495012,2.4720283 0 0 1 -3.53126,-2.452468" />
        <path
           style="fill:#4fa83c;fill-opacity:1;stroke-width:0.205916"
           id="path99795"
           sodipodi:type="arc"
           sodipodi:cx="166.84442"
           sodipodi:cy="39.577137"
           sodipodi:rx="3.5495012"
           sodipodi:ry="2.4720283"
           sodipodi:start="3.185723"
           sodipodi:end="3.1336929"
           sodipodi:open="true"
           sodipodi:arc-type="arc"
           d="m 163.29838,39.468081 a 3.5495012,2.4720283 0 0 1 3.65649,-2.361775 3.5495012,2.4720283 0 0 1 3.43847,2.51561 3.5495012,2.4720283 0 0 1 -3.56705,2.427217 3.5495012,2.4720283 0 0 1 -3.53126,-2.452468" />
      </g>
      <g
         id="g99805"
         transform="matrix(0.86701198,0,0,0.86701198,0.15010002,5.1658226)"
         style="fill:#74c762;fill-opacity:1">
        <path
           style="fill:#74c762;fill-opacity:1;stroke-width:0.264999"
           id="path99799"
           sodipodi:type="arc"
           sodipodi:cx="165.13077"
           sodipodi:cy="41.253525"
           sodipodi:rx="4.5679464"
           sodipodi:ry="3.1813183"
           sodipodi:start="3.185723"
           sodipodi:end="3.1336929"
           sodipodi:open="true"
           sodipodi:arc-type="arc"
           d="m 160.56727,41.113178 a 4.5679464,3.1813183 0 0 1 4.70564,-3.039431 4.5679464,3.1813183 0 0 1 4.42505,3.237405 4.5679464,3.1813183 0 0 1 -4.59052,3.12365 4.5679464,3.1813183 0 0 1 -4.54448,-3.156146" />
        <path
           style="fill:#74c762;fill-opacity:1;stroke-width:0.205916"
           id="path99801"
           sodipodi:type="arc"
           sodipodi:cx="167.87329"
           sodipodi:cy="41.97731"
           sodipodi:rx="3.5495012"
           sodipodi:ry="2.4720283"
           sodipodi:start="3.185723"
           sodipodi:end="3.1336929"
           sodipodi:open="true"
           sodipodi:arc-type="arc"
           d="m 164.32725,41.868254 a 3.5495012,2.4720283 0 0 1 3.65649,-2.361775 3.5495012,2.4720283 0 0 1 3.43847,2.51561 3.5495012,2.4720283 0 0 1 -3.56705,2.427217 3.5495012,2.4720283 0 0 1 -3.53126,-2.452468" />
        <path
           style="fill:#74c762;fill-opacity:1;stroke-width:0.205916"
           id="path99803"
           sodipodi:type="arc"
           sodipodi:cx="166.84442"
           sodipodi:cy="39.577137"
           sodipodi:rx="3.5495012"
           sodipodi:ry="2.4720283"
           sodipodi:start="3.185723"
           sodipodi:end="3.1336929"
           sodipodi:open="true"
           sodipodi:arc-type="arc"
           d="m 163.29838,39.468081 a 3.5495012,2.4720283 0 0 1 3.65649,-2.361775 3.5495012,2.4720283 0 0 1 3.43847,2.51561 3.5495012,2.4720283 0 0 1 -3.56705,2.427217 3.5495012,2.4720283 0 0 1 -3.53126,-2.452468" />
      </g>
    </g>
  </g>
</svg>
